{"glyphs":{"0":{"ha":817,"x_min":0,"x_max":0,"o":"m 407 85 b 622 307 550 85 622 172 l 622 697 b 410 929 622 844 549 929 b 194 697 267 929 194 836 l 194 308 b 407 85 194 169 264 85 m 408 -14 b 86 307 197 -14 86 113 l 86 697 b 408 1028 86 888 215 1028 b 731 697 607 1028 731 883 l 731 307 b 408 -14 731 108 614 -14 "},"1":{"ha":817,"x_min":0,"x_max":0,"o":"m 58 104 l 347 104 l 347 800 b 182 735 318 757 244 735 l 165 735 l 165 847 l 172 847 b 351 1014 306 847 351 942 l 456 1014 l 456 104 l 758 104 l 758 0 l 58 0 "},"2":{"ha":817,"x_min":0,"x_max":0,"o":"m 83 107 b 360 467 83 267 225 371 b 611 747 483 556 611 636 b 404 931 611 854 533 931 b 174 782 300 931 219 869 l 79 832 b 403 1028 136 944 258 1028 b 722 746 596 1028 722 900 b 442 396 722 590 575 490 b 197 107 317 308 197 225 l 197 104 l 742 104 l 742 0 l 83 0 "},"3":{"ha":817,"x_min":0,"x_max":0,"o":"m 397 -12 b 54 136 239 -12 133 39 l 140 207 b 397 85 203 129 281 85 b 633 282 542 85 633 171 b 388 475 633 400 525 475 l 289 475 l 289 578 l 388 578 b 608 753 519 578 608 644 b 392 931 608 861 526 931 b 157 818 303 931 201 885 l 68 881 b 394 1028 131 963 258 1028 b 715 753 601 1028 715 913 b 569 528 715 649 661 571 b 742 282 675 485 742 401 b 397 -12 742 110 613 -12 "},"4":{"ha":817,"x_min":0,"x_max":0,"o":"m 504 233 l 58 233 l 58 333 l 503 1014 l 613 1014 l 613 332 l 758 332 l 758 233 l 613 233 l 613 0 l 504 0 m 504 332 l 504 833 l 176 332 "},"5":{"ha":817,"x_min":0,"x_max":0,"o":"m 411 -14 b 75 168 258 -14 136 60 l 176 233 b 411 88 221 151 294 88 b 642 324 546 88 642 182 b 406 563 642 479 524 563 b 193 458 311 563 239 521 l 85 493 l 163 1014 l 682 1014 l 682 911 l 254 911 l 206 594 b 406 663 256 635 324 663 b 751 324 582 663 751 554 b 411 -14 751 122 611 -14 "},"6":{"ha":817,"x_min":0,"x_max":0,"o":"m 408 -14 b 65 322 210 -14 65 136 b 139 554 65 407 94 492 l 439 1014 l 569 1014 l 331 649 b 424 660 360 656 390 660 b 751 322 608 660 751 515 b 408 -14 751 132 601 -14 m 407 85 b 646 322 538 85 646 192 b 407 561 646 456 538 561 b 171 324 276 561 171 456 b 407 85 171 193 276 85 "},"7":{"ha":817,"x_min":0,"x_max":0,"o":"m 636 910 l 58 910 l 58 1014 l 758 1014 l 758 919 l 336 0 l 218 0 "},"8":{"ha":817,"x_min":0,"x_max":0,"o":"m 408 -14 b 67 286 183 -14 67 114 b 226 536 67 393 128 485 b 97 758 144 585 97 664 b 408 1028 97 913 219 1028 b 722 758 593 1028 722 913 b 589 536 722 664 671 585 b 750 286 688 485 750 393 b 408 -14 750 114 625 -14 m 408 85 b 646 286 560 85 646 176 b 408 486 646 393 565 486 b 171 286 251 486 171 393 b 408 85 171 176 257 85 m 408 583 b 621 758 551 583 621 660 b 408 932 621 854 547 932 b 197 758 274 932 197 854 b 408 583 197 660 265 583 "},"9":{"ha":817,"x_min":0,"x_max":0,"o":"m 247 0 l 486 365 b 393 354 457 357 425 354 b 65 692 208 354 65 499 b 408 1028 65 882 215 1028 b 751 692 607 1028 751 878 b 678 460 751 607 722 522 l 378 0 m 410 453 b 646 690 540 453 646 558 b 410 929 646 821 540 929 b 171 692 279 929 171 822 b 410 453 171 558 279 453 "},"C":{"ha":1093,"x_min":0,"x_max":0,"o":"m 590 -14 b 69 507 303 -14 69 219 b 590 1028 69 794 303 1028 b 1042 767 783 1028 951 922 l 949 713 b 590 925 879 839 747 925 b 181 507 357 925 181 736 b 590 89 181 278 357 89 b 960 317 767 89 893 182 l 1056 267 b 590 -14 968 100 801 -14 "},"D":{"ha":981,"x_min":0,"x_max":0,"o":"m 100 1014 l 383 1014 b 911 507 699 1014 911 794 b 388 0 911 218 686 0 l 100 0 m 208 914 l 208 101 l 379 101 b 800 507 625 101 800 276 b 375 914 800 739 636 914 "},"E":{"ha":799,"x_min":0,"x_max":0,"o":"m 100 1014 l 715 1014 l 715 911 l 208 911 l 208 560 l 715 560 l 715 457 l 208 457 l 208 104 l 715 104 l 715 0 l 100 0 "},"F":{"ha":757,"x_min":0,"x_max":0,"o":"m 100 1014 l 674 1014 l 674 911 l 208 911 l 208 560 l 674 560 l 674 457 l 208 457 l 208 0 l 100 0 "},"G":{"ha":1174,"x_min":0,"x_max":0,"o":"m 594 -14 b 69 507 300 -14 69 219 b 600 1028 69 794 292 1028 b 1050 764 796 1028 961 924 l 956 710 b 600 925 888 839 760 925 b 181 507 346 925 181 736 b 594 89 181 278 354 89 b 993 438 833 89 968 240 l 586 438 l 586 540 l 1106 540 l 1106 510 b 594 -14 1106 231 924 -14 "},"H":{"ha":951,"x_min":0,"x_max":0,"o":"m 743 458 l 208 458 l 208 0 l 100 0 l 100 1014 l 208 1014 l 208 563 l 743 563 l 743 1014 l 851 1014 l 851 0 l 743 0 "},"I":{"ha":333,"x_min":0,"x_max":0,"o":"m 113 1014 l 221 1014 l 221 0 l 113 0 "},"J":{"ha":651,"x_min":0,"x_max":0,"o":"m 301 -14 b 46 129 182 -14 90 47 l 143 193 b 299 85 174 132 224 85 b 449 264 390 85 449 150 l 449 1014 l 557 1014 l 557 267 b 301 -14 557 89 457 -14 "},"K":{"ha":897,"x_min":0,"x_max":0,"o":"m 399 535 l 208 311 l 208 0 l 100 0 l 100 1014 l 208 1014 l 208 456 l 688 1014 l 821 1014 l 475 608 l 865 0 l 740 0 "},"L":{"ha":740,"x_min":0,"x_max":0,"o":"m 100 1014 l 208 1014 l 208 104 l 661 104 l 661 0 l 100 0 "},"M":{"ha":1193,"x_min":0,"x_max":0,"o":"m 100 1014 l 207 1014 l 592 482 l 989 1014 l 1093 1014 l 1093 0 l 985 0 l 985 839 l 589 306 l 208 825 l 208 0 l 100 0 "},"N":{"ha":1026,"x_min":0,"x_max":0,"o":"m 100 1014 l 221 1014 l 818 172 l 818 1014 l 926 1014 l 926 0 l 811 0 l 208 849 l 208 0 l 100 0 "},"O":{"ha":1181,"x_min":0,"x_max":0,"o":"m 590 -14 b 69 507 303 -14 69 219 b 590 1028 69 794 303 1028 b 1111 507 878 1028 1111 794 b 590 -14 1111 219 878 -14 m 590 89 b 1000 507 824 89 1000 278 b 590 925 1000 736 824 925 b 181 507 357 925 181 736 b 590 89 181 278 357 89 "},"P":{"ha":858,"x_min":0,"x_max":0,"o":"m 100 1014 l 417 1014 b 786 665 638 1014 786 863 b 417 315 786 468 638 315 l 208 315 l 208 0 l 100 0 m 208 914 l 208 417 l 410 417 b 676 665 576 417 676 525 b 410 914 676 807 576 914 "},"Q":{"ha":1182,"x_min":0,"x_max":0,"o":"m 590 439 l 724 439 l 896 232 b 1001 507 960 306 1001 400 b 590 925 1001 736 824 925 b 181 507 357 925 181 736 b 590 89 181 278 357 89 b 765 129 656 89 713 103 l 832 49 b 590 -14 760 8 678 -14 b 69 507 303 -14 69 219 b 590 1028 69 794 303 1028 b 1111 507 878 1028 1111 794 b 964 150 1111 367 1053 243 l 1089 0 l 951 0 "},"R":{"ha":825,"x_min":0,"x_max":0,"o":"m 100 1014 l 411 1014 b 756 692 610 1014 756 871 b 507 383 756 549 663 418 l 764 0 l 638 0 l 332 464 l 401 464 b 647 692 554 464 647 578 b 403 914 647 819 554 914 l 208 914 l 208 0 l 100 0 "},"S":{"ha":782,"x_min":0,"x_max":0,"o":"m 390 -14 b 32 172 226 -14 114 56 l 124 242 b 390 85 192 136 275 85 b 606 276 517 85 606 165 b 358 483 606 401 485 440 b 75 765 219 531 75 589 b 386 1028 75 913 208 1028 b 700 875 529 1028 626 971 l 614 811 b 385 932 563 892 488 932 b 185 765 271 932 185 860 b 426 568 185 649 301 611 b 715 276 567 519 715 461 b 390 -14 715 126 586 -14 "},"T":{"ha":846,"x_min":0,"x_max":0,"o":"m 369 914 l 64 914 l 64 1014 l 782 1014 l 782 914 l 478 914 l 478 0 l 369 0 "},"U":{"ha":879,"x_min":0,"x_max":0,"o":"m 439 -14 b 94 331 240 -14 94 136 l 94 1014 l 203 1014 l 203 325 b 439 89 203 196 304 89 b 676 325 574 89 676 196 l 676 1014 l 785 1014 l 785 331 b 439 -14 785 136 638 -14 "},"V":{"ha":944,"x_min":0,"x_max":0,"o":"m 47 1014 l 160 1014 l 472 156 l 783 1014 l 897 1014 l 526 0 l 417 0 "},"W":{"ha":1486,"x_min":0,"x_max":0,"o":"m 50 1014 l 165 1014 l 407 168 l 688 1014 l 792 1014 l 1069 167 l 1325 1014 l 1436 1014 l 1124 0 l 1014 0 l 738 844 l 458 0 l 347 0 "},"X":{"ha":910,"x_min":0,"x_max":0,"o":"m 454 436 l 168 0 l 46 0 l 392 521 l 69 1014 l 192 1014 l 457 613 l 721 1014 l 843 1014 l 519 528 l 864 0 l 742 0 "},"Y":{"ha":860,"x_min":0,"x_max":0,"o":"m 376 482 l 40 1014 l 161 1014 l 431 585 l 699 1014 l 819 1014 l 485 483 l 485 0 l 376 0 "},"Z":{"ha":838,"x_min":0,"x_max":0,"o":"m 83 100 l 626 911 l 100 911 l 100 1014 l 754 1014 l 754 915 l 211 104 l 754 104 l 754 0 l 83 0 "},"!":{"ha":333,"x_min":0,"x_max":0,"o":"m 138 275 b 114 851 125 407 114 665 l 114 1014 l 222 1014 l 222 851 b 199 275 222 665 211 407 l 138 275 m 114 190 l 222 190 l 222 0 l 114 0 "},"¡":{"ha":333,"x_min":0,"x_max":0,"o":"m 114 -157 b 138 419 114 29 125 289 l 199 419 b 222 -157 211 289 222 29 l 222 -319 l 114 -319 m 114 694 l 222 694 l 222 504 l 114 504 "},"?":{"ha":760,"x_min":0,"x_max":0,"o":"m 308 276 b 574 772 308 625 574 569 b 381 933 574 867 490 933 b 171 804 272 933 214 879 l 75 849 b 382 1028 125 946 233 1028 b 683 771 554 1028 683 925 b 407 276 683 508 407 578 l 407 264 l 308 264 m 304 190 l 413 190 l 413 0 l 304 0 "},"¿":{"ha":760,"x_min":0,"x_max":0,"o":"m 376 -333 b 75 -76 204 -333 75 -231 b 351 418 75 186 351 117 l 351 431 l 450 431 l 450 418 b 185 -78 450 69 185 125 b 378 -239 185 -172 268 -239 b 588 -110 486 -239 544 -185 l 683 -154 b 376 -333 633 -251 525 -333 m 346 694 l 454 694 l 454 504 l 346 504 "},".":{"ha":281,"x_min":0,"x_max":0,"o":"m 86 190 l 194 190 l 194 0 l 86 0 "},"…":{"ha":690,"x_min":0,"x_max":0,"o":"m 86 190 l 194 190 l 194 0 l 86 0 m 290 190 l 400 190 l 400 0 l 290 0 m 496 190 l 604 190 l 604 0 l 496 0 "},",":{"ha":281,"x_min":0,"x_max":0,"o":"m 97 121 l 213 121 l 126 -162 l 40 -162 "},":":{"ha":279,"x_min":0,"x_max":0,"o":"m 86 190 l 193 190 l 193 0 l 86 0 m 86 694 l 193 694 l 193 504 l 86 504 "},";":{"ha":281,"x_min":0,"x_max":0,"o":"m 86 694 l 193 694 l 193 504 l 86 504 m 97 121 l 213 121 l 126 -162 l 40 -162 "},"_":{"ha":796,"x_min":0,"x_max":0,"o":"m 72 -14 l 725 -14 l 725 -107 l 72 -107 "},"'":{"ha":257,"x_min":0,"x_max":0,"o":"m 113 694 b 82 897 104 729 82 832 l 82 1014 l 176 1014 l 176 897 b 146 694 176 835 154 729 "},"\"":{"ha":419,"x_min":0,"x_max":0,"o":"m 113 694 b 82 897 104 729 82 832 l 82 1014 l 176 1014 l 176 897 b 146 694 176 835 154 729 l 113 694 m 275 694 b 244 897 267 729 244 832 l 244 1014 l 339 1014 l 339 897 b 308 694 339 835 317 729 l 275 694 "},"‘":{"ha":278,"x_min":0,"x_max":0,"o":"m 217 731 l 144 731 l 54 1014 l 158 1014 "},"’":{"ha":278,"x_min":0,"x_max":0,"o":"m 58 731 l 117 1014 l 221 1014 l 131 731 "},"‚":{"ha":279,"x_min":0,"x_max":0,"o":"m 43 -162 l 101 121 l 206 121 l 115 -162 "},"“":{"ha":443,"x_min":0,"x_max":0,"o":"m 217 731 l 147 731 l 60 1014 l 158 1014 m 382 731 l 313 731 l 226 1014 l 325 1014 "},"”":{"ha":443,"x_min":0,"x_max":0,"o":"m 58 731 l 117 1014 l 221 1014 l 131 731 m 225 731 l 283 1014 l 388 1014 l 297 731 "},"„":{"ha":444,"x_min":0,"x_max":0,"o":"m 47 -162 l 106 121 l 210 121 l 119 -162 m 214 -162 l 272 121 l 376 121 l 286 -162 "},"":{"ha":644,"x_min":0,"x_max":0,"o":"m 90 476 l 90 540 l 315 701 l 315 622 l 157 507 l 315 393 l 315 315 m 329 476 l 329 540 l 554 701 l 554 622 l 396 507 l 554 393 l 554 315 "},"":{"ha":644,"x_min":0,"x_max":0,"o":"m 329 393 l 489 507 l 329 622 l 329 701 l 554 540 l 554 476 l 329 315 m 90 393 l 250 507 l 90 622 l 90 701 l 315 540 l 315 476 l 90 315 "},"":{"ha":406,"x_min":0,"x_max":0,"o":"m 96 474 l 96 543 l 311 708 l 311 622 l 160 508 l 311 394 l 311 308 "},"":{"ha":406,"x_min":0,"x_max":0,"o":"m 96 393 l 246 507 l 96 622 l 96 708 l 311 543 l 311 474 l 96 308 "},"&":{"ha":1054,"x_min":0,"x_max":0,"o":"m 757 97 b 457 -15 674 29 572 -15 b 63 314 174 -15 63 163 b 250 618 63 450 139 557 b 190 792 211 671 190 725 b 451 1028 190 919 289 1028 b 700 896 575 1028 656 965 l 611 838 b 451 933 581 886 532 933 b 301 792 360 933 301 868 b 469 535 301 707 349 657 l 765 238 b 882 501 829 315 869 411 l 718 501 l 718 603 l 988 603 l 988 557 b 832 171 988 432 931 285 l 1003 0 l 856 0 m 457 81 b 690 164 546 81 625 113 l 382 472 b 313 543 357 497 333 521 b 171 315 222 492 171 418 b 457 81 171 206 260 81 "},"@":{"ha":1174,"x_min":0,"x_max":0,"o":"m 586 -174 b 68 347 299 -174 68 58 b 596 868 68 635 308 868 b 1106 400 899 868 1106 643 b 888 111 1106 240 1033 111 b 732 190 810 111 758 144 b 549 107 696 142 632 107 b 331 360 431 107 314 199 b 581 607 350 528 471 607 b 735 540 650 607 704 581 b 740 599 740 592 740 599 l 846 599 l 818 347 b 896 213 807 249 833 213 b 1007 397 968 213 1007 286 b 594 771 1007 590 844 771 b 174 347 361 771 174 581 b 586 -76 174 114 353 -76 b 888 49 708 -76 811 -29 l 963 -15 b 586 -174 878 -103 739 -174 m 569 203 b 717 360 656 203 710 276 b 600 514 726 442 683 514 b 442 361 521 514 450 456 b 569 203 429 275 486 203 "},"§":{"ha":839,"x_min":0,"x_max":0,"o":"m 417 -14 b 90 203 215 -14 106 94 l 199 229 b 419 74 207 144 282 74 b 601 190 510 74 601 107 b 360 313 601 265 507 278 b 74 515 164 360 74 410 b 211 685 74 593 129 661 b 131 821 160 717 131 758 b 408 1028 131 949 243 1029 b 710 824 597 1028 694 928 l 607 800 b 407 943 594 885 539 943 b 232 825 315 943 232 908 b 474 699 232 750 326 733 b 760 496 669 651 760 601 b 624 325 760 424 704 351 b 703 194 674 296 703 256 b 417 -14 703 67 582 -15 m 415 394 b 532 365 458 385 497 375 b 657 488 618 386 657 435 b 418 617 657 550 561 585 b 306 646 376 625 339 635 b 176 529 225 639 176 586 b 415 394 176 456 272 426 "},"¶":{"ha":838,"x_min":0,"x_max":0,"o":"m 479 419 l 353 419 b 51 717 181 419 51 550 b 351 1014 51 882 181 1014 l 753 1014 l 753 0 l 657 0 l 657 915 l 574 915 l 574 0 l 479 0 "},"":{"ha":465,"x_min":0,"x_max":0,"o":"m 233 403 b 132 504 178 403 132 449 b 233 606 132 560 178 606 b 335 504 289 606 335 560 b 233 403 335 449 289 403 "},"©":{"ha":1176,"x_min":0,"x_max":0,"o":"m 589 -14 b 68 507 301 -14 68 219 b 589 1028 68 794 301 1028 b 1110 507 876 1028 1110 794 b 589 -14 1110 219 876 -14 m 589 82 b 1006 507 826 82 1006 274 b 589 932 1006 740 826 932 b 172 507 351 932 172 740 b 589 82 172 274 351 82 m 594 231 b 317 507 436 231 317 354 b 594 783 317 660 438 783 b 836 644 700 783 792 725 l 744 589 b 593 683 719 642 663 683 b 418 507 497 683 418 604 b 593 331 418 408 497 331 b 747 431 665 331 724 374 l 840 379 b 594 231 796 293 703 231 "},"®":{"ha":558,"x_min":0,"x_max":0,"o":"m 279 597 b 68 808 163 597 68 692 b 279 1021 68 926 163 1021 b 492 808 397 1021 492 926 b 279 597 492 692 397 597 m 279 656 b 428 808 365 656 428 724 b 279 963 428 893 365 963 b 131 808 194 963 131 893 b 279 656 131 724 194 656 m 199 919 l 296 919 b 375 846 351 919 375 888 b 329 782 375 817 358 793 l 374 708 l 308 708 l 254 806 l 254 708 l 199 708 m 254 869 l 254 817 l 285 817 b 318 843 308 817 318 826 b 285 869 318 858 308 869 "},"℗":{"ha":1176,"x_min":0,"x_max":0,"o":"m 589 -174 b 68 347 301 -174 68 60 b 589 868 68 635 301 868 b 1110 347 876 868 1110 635 b 589 -174 1110 60 876 -174 m 589 -78 b 1006 347 826 -78 1006 114 b 589 772 1006 581 826 772 b 172 347 351 772 172 581 b 589 -78 172 114 351 -78 m 406 618 l 636 618 b 831 429 750 618 831 535 b 639 229 831 322 761 229 l 507 229 l 507 83 l 406 83 m 507 531 l 507 321 l 624 321 b 729 429 688 321 729 371 b 624 531 729 488 685 531 "},"™":{"ha":949,"x_min":0,"x_max":0,"o":"m 431 1014 l 504 1014 l 651 818 l 806 1014 l 874 1014 l 874 611 l 794 611 l 794 883 l 651 707 l 508 885 l 508 611 l 431 611 m 185 942 l 57 942 l 57 1014 l 389 1014 l 389 942 l 263 942 l 263 611 l 185 611 "},"*":{"ha":606,"x_min":0,"x_max":0,"o":"m 326 728 l 351 522 l 254 522 l 278 728 l 113 604 l 65 689 l 254 769 l 65 853 l 114 935 l 278 811 l 254 1014 l 351 1014 l 326 811 l 490 933 l 539 850 l 350 769 l 539 689 l 489 606 "},"†":{"ha":800,"x_min":0,"x_max":0,"o":"m 86 694 l 344 694 l 344 1014 l 453 1014 l 453 694 l 715 694 l 715 599 l 453 599 l 453 0 l 344 0 l 344 599 l 86 599 "},"‡":{"ha":800,"x_min":0,"x_max":0,"o":"m 86 733 l 344 733 l 344 1014 l 453 1014 l 453 733 l 715 733 l 715 639 l 453 639 l 453 386 l 715 386 l 715 292 l 453 292 l 453 0 l 344 0 l 344 292 l 86 292 l 86 386 l 344 386 l 344 639 l 86 639 "},"^":{"ha":692,"x_min":0,"x_max":0,"o":"m 301 972 l 389 972 l 560 739 l 449 739 l 346 883 l 244 739 l 133 739 "},"~":{"ha":657,"x_min":0,"x_max":0,"o":"m 94 778 b 231 940 97 875 149 940 b 338 904 276 940 308 922 b 419 868 365 888 390 868 b 471 933 450 868 468 889 l 556 933 b 421 771 554 835 507 771 b 299 815 367 771 331 796 b 231 842 276 829 256 842 b 182 778 200 842 185 822 l 94 778 "},"ª":{"ha":569,"x_min":0,"x_max":0,"o":"m 272 604 b 74 813 178 604 74 681 b 274 1022 74 947 179 1022 b 414 965 332 1022 381 1000 l 414 1014 l 494 1014 l 494 613 l 414 613 l 414 663 b 272 604 381 626 331 604 m 288 679 b 417 814 363 679 417 740 b 288 947 417 888 363 947 b 154 814 213 947 154 890 b 288 679 154 739 213 679 "},"º":{"ha":564,"x_min":0,"x_max":0,"o":"m 282 604 b 74 813 167 604 74 697 b 282 1022 74 929 167 1022 b 490 813 399 1022 490 929 b 282 604 490 697 399 604 m 282 683 b 410 813 354 683 410 742 b 282 944 410 885 354 944 b 154 813 211 944 154 885 b 282 683 154 742 211 683 "},"":{"ha":279,"x_min":0,"x_max":0,"o":"m 86 1167 l 194 1167 l 194 -167 l 86 -167 "},"":{"ha":336,"x_min":0,"x_max":0,"o":"m 86 1167 l 194 1167 l 194 583 l 86 583 m 86 417 l 194 417 l 194 -167 l 86 -167 "},"":{"ha":599,"x_min":0,"x_max":0,"o":"m 453 -186 b 68 504 242 -39 68 174 b 450 1196 68 836 243 1043 l 525 1111 b 183 506 326 972 183 789 b 526 -101 183 221 325 36 l 453 -186 "},"":{"ha":599,"x_min":0,"x_max":0,"o":"m 72 -101 b 415 504 274 36 415 221 b 74 1111 415 789 272 972 l 149 1196 b 531 504 356 1043 531 836 b 146 -186 531 174 357 -39 "},"":{"ha":522,"x_min":0,"x_max":0,"o":"m 72 1167 l 451 1167 l 451 1064 l 181 1064 l 181 -64 l 451 -64 l 451 -167 l 72 -167 "},"":{"ha":522,"x_min":0,"x_max":0,"o":"m 72 -65 l 343 -65 l 343 1064 l 72 1064 l 72 1167 l 451 1167 l 451 -167 l 72 -167 "},"":{"ha":560,"x_min":0,"x_max":0,"o":"m 488 -167 b 182 135 256 -167 182 -92 l 182 301 b 51 447 182 410 168 447 l 51 549 b 182 694 168 549 182 586 l 182 865 b 488 1167 182 1092 256 1167 l 503 1167 l 503 1068 b 289 864 325 1068 289 1026 l 289 693 b 196 497 289 589 265 526 b 289 303 267 468 289 406 l 289 136 b 503 -68 289 -26 325 -68 l 503 -167 "},"":{"ha":560,"x_min":0,"x_max":0,"o":"m 58 -67 b 272 136 235 -67 272 -26 l 272 303 b 365 497 272 406 293 468 b 272 693 294 526 272 589 l 272 864 b 58 1067 272 1026 235 1067 l 58 1167 l 74 1167 b 379 865 306 1167 379 1092 l 379 694 b 510 549 379 586 393 549 l 510 447 b 379 301 393 447 379 410 l 379 135 b 74 -167 379 -92 306 -167 l 58 -167 "},"#":{"ha":1157,"x_min":0,"x_max":0,"o":"m 722 261 l 436 261 l 436 0 l 328 0 l 328 261 l 63 261 l 63 365 l 328 365 l 328 657 l 63 657 l 63 761 l 328 761 l 328 1014 l 436 1014 l 436 761 l 722 761 l 722 1014 l 831 1014 l 831 761 l 1094 761 l 1094 657 l 831 657 l 831 365 l 1094 365 l 1094 261 l 831 261 l 831 0 l 722 0 m 436 365 l 722 365 l 722 657 l 436 657 "},"%":{"ha":1189,"x_min":0,"x_max":0,"o":"m 185 793 b 326 647 185 711 249 647 b 467 793 404 647 467 711 b 326 938 467 875 404 938 b 185 793 249 938 185 875 m 644 221 b 879 456 644 351 749 456 b 1115 221 1010 456 1115 351 b 879 -15 1115 90 1010 -15 b 644 221 749 -15 644 90 m 969 1014 l 1107 1014 l 236 0 l 99 0 m 739 221 b 879 75 739 139 801 75 b 1021 221 957 75 1021 139 b 879 365 1021 303 957 365 b 739 221 801 365 739 303 m 90 793 b 326 1028 90 924 196 1028 b 561 793 456 1028 561 924 b 326 557 561 663 456 557 b 90 793 196 557 90 663 "},"‰":{"ha":1751,"x_min":0,"x_max":0,"o":"m 969 1014 l 1107 1014 l 236 0 l 99 0 m 879 -15 b 644 221 749 -15 644 90 b 879 456 644 351 749 456 b 1115 221 1010 456 1115 351 b 879 -15 1115 90 1010 -15 m 879 75 b 1021 221 957 75 1021 139 b 879 365 1021 303 957 365 b 739 221 801 365 739 303 b 879 75 739 139 801 75 m 326 557 b 90 793 196 557 90 663 b 326 1028 90 924 196 1028 b 561 793 456 1028 561 924 b 326 557 561 663 456 557 m 326 647 b 467 793 404 647 467 711 b 326 938 467 875 404 938 b 185 793 249 938 185 875 b 326 647 185 711 249 647 m 1425 -15 b 1190 221 1294 -15 1190 90 b 1425 456 1190 351 1294 456 b 1661 221 1556 456 1661 351 b 1425 -15 1661 90 1556 -15 m 1425 75 b 1567 221 1503 75 1567 139 b 1425 365 1567 303 1503 365 b 1285 221 1347 365 1285 303 b 1425 75 1285 139 1347 75 "},"<":{"ha":657,"x_min":0,"x_max":0,"o":"m 72 463 l 72 554 l 586 749 l 586 651 l 185 508 l 586 361 l 586 264 "},">":{"ha":657,"x_min":0,"x_max":0,"o":"m 72 361 l 474 508 l 72 651 l 72 749 l 586 554 l 586 463 l 72 264 "},"+":{"ha":657,"x_min":0,"x_max":0,"o":"m 72 553 l 283 553 l 283 763 l 375 763 l 375 553 l 586 553 l 586 461 l 375 461 l 375 249 l 283 249 l 283 461 l 72 461 "},"−":{"ha":657,"x_min":0,"x_max":0,"o":"m 72 554 l 586 554 l 586 461 l 72 461 "},"=":{"ha":657,"x_min":0,"x_max":0,"o":"m 72 664 l 586 664 l 586 571 l 72 571 m 72 438 l 586 438 l 586 346 l 72 346 "},"×":{"ha":657,"x_min":0,"x_max":0,"o":"m 96 336 l 265 506 l 96 676 l 160 740 l 329 569 l 499 739 l 563 675 l 393 506 l 563 338 l 499 274 l 329 442 l 160 272 "},"÷":{"ha":657,"x_min":0,"x_max":0,"o":"m 72 553 l 586 553 l 586 461 l 72 461 m 283 790 l 375 790 l 375 624 l 283 624 m 283 389 l 375 389 l 375 222 l 283 222 "},"±":{"ha":657,"x_min":0,"x_max":0,"o":"m 72 693 l 283 693 l 283 903 l 375 903 l 375 693 l 586 693 l 586 600 l 375 600 l 375 389 l 283 389 l 283 600 l 72 600 m 72 269 l 586 269 l 586 176 l 72 176 "},"≠":{"ha":657,"x_min":0,"x_max":0,"o":"m 449 664 l 586 664 l 586 571 l 403 571 l 338 438 l 586 438 l 586 346 l 293 346 l 250 256 l 151 256 l 194 346 l 72 346 l 72 438 l 239 438 l 304 571 l 72 571 l 72 664 l 350 664 l 396 758 l 494 758 "},"≤":{"ha":657,"x_min":0,"x_max":0,"o":"m 71 572 l 71 665 l 585 858 l 585 763 l 185 618 l 585 471 l 585 375 m 71 314 l 585 314 l 585 221 l 71 221 "},"≥":{"ha":657,"x_min":0,"x_max":0,"o":"m 71 471 l 471 618 l 71 763 l 71 858 l 585 665 l 585 572 l 71 375 m 71 314 l 585 314 l 585 221 l 71 221 "},"°":{"ha":599,"x_min":0,"x_max":0,"o":"m 300 671 b 121 850 201 671 121 751 b 300 1028 121 949 201 1028 b 478 850 399 1028 478 949 b 300 671 478 751 399 671 m 300 761 b 388 849 347 761 388 801 b 300 936 388 896 347 936 b 213 849 253 936 213 896 b 300 761 213 801 253 761 "},"⁄":{"ha":931,"x_min":0,"x_max":0,"o":"m 769 1014 l 896 1014 l 164 0 l 38 0 "},"´":{"ha":692,"x_min":0,"x_max":0,"o":"m 346 1000 l 485 1000 l 283 775 l 183 775 "},"`":{"ha":692,"x_min":0,"x_max":0,"o":"m 183 1000 l 321 1000 l 485 775 l 385 775 "},"ˆ":{"ha":692,"x_min":0,"x_max":0,"o":"m 300 1000 l 392 1000 l 557 775 l 446 775 l 346 914 l 247 775 l 135 775 "},"¨":{"ha":700,"x_min":0,"x_max":0,"o":"m 383 978 l 490 978 l 490 785 l 383 785 m 197 978 l 304 978 l 304 785 l 197 785 "},"˜":{"ha":692,"x_min":0,"x_max":0,"o":"m 104 775 b 242 942 104 876 161 942 b 354 904 288 942 321 924 b 442 865 385 885 413 865 b 496 938 475 865 496 889 l 582 938 b 443 769 582 835 533 769 b 317 815 390 769 351 794 b 242 846 290 831 271 846 b 190 775 210 846 190 824 l 104 775 "},"ˇ":{"ha":692,"x_min":0,"x_max":0,"o":"m 135 1000 l 246 1000 l 344 861 l 444 1000 l 556 1000 l 390 775 l 300 775 "},"˚":{"ha":692,"x_min":0,"x_max":0,"o":"m 342 769 b 194 918 261 769 194 836 b 342 1068 194 1003 261 1068 b 493 918 426 1068 493 1003 b 342 769 493 836 426 769 m 342 853 b 410 918 379 853 410 882 b 342 986 410 954 379 986 b 276 918 307 986 276 954 b 342 853 276 882 307 853 "},"˘":{"ha":692,"x_min":0,"x_max":0,"o":"m 344 767 b 121 993 192 767 121 869 l 213 993 b 344 847 213 906 258 849 b 475 993 428 849 475 906 l 569 993 b 344 767 569 869 483 767 "},"¯":{"ha":692,"x_min":0,"x_max":0,"o":"m 164 868 l 531 868 l 531 775 l 164 775 "},"˙":{"ha":700,"x_min":0,"x_max":0,"o":"m 283 978 l 390 978 l 390 785 l 283 785 "},"˝":{"ha":692,"x_min":0,"x_max":0,"o":"m 261 1000 l 392 1000 l 190 775 l 99 775 m 460 1000 l 590 1000 l 389 775 l 296 775 "},"¸":{"ha":692,"x_min":0,"x_max":0,"o":"m 335 -325 b 132 -247 247 -325 182 -294 l 217 -196 b 335 -246 251 -224 281 -246 b 429 -189 388 -246 429 -221 b 331 -139 429 -157 394 -139 l 274 -139 l 274 0 l 364 0 l 364 -72 b 529 -185 463 -72 529 -119 b 335 -325 529 -267 440 -325 "},"˛":{"ha":692,"x_min":0,"x_max":0,"o":"m 338 -301 b 150 -161 226 -301 150 -239 b 346 44 150 -92 196 -28 l 432 -1 b 258 -156 292 -86 258 -115 b 338 -212 258 -193 293 -212 b 440 -165 383 -212 411 -190 l 525 -224 b 338 -301 478 -265 406 -301 "},"":{"ha":700,"x_min":0,"x_max":0,"o":"m 260 -346 l 317 -62 l 415 -62 l 333 -346 "},"Á":{"ha":979,"x_min":0,"x_max":0,"o":"m 431 1014 l 547 1014 l 932 0 l 819 0 l 721 257 l 258 257 l 161 0 l 47 0 m 297 360 l 682 360 l 489 868 m 589 1319 l 728 1319 l 526 1094 l 426 1094 "},"À":{"ha":979,"x_min":0,"x_max":0,"o":"m 431 1014 l 547 1014 l 932 0 l 819 0 l 721 257 l 258 257 l 161 0 l 47 0 m 297 360 l 682 360 l 489 868 m 232 1319 l 369 1319 l 533 1094 l 433 1094 "},"Â":{"ha":979,"x_min":0,"x_max":0,"o":"m 431 1014 l 547 1014 l 932 0 l 819 0 l 721 257 l 258 257 l 161 0 l 47 0 m 297 360 l 682 360 l 489 868 m 433 1319 l 525 1319 l 690 1094 l 579 1094 l 479 1233 l 381 1094 l 268 1094 "},"Ä":{"ha":979,"x_min":0,"x_max":0,"o":"m 431 1014 l 547 1014 l 932 0 l 819 0 l 721 257 l 258 257 l 161 0 l 47 0 m 297 360 l 682 360 l 489 868 m 525 1297 l 632 1297 l 632 1104 l 525 1104 m 339 1297 l 446 1297 l 446 1104 l 339 1104 "},"Ã":{"ha":979,"x_min":0,"x_max":0,"o":"m 431 1014 l 547 1014 l 932 0 l 819 0 l 721 257 l 258 257 l 161 0 l 47 0 m 297 360 l 682 360 l 489 868 m 240 1094 b 378 1261 240 1196 297 1261 b 490 1224 424 1261 457 1243 b 578 1185 521 1204 549 1185 b 632 1257 611 1185 632 1208 l 718 1257 b 579 1089 718 1154 669 1089 b 453 1135 526 1089 488 1114 b 378 1165 426 1150 407 1165 b 326 1094 346 1165 326 1143 l 240 1094 "},"Å":{"ha":979,"x_min":0,"x_max":0,"o":"m 410 958 b 333 1089 364 985 333 1033 b 481 1239 333 1174 400 1239 b 632 1089 565 1239 632 1174 b 565 965 632 1038 606 992 l 932 0 l 819 0 l 721 257 l 258 257 l 161 0 l 47 0 m 297 360 l 682 360 l 489 868 m 481 1024 b 549 1089 518 1024 549 1053 b 481 1157 549 1125 518 1157 b 415 1089 446 1157 415 1125 b 481 1024 415 1053 446 1024 "},"Ā":{"ha":979,"x_min":0,"x_max":0,"o":"m 431 1014 l 547 1014 l 932 0 l 819 0 l 721 257 l 258 257 l 161 0 l 47 0 m 297 360 l 682 360 l 489 868 m 300 1188 l 667 1188 l 667 1094 l 300 1094 "},"Ă":{"ha":979,"x_min":0,"x_max":0,"o":"m 431 1014 l 547 1014 l 932 0 l 819 0 l 721 257 l 258 257 l 161 0 l 47 0 m 297 360 l 682 360 l 489 868 m 481 1089 b 257 1315 328 1089 257 1192 l 349 1315 b 481 1169 349 1228 394 1171 b 611 1315 564 1171 611 1228 l 706 1315 b 481 1089 706 1192 619 1089 "},"Ą":{"ha":979,"x_min":0,"x_max":0,"o":"m 838 -300 b 650 -160 726 -300 650 -237 b 808 26 650 -96 688 -37 l 721 257 l 258 257 l 161 0 l 47 0 l 431 1014 l 547 1014 l 932 0 b 758 -154 792 -85 758 -114 b 838 -211 758 -192 793 -211 b 940 -164 883 -211 911 -189 l 1025 -222 b 838 -300 978 -264 906 -300 m 297 360 l 682 360 l 489 868 "},"Ǻ":{"ha":979,"x_min":0,"x_max":0,"o":"m 410 960 b 333 1090 364 985 333 1033 b 481 1240 333 1175 400 1240 b 632 1090 565 1240 632 1175 b 565 967 632 1039 606 993 l 932 0 l 819 0 l 721 257 l 258 257 l 161 0 l 47 0 m 297 360 l 682 360 l 489 868 m 588 1504 l 726 1504 l 525 1279 l 425 1279 m 481 1025 b 549 1090 518 1025 549 1054 b 481 1158 549 1126 518 1158 b 415 1090 446 1158 415 1126 b 481 1025 415 1054 446 1025 "},"Æ":{"ha":1425,"x_min":0,"x_max":0,"o":"m 519 1014 l 1319 1014 l 1319 911 l 661 911 l 743 560 l 1319 560 l 1319 457 l 767 457 l 849 104 l 1319 104 l 1319 0 l 763 0 l 704 251 l 281 251 l 161 0 l 39 0 m 328 351 l 681 351 l 565 851 "},"Ǽ":{"ha":1529,"x_min":0,"x_max":0,"o":"m 581 1014 l 1381 1014 l 1381 911 l 722 911 l 804 560 l 1381 560 l 1381 457 l 828 457 l 910 104 l 1381 104 l 1381 0 l 824 0 l 765 251 l 342 251 l 222 0 l 100 0 m 389 351 l 742 351 l 626 851 m 953 1319 l 1092 1319 l 890 1094 l 790 1094 "},"Ć":{"ha":1093,"x_min":0,"x_max":0,"o":"m 692 1319 l 831 1319 l 629 1094 l 529 1094 m 590 -14 b 69 507 303 -14 69 219 b 590 1028 69 794 303 1028 b 1042 767 783 1028 951 922 l 949 713 b 590 925 879 839 747 925 b 181 507 357 925 181 736 b 590 89 181 278 357 89 b 960 317 767 89 893 182 l 1056 267 b 590 -14 968 100 801 -14 "},"Ĉ":{"ha":1093,"x_min":0,"x_max":0,"o":"m 590 -14 b 69 507 303 -14 69 219 b 590 1028 69 794 303 1028 b 1042 767 783 1028 951 922 l 949 713 b 590 925 879 839 747 925 b 181 507 357 925 181 736 b 590 89 181 278 357 89 b 960 317 767 89 893 182 l 1056 267 b 590 -14 968 100 801 -14 m 543 1319 l 635 1319 l 800 1094 l 689 1094 l 589 1233 l 490 1094 l 378 1094 "},"Č":{"ha":1093,"x_min":0,"x_max":0,"o":"m 590 -14 b 69 507 303 -14 69 219 b 590 1028 69 794 303 1028 b 1042 767 783 1028 951 922 l 949 713 b 590 925 879 839 747 925 b 181 507 357 925 181 736 b 590 89 181 278 357 89 b 960 317 767 89 893 182 l 1056 267 b 590 -14 968 100 801 -14 m 372 1319 l 483 1319 l 582 1181 l 682 1319 l 793 1319 l 628 1094 l 538 1094 "},"Ç":{"ha":1093,"x_min":0,"x_max":0,"o":"m 589 -325 b 386 -247 501 -325 436 -294 l 471 -196 b 589 -246 506 -224 535 -246 b 683 -189 642 -246 683 -221 b 585 -139 683 -157 649 -139 l 528 -139 l 528 -10 b 69 507 269 21 69 240 b 590 1028 69 794 303 1028 b 1042 767 783 1028 951 922 l 949 713 b 590 925 879 839 747 925 b 181 507 357 925 181 736 b 590 89 181 278 357 89 b 960 317 767 89 893 182 l 1056 267 b 618 -12 972 107 815 -3 l 618 -72 b 783 -185 717 -72 783 -119 b 589 -325 783 -267 694 -325 "},"Ċ":{"ha":1093,"x_min":0,"x_max":0,"o":"m 590 -14 b 69 507 303 -14 69 219 b 590 1028 69 794 303 1028 b 1042 767 783 1028 951 922 l 949 713 b 590 925 879 839 747 925 b 181 507 357 925 181 736 b 590 89 181 278 357 89 b 960 317 767 89 893 182 l 1056 267 b 590 -14 968 100 801 -14 m 547 1297 l 654 1297 l 654 1104 l 547 1104 "},"Ď":{"ha":981,"x_min":0,"x_max":0,"o":"m 100 1014 l 383 1014 b 911 507 699 1014 911 794 b 388 0 911 218 686 0 l 100 0 m 208 914 l 208 101 l 379 101 b 800 507 625 101 800 276 b 375 914 800 739 636 914 m 200 1319 l 311 1319 l 410 1181 l 510 1319 l 621 1319 l 456 1094 l 365 1094 "},"Ð":{"ha":1017,"x_min":0,"x_max":0,"o":"m 32 561 l 139 561 l 139 1014 l 419 1014 b 947 507 735 1014 947 794 b 424 0 947 218 722 0 l 139 0 l 139 456 l 32 456 m 247 914 l 247 561 l 544 561 l 544 456 l 247 456 l 247 101 l 413 101 b 839 507 658 101 839 276 b 408 914 839 739 669 914 "},"Đ":{"ha":1017,"x_min":0,"x_max":0,"o":"m 32 561 l 139 561 l 139 1014 l 419 1014 b 947 507 735 1014 947 794 b 424 0 947 218 722 0 l 139 0 l 139 456 l 32 456 m 247 914 l 247 561 l 544 561 l 544 456 l 247 456 l 247 101 l 413 101 b 839 507 658 101 839 276 b 408 914 839 739 669 914 "},"É":{"ha":799,"x_min":0,"x_max":0,"o":"m 100 1014 l 715 1014 l 715 911 l 208 911 l 208 560 l 715 560 l 715 457 l 208 457 l 208 104 l 715 104 l 715 0 l 100 0 m 490 1319 l 629 1319 l 428 1094 l 328 1094 "},"È":{"ha":799,"x_min":0,"x_max":0,"o":"m 100 1014 l 715 1014 l 715 911 l 208 911 l 208 560 l 715 560 l 715 457 l 208 457 l 208 104 l 715 104 l 715 0 l 100 0 m 164 1319 l 301 1319 l 465 1094 l 365 1094 "},"Ê":{"ha":799,"x_min":0,"x_max":0,"o":"m 100 1014 l 715 1014 l 715 911 l 208 911 l 208 560 l 715 560 l 715 457 l 208 457 l 208 104 l 715 104 l 715 0 l 100 0 m 353 1319 l 444 1319 l 610 1094 l 499 1094 l 399 1233 l 300 1094 l 188 1094 "},"Ë":{"ha":799,"x_min":0,"x_max":0,"o":"m 100 1014 l 715 1014 l 715 911 l 208 911 l 208 560 l 715 560 l 715 457 l 208 457 l 208 104 l 715 104 l 715 0 l 100 0 m 260 1297 l 367 1297 l 367 1104 l 260 1104 m 446 1297 l 553 1297 l 553 1104 l 446 1104 "},"Ě":{"ha":800,"x_min":0,"x_max":0,"o":"m 100 1014 l 715 1014 l 715 911 l 208 911 l 208 560 l 715 560 l 715 457 l 208 457 l 208 104 l 715 104 l 715 0 l 100 0 m 188 1319 l 299 1319 l 397 1181 l 497 1319 l 608 1319 l 443 1094 l 353 1094 "},"Ē":{"ha":799,"x_min":0,"x_max":0,"o":"m 100 1014 l 715 1014 l 715 911 l 208 911 l 208 560 l 715 560 l 715 457 l 208 457 l 208 104 l 715 104 l 715 0 l 100 0 m 217 1188 l 583 1188 l 583 1094 l 217 1094 "},"Ĕ":{"ha":799,"x_min":0,"x_max":0,"o":"m 100 1014 l 715 1014 l 715 911 l 208 911 l 208 560 l 715 560 l 715 457 l 208 457 l 208 104 l 715 104 l 715 0 l 100 0 m 404 1089 b 181 1315 251 1089 181 1192 l 272 1315 b 404 1169 272 1228 318 1171 b 535 1315 488 1171 535 1228 l 629 1315 b 404 1089 629 1192 543 1089 "},"Ę":{"ha":799,"x_min":0,"x_max":0,"o":"m 100 1014 l 715 1014 l 715 911 l 208 911 l 208 560 l 715 560 l 715 457 l 208 457 l 208 104 l 715 104 l 715 0 b 542 -154 575 -85 542 -114 b 621 -211 542 -192 576 -211 b 724 -164 667 -211 694 -189 l 808 -222 b 621 -300 761 -264 689 -300 b 433 -160 510 -300 433 -237 b 546 0 433 -106 461 -54 l 100 0 "},"Ė":{"ha":799,"x_min":0,"x_max":0,"o":"m 100 1014 l 715 1014 l 715 911 l 208 911 l 208 560 l 715 560 l 715 457 l 208 457 l 208 104 l 715 104 l 715 0 l 100 0 m 367 1297 l 474 1297 l 474 1104 l 367 1104 "},"Ĝ":{"ha":1174,"x_min":0,"x_max":0,"o":"m 594 -14 b 69 507 300 -14 69 219 b 600 1028 69 794 292 1028 b 1050 764 796 1028 961 924 l 956 710 b 600 925 888 839 760 925 b 181 507 346 925 181 736 b 594 89 181 278 354 89 b 993 438 833 89 968 240 l 586 438 l 586 540 l 1106 540 l 1106 510 b 594 -14 1106 231 924 -14 m 539 1319 l 631 1319 l 796 1094 l 685 1094 l 585 1233 l 486 1094 l 374 1094 "},"Ğ":{"ha":1174,"x_min":0,"x_max":0,"o":"m 594 -14 b 69 507 300 -14 69 219 b 600 1028 69 794 292 1028 b 1050 764 796 1028 961 924 l 956 710 b 600 925 888 839 760 925 b 181 507 346 925 181 736 b 594 89 181 278 354 89 b 993 438 833 89 968 240 l 586 438 l 586 540 l 1106 540 l 1106 510 b 594 -14 1106 231 924 -14 m 583 1089 b 360 1315 431 1089 360 1192 l 451 1315 b 583 1169 451 1228 497 1171 b 714 1315 667 1171 714 1228 l 808 1315 b 583 1089 808 1192 722 1089 "},"Ġ":{"ha":1174,"x_min":0,"x_max":0,"o":"m 594 -14 b 69 507 300 -14 69 219 b 600 1028 69 794 292 1028 b 1050 764 796 1028 961 924 l 956 710 b 600 925 888 839 760 925 b 181 507 346 925 181 736 b 594 89 181 278 354 89 b 993 438 833 89 968 240 l 586 438 l 586 540 l 1106 540 l 1106 510 b 594 -14 1106 231 924 -14 m 536 1297 l 643 1297 l 643 1104 l 536 1104 "},"Ģ":{"ha":1174,"x_min":0,"x_max":0,"o":"m 594 -14 b 69 507 300 -14 69 219 b 600 1028 69 794 292 1028 b 1050 764 796 1028 961 924 l 956 710 b 600 925 888 839 760 925 b 181 507 346 925 181 736 b 594 89 181 278 354 89 b 993 438 833 89 968 240 l 586 438 l 586 540 l 1106 540 l 1106 510 b 594 -14 1106 231 924 -14 m 494 -367 l 551 -83 l 650 -83 l 568 -367 "},"Ĥ":{"ha":951,"x_min":0,"x_max":0,"o":"m 743 458 l 208 458 l 208 0 l 100 0 l 100 1014 l 208 1014 l 208 563 l 743 563 l 743 1014 l 851 1014 l 851 0 l 743 0 m 428 1319 l 519 1319 l 685 1094 l 574 1094 l 474 1233 l 375 1094 l 263 1094 "},"Ħ":{"ha":1007,"x_min":0,"x_max":0,"o":"m 31 829 l 125 829 l 125 1014 l 233 1014 l 233 829 l 768 829 l 768 1014 l 876 1014 l 876 829 l 965 829 l 965 746 l 876 746 l 876 0 l 768 0 l 768 458 l 233 458 l 233 0 l 125 0 l 125 746 l 31 746 m 233 563 l 768 563 l 768 746 l 233 746 "},"Í":{"ha":333,"x_min":0,"x_max":0,"o":"m 113 1014 l 221 1014 l 221 0 l 113 0 m 271 1319 l 410 1319 l 208 1094 l 108 1094 "},"Ì":{"ha":333,"x_min":0,"x_max":0,"o":"m 113 1014 l 221 1014 l 221 0 l 113 0 m -86 1319 l 51 1319 l 215 1094 l 115 1094 "},"Î":{"ha":333,"x_min":0,"x_max":0,"o":"m 113 1014 l 221 1014 l 221 0 l 113 0 m 117 1319 l 208 1319 l 374 1094 l 263 1094 l 163 1233 l 64 1094 l -49 1094 "},"Ï":{"ha":333,"x_min":0,"x_max":0,"o":"m 251 1297 l 358 1297 l 358 1104 l 251 1104 m -26 1297 l 81 1297 l 81 1104 l -26 1104 m 113 1014 l 221 1014 l 221 0 l 113 0 "},"Ĩ":{"ha":333,"x_min":0,"x_max":0,"o":"m 113 1014 l 221 1014 l 221 0 l 113 0 m -64 1094 b 74 1261 -64 1196 -7 1261 b 186 1224 119 1261 153 1243 b 274 1185 217 1204 244 1185 b 328 1257 307 1185 328 1208 l 414 1257 b 275 1089 414 1154 365 1089 b 149 1135 222 1089 183 1114 b 74 1165 122 1150 103 1165 b 22 1094 42 1165 22 1143 l -64 1094 "},"Ī":{"ha":333,"x_min":0,"x_max":0,"o":"m 113 1014 l 221 1014 l 221 0 l 113 0 m -19 1188 l 347 1188 l 347 1094 l -19 1094 "},"Ĭ":{"ha":333,"x_min":0,"x_max":0,"o":"m 113 1014 l 221 1014 l 221 0 l 113 0 m 161 1089 b -62 1315 8 1089 -62 1192 l 29 1315 b 161 1169 29 1228 75 1171 b 292 1315 244 1171 292 1228 l 386 1315 b 161 1089 386 1192 300 1089 "},"İ":{"ha":333,"x_min":0,"x_max":0,"o":"m 113 1014 l 221 1014 l 221 0 l 113 0 m 113 1297 l 219 1297 l 219 1104 l 113 1104 "},"Į":{"ha":333,"x_min":0,"x_max":0,"o":"m 179 -301 b 10 -150 60 -301 10 -228 b 113 22 10 -87 51 -28 l 113 1014 l 221 1014 l 221 0 b 111 -146 146 -60 111 -101 b 179 -210 111 -183 139 -210 b 268 -174 218 -210 243 -194 l 329 -249 b 179 -301 288 -279 231 -301 "},"̨":{"ha":692,"x_min":0,"x_max":0,"o":"m 394 -301 b 225 -150 275 -301 225 -228 b 357 44 225 -78 282 -10 l 436 0 b 326 -146 361 -60 326 -101 b 394 -210 326 -183 354 -210 b 483 -174 433 -210 458 -194 l 544 -249 b 394 -301 503 -279 446 -301 "},"Ĵ":{"ha":651,"x_min":0,"x_max":0,"o":"m 301 -14 b 46 129 182 -14 90 47 l 143 193 b 299 85 174 132 224 85 b 449 264 390 85 449 150 l 449 1014 l 557 1014 l 557 267 b 301 -14 557 89 457 -14 m 454 1319 l 546 1319 l 711 1094 l 600 1094 l 500 1233 l 401 1094 l 289 1094 "},"Ķ":{"ha":897,"x_min":0,"x_max":0,"o":"m 399 535 l 208 311 l 208 0 l 100 0 l 100 1014 l 208 1014 l 208 456 l 688 1014 l 821 1014 l 475 608 l 865 0 l 740 0 m 360 -367 l 417 -83 l 515 -83 l 433 -367 "},"Ĺ":{"ha":740,"x_min":0,"x_max":0,"o":"m 100 1014 l 208 1014 l 208 104 l 661 104 l 661 0 l 100 0 m 256 1319 l 394 1319 l 193 1094 l 93 1094 "},"Ļ":{"ha":740,"x_min":0,"x_max":0,"o":"m 100 1014 l 208 1014 l 208 104 l 661 104 l 661 0 l 100 0 m 271 -367 l 328 -83 l 426 -83 l 344 -367 "},"Ŀ":{"ha":746,"x_min":0,"x_max":0,"o":"m 100 1014 l 208 1014 l 208 104 l 661 104 l 661 0 l 100 0 m 554 596 l 661 596 l 661 403 l 554 403 "},"Ł":{"ha":779,"x_min":0,"x_max":0,"o":"m 18 565 l 139 600 l 139 1014 l 247 1014 l 247 632 l 376 669 l 376 592 l 247 554 l 247 104 l 700 104 l 700 0 l 139 0 l 139 522 l 18 488 "},"Ń":{"ha":1026,"x_min":0,"x_max":0,"o":"m 100 1014 l 221 1014 l 818 172 l 818 1014 l 926 1014 l 926 0 l 811 0 l 208 849 l 208 0 l 100 0 m 628 1319 l 767 1319 l 565 1094 l 465 1094 "},"Ñ":{"ha":1026,"x_min":0,"x_max":0,"o":"m 100 1014 l 221 1014 l 818 172 l 818 1014 l 926 1014 l 926 0 l 811 0 l 208 849 l 208 0 l 100 0 m 271 1094 b 408 1261 271 1196 328 1261 b 521 1224 454 1261 488 1243 b 608 1185 551 1204 579 1185 b 663 1257 642 1185 663 1208 l 749 1257 b 610 1089 749 1154 700 1089 b 483 1135 557 1089 518 1114 b 408 1165 457 1150 438 1165 b 357 1094 376 1165 357 1143 l 271 1094 "},"Ň":{"ha":1026,"x_min":0,"x_max":0,"o":"m 100 1014 l 221 1014 l 818 172 l 818 1014 l 926 1014 l 926 0 l 811 0 l 208 849 l 208 0 l 100 0 m 303 1319 l 414 1319 l 513 1181 l 613 1319 l 724 1319 l 558 1094 l 468 1094 "},"Ņ":{"ha":1026,"x_min":0,"x_max":0,"o":"m 100 1014 l 221 1014 l 818 172 l 818 1014 l 926 1014 l 926 0 l 811 0 l 208 849 l 208 0 l 100 0 m 401 -367 l 458 -83 l 557 -83 l 475 -367 "},"Ó":{"ha":1181,"x_min":0,"x_max":0,"o":"m 590 -14 b 69 507 303 -14 69 219 b 590 1028 69 794 303 1028 b 1111 507 878 1028 1111 794 b 590 -14 1111 219 878 -14 m 590 89 b 1000 507 824 89 1000 278 b 590 925 1000 736 824 925 b 181 507 357 925 181 736 b 590 89 181 278 357 89 m 693 1319 l 832 1319 l 631 1094 l 531 1094 "},"Ò":{"ha":1181,"x_min":0,"x_max":0,"o":"m 590 -14 b 69 507 303 -14 69 219 b 590 1028 69 794 303 1028 b 1111 507 878 1028 1111 794 b 590 -14 1111 219 878 -14 m 590 89 b 1000 507 824 89 1000 278 b 590 925 1000 736 824 925 b 181 507 357 925 181 736 b 590 89 181 278 357 89 m 335 1319 l 472 1319 l 636 1094 l 536 1094 "},"Ô":{"ha":1181,"x_min":0,"x_max":0,"o":"m 590 -14 b 69 507 303 -14 69 219 b 590 1028 69 794 303 1028 b 1111 507 878 1028 1111 794 b 590 -14 1111 219 878 -14 m 590 89 b 1000 507 824 89 1000 278 b 590 925 1000 736 824 925 b 181 507 357 925 181 736 b 590 89 181 278 357 89 m 539 1319 l 631 1319 l 796 1094 l 685 1094 l 585 1233 l 486 1094 l 374 1094 "},"Ö":{"ha":1181,"x_min":0,"x_max":0,"o":"m 628 1297 l 735 1297 l 735 1104 l 628 1104 m 442 1297 l 549 1297 l 549 1104 l 442 1104 m 590 -14 b 69 507 303 -14 69 219 b 590 1028 69 794 303 1028 b 1111 507 878 1028 1111 794 b 590 -14 1111 219 878 -14 m 590 89 b 1000 507 824 89 1000 278 b 590 925 1000 736 824 925 b 181 507 357 925 181 736 b 590 89 181 278 357 89 "},"Õ":{"ha":1181,"x_min":0,"x_max":0,"o":"m 590 -14 b 69 507 303 -14 69 219 b 590 1028 69 794 303 1028 b 1111 507 878 1028 1111 794 b 590 -14 1111 219 878 -14 m 590 89 b 1000 507 824 89 1000 278 b 590 925 1000 736 824 925 b 181 507 357 925 181 736 b 590 89 181 278 357 89 m 342 1094 b 479 1261 342 1196 399 1261 b 592 1224 525 1261 558 1243 b 679 1185 622 1204 650 1185 b 733 1257 713 1185 733 1208 l 819 1257 b 681 1089 819 1154 771 1089 b 554 1135 628 1089 589 1114 b 479 1165 528 1150 508 1165 b 428 1094 447 1165 428 1143 l 342 1094 "},"Ŏ":{"ha":1181,"x_min":0,"x_max":0,"o":"m 590 -14 b 69 507 303 -14 69 219 b 590 1028 69 794 303 1028 b 1111 507 878 1028 1111 794 b 590 -14 1111 219 878 -14 m 590 89 b 1000 507 824 89 1000 278 b 590 925 1000 736 824 925 b 181 507 357 925 181 736 b 590 89 181 278 357 89 m 583 1090 b 360 1317 431 1090 360 1193 l 451 1317 b 583 1171 451 1229 497 1172 b 714 1317 667 1172 714 1229 l 808 1317 b 583 1090 808 1193 722 1090 "},"Ō":{"ha":1181,"x_min":0,"x_max":0,"o":"m 401 1188 l 768 1188 l 768 1094 l 401 1094 m 590 -14 b 69 507 303 -14 69 219 b 590 1028 69 794 303 1028 b 1111 507 878 1028 1111 794 b 590 -14 1111 219 878 -14 m 590 89 b 1000 507 824 89 1000 278 b 590 925 1000 736 824 925 b 181 507 357 925 181 736 b 590 89 181 278 357 89 "},"Ő":{"ha":1181,"x_min":0,"x_max":0,"o":"m 588 1319 l 718 1319 l 517 1094 l 425 1094 m 786 1319 l 917 1319 l 715 1094 l 622 1094 m 590 -14 b 69 507 303 -14 69 219 b 590 1028 69 794 303 1028 b 1111 507 878 1028 1111 794 b 590 -14 1111 219 878 -14 m 590 89 b 1000 507 824 89 1000 278 b 590 925 1000 736 824 925 b 181 507 357 925 181 736 b 590 89 181 278 357 89 "},"Ø":{"ha":1181,"x_min":0,"x_max":0,"o":"m 236 125 b 69 507 133 219 69 356 b 590 1028 69 794 303 1028 b 867 949 692 1028 786 999 l 917 1014 l 1043 1014 l 946 886 b 1111 507 1047 792 1111 657 b 590 -14 1111 219 878 -14 b 315 64 489 -14 396 14 l 267 0 l 140 0 m 181 507 b 300 208 181 390 225 285 l 803 865 b 590 925 742 903 669 925 b 181 507 357 925 181 736 m 590 89 b 1000 507 824 89 1000 278 b 882 803 1000 622 956 726 l 379 147 b 590 89 440 110 513 89 "},"Ǿ":{"ha":1181,"x_min":0,"x_max":0,"o":"m 236 125 b 69 507 133 219 69 356 b 590 1028 69 794 303 1028 b 867 949 692 1028 786 999 l 917 1014 l 1043 1014 l 946 886 b 1111 507 1047 792 1111 657 b 590 -14 1111 219 878 -14 b 315 64 489 -14 396 14 l 267 0 l 140 0 m 181 507 b 300 208 181 390 225 285 l 803 865 b 590 925 742 903 669 925 b 181 507 357 925 181 736 m 590 89 b 1000 507 824 89 1000 278 b 882 803 1000 622 956 726 l 379 147 b 590 89 440 110 513 89 m 689 1319 l 828 1319 l 626 1094 l 526 1094 "},"Œ":{"ha":1700,"x_min":0,"x_max":0,"o":"m 1001 201 b 589 -14 913 71 765 -14 b 69 507 301 -14 69 219 b 589 1028 69 794 301 1028 b 1001 813 765 1028 913 943 l 1001 1014 l 1617 1014 l 1617 911 l 1110 911 l 1110 560 l 1617 560 l 1617 457 l 1110 457 l 1110 104 l 1617 104 l 1617 0 l 1001 0 m 589 93 b 1001 490 813 93 992 269 l 1001 524 b 589 922 992 746 813 922 b 178 507 361 922 178 736 b 589 93 178 279 361 93 "},"Þ":{"ha":790,"x_min":0,"x_max":0,"o":"m 100 1014 l 208 1014 l 208 801 l 413 801 b 722 521 597 801 722 686 b 413 239 722 356 597 239 l 208 239 l 208 0 l 100 0 m 208 700 l 208 339 l 404 339 b 610 521 532 339 610 413 b 404 700 610 626 532 700 "},"Ŕ":{"ha":825,"x_min":0,"x_max":0,"o":"m 100 1014 l 411 1014 b 756 692 610 1014 756 871 b 507 383 756 549 663 418 l 764 0 l 638 0 l 332 464 l 401 464 b 647 692 554 464 647 578 b 403 914 647 819 554 914 l 208 914 l 208 0 l 100 0 m 467 1319 l 606 1319 l 404 1094 l 304 1094 "},"Ř":{"ha":825,"x_min":0,"x_max":0,"o":"m 100 1014 l 411 1014 b 756 692 610 1014 756 871 b 507 383 756 549 663 418 l 764 0 l 638 0 l 332 464 l 401 464 b 647 692 554 464 647 578 b 403 914 647 819 554 914 l 208 914 l 208 0 l 100 0 m 174 1319 l 285 1319 l 383 1181 l 483 1319 l 594 1319 l 429 1094 l 339 1094 "},"Ŗ":{"ha":825,"x_min":0,"x_max":0,"o":"m 100 1014 l 411 1014 b 756 692 610 1014 756 871 b 507 383 756 549 663 418 l 764 0 l 638 0 l 332 464 l 401 464 b 647 692 554 464 647 578 b 403 914 647 819 554 914 l 208 914 l 208 0 l 100 0 m 317 -367 l 374 -83 l 472 -83 l 390 -367 "},"Ś":{"ha":782,"x_min":0,"x_max":0,"o":"m 499 1319 l 638 1319 l 436 1094 l 336 1094 m 390 -14 b 32 172 226 -14 114 56 l 124 242 b 390 85 192 136 275 85 b 606 276 517 85 606 165 b 358 483 606 401 485 440 b 75 765 219 531 75 589 b 386 1028 75 913 208 1028 b 700 875 529 1028 626 971 l 614 811 b 385 932 563 892 488 932 b 185 765 271 932 185 860 b 426 568 185 649 301 611 b 715 276 567 519 715 461 b 390 -14 715 126 586 -14 "},"Ŝ":{"ha":782,"x_min":0,"x_max":0,"o":"m 390 -14 b 32 172 226 -14 114 56 l 124 242 b 390 85 192 136 275 85 b 606 276 517 85 606 165 b 358 483 606 401 485 440 b 75 765 219 531 75 589 b 386 1028 75 913 208 1028 b 700 875 529 1028 626 971 l 614 811 b 385 932 563 892 488 932 b 185 765 271 932 185 860 b 426 568 185 649 301 611 b 715 276 567 519 715 461 b 390 -14 715 126 586 -14 m 350 1319 l 442 1319 l 607 1094 l 496 1094 l 396 1233 l 297 1094 l 185 1094 "},"Š":{"ha":782,"x_min":0,"x_max":0,"o":"m 390 -14 b 32 172 226 -14 114 56 l 124 242 b 390 85 192 136 275 85 b 606 276 517 85 606 165 b 358 483 606 401 485 440 b 75 765 219 531 75 589 b 386 1028 75 913 208 1028 b 700 875 529 1028 626 971 l 614 811 b 385 932 563 892 488 932 b 185 765 271 932 185 860 b 426 568 185 649 301 611 b 715 276 567 519 715 461 b 390 -14 715 126 586 -14 m 189 1319 l 300 1319 l 399 1181 l 499 1319 l 610 1319 l 444 1094 l 354 1094 "},"Ş":{"ha":782,"x_min":0,"x_max":0,"o":"m 399 -325 b 196 -247 311 -325 246 -294 l 281 -196 b 399 -246 315 -224 344 -246 b 493 -189 451 -246 493 -221 b 394 -139 493 -157 458 -139 l 338 -139 l 338 -11 b 32 172 201 1 104 68 l 124 242 b 390 85 192 136 275 85 b 606 276 517 85 606 165 b 358 483 606 401 485 440 b 75 765 219 531 75 589 b 386 1028 75 913 208 1028 b 700 875 529 1028 626 971 l 614 811 b 385 932 563 892 488 932 b 185 765 271 932 185 860 b 426 568 185 649 301 611 b 715 276 567 519 715 461 b 428 -12 715 136 603 4 l 428 -72 b 593 -185 526 -72 593 -119 b 399 -325 593 -267 504 -325 "},"Ș":{"ha":782,"x_min":0,"x_max":0,"o":"m 299 -353 l 356 -69 l 454 -69 l 372 -353 m 390 -14 b 32 172 226 -14 114 56 l 124 242 b 390 85 192 136 275 85 b 606 276 517 85 606 165 b 358 483 606 401 485 440 b 75 765 219 531 75 589 b 386 1028 75 913 208 1028 b 700 875 529 1028 626 971 l 614 811 b 385 932 563 892 488 932 b 185 765 271 932 185 860 b 426 568 185 649 301 611 b 715 276 567 519 715 461 b 390 -14 715 126 586 -14 "},"Ť":{"ha":846,"x_min":0,"x_max":0,"o":"m 369 914 l 64 914 l 64 1014 l 782 1014 l 782 914 l 478 914 l 478 0 l 369 0 m 206 1319 l 317 1319 l 415 1181 l 515 1319 l 626 1319 l 461 1094 l 371 1094 "},"Ţ":{"ha":846,"x_min":0,"x_max":0,"o":"m 317 -367 l 374 -83 l 472 -83 l 390 -367 m 369 914 l 64 914 l 64 1014 l 782 1014 l 782 914 l 478 914 l 478 0 l 369 0 "},"Ú":{"ha":879,"x_min":0,"x_max":0,"o":"m 533 1319 l 672 1319 l 471 1094 l 371 1094 m 439 -14 b 94 331 240 -14 94 136 l 94 1014 l 203 1014 l 203 325 b 439 89 203 196 304 89 b 676 325 574 89 676 196 l 676 1014 l 785 1014 l 785 331 b 439 -14 785 136 638 -14 "},"Ù":{"ha":879,"x_min":0,"x_max":0,"o":"m 439 -14 b 94 331 240 -14 94 136 l 94 1014 l 203 1014 l 203 325 b 439 89 203 196 304 89 b 676 325 574 89 676 196 l 676 1014 l 785 1014 l 785 331 b 439 -14 785 136 638 -14 m 192 1319 l 329 1319 l 493 1094 l 393 1094 "},"Û":{"ha":879,"x_min":0,"x_max":0,"o":"m 439 -14 b 94 331 240 -14 94 136 l 94 1014 l 203 1014 l 203 325 b 439 89 203 196 304 89 b 676 325 574 89 676 196 l 676 1014 l 785 1014 l 785 331 b 439 -14 785 136 638 -14 m 388 1319 l 479 1319 l 644 1094 l 533 1094 l 433 1233 l 335 1094 l 222 1094 "},"Ü":{"ha":879,"x_min":0,"x_max":0,"o":"m 479 1297 l 586 1297 l 586 1104 l 479 1104 m 293 1297 l 400 1297 l 400 1104 l 293 1104 m 439 -14 b 94 331 240 -14 94 136 l 94 1014 l 203 1014 l 203 325 b 439 89 203 196 304 89 b 676 325 574 89 676 196 l 676 1014 l 785 1014 l 785 331 b 439 -14 785 136 638 -14 "},"Ũ":{"ha":879,"x_min":0,"x_max":0,"o":"m 439 -14 b 94 331 240 -14 94 136 l 94 1014 l 203 1014 l 203 325 b 439 89 203 196 304 89 b 676 325 574 89 676 196 l 676 1014 l 785 1014 l 785 331 b 439 -14 785 136 638 -14 m 201 1094 b 339 1261 201 1196 258 1261 b 451 1224 385 1261 418 1243 b 539 1185 482 1204 510 1185 b 593 1257 572 1185 593 1208 l 679 1257 b 540 1089 679 1154 631 1089 b 414 1135 488 1089 449 1114 b 339 1165 388 1150 368 1165 b 288 1094 307 1165 288 1143 l 201 1094 "},"Ů":{"ha":879,"x_min":0,"x_max":0,"o":"m 432 1089 b 285 1238 351 1089 285 1156 b 432 1388 285 1322 351 1388 b 583 1238 517 1388 583 1322 b 432 1089 583 1156 517 1089 m 432 1172 b 500 1238 469 1172 500 1201 b 432 1306 500 1274 469 1306 b 367 1238 397 1306 367 1274 b 432 1172 367 1201 397 1172 m 439 -14 b 94 331 240 -14 94 136 l 94 1014 l 203 1014 l 203 325 b 439 89 203 196 304 89 b 676 325 574 89 676 196 l 676 1014 l 785 1014 l 785 331 b 439 -14 785 136 638 -14 "},"Ŭ":{"ha":879,"x_min":0,"x_max":0,"o":"m 439 -14 b 94 331 240 -14 94 136 l 94 1014 l 203 1014 l 203 325 b 439 89 203 196 304 89 b 676 325 574 89 676 196 l 676 1014 l 785 1014 l 785 331 b 439 -14 785 136 638 -14 m 433 1089 b 210 1315 281 1089 210 1192 l 301 1315 b 433 1169 301 1228 347 1171 b 564 1315 517 1171 564 1228 l 658 1315 b 433 1089 658 1192 572 1089 "},"Ū":{"ha":879,"x_min":0,"x_max":0,"o":"m 439 -14 b 94 331 240 -14 94 136 l 94 1014 l 203 1014 l 203 325 b 439 89 203 196 304 89 b 676 325 574 89 676 196 l 676 1014 l 785 1014 l 785 331 b 439 -14 785 136 638 -14 m 253 1188 l 619 1188 l 619 1094 l 253 1094 "},"Ű":{"ha":879,"x_min":0,"x_max":0,"o":"m 439 -14 b 94 331 240 -14 94 136 l 94 1014 l 203 1014 l 203 325 b 439 89 203 196 304 89 b 676 325 574 89 676 196 l 676 1014 l 785 1014 l 785 331 b 439 -14 785 136 638 -14 m 431 1319 l 561 1319 l 360 1094 l 268 1094 m 629 1319 l 760 1319 l 558 1094 l 465 1094 "},"Ų":{"ha":879,"x_min":0,"x_max":0,"o":"m 443 -299 b 256 -158 332 -299 256 -236 b 358 -4 256 -106 282 -57 b 94 331 201 29 94 164 l 94 1014 l 203 1014 l 203 325 b 439 89 203 196 304 89 b 676 325 574 89 676 196 l 676 1014 l 785 1014 l 785 331 b 531 -3 785 167 681 35 b 364 -153 396 -85 364 -112 b 443 -210 364 -190 399 -210 b 546 -162 489 -210 517 -187 l 631 -221 b 443 -299 583 -262 511 -299 "},"Ẃ":{"ha":1486,"x_min":0,"x_max":0,"o":"m 50 1014 l 165 1014 l 407 168 l 688 1014 l 792 1014 l 1069 167 l 1325 1014 l 1436 1014 l 1124 0 l 1014 0 l 738 844 l 458 0 l 347 0 m 842 1319 l 981 1319 l 779 1094 l 679 1094 "},"Ẁ":{"ha":1486,"x_min":0,"x_max":0,"o":"m 50 1014 l 165 1014 l 407 168 l 688 1014 l 792 1014 l 1069 167 l 1325 1014 l 1436 1014 l 1124 0 l 1014 0 l 738 844 l 458 0 l 347 0 m 483 1319 l 621 1319 l 785 1094 l 685 1094 "},"Ŵ":{"ha":1486,"x_min":0,"x_max":0,"o":"m 50 1014 l 165 1014 l 407 168 l 688 1014 l 792 1014 l 1069 167 l 1325 1014 l 1436 1014 l 1124 0 l 1014 0 l 738 844 l 458 0 l 347 0 m 690 1319 l 782 1319 l 947 1094 l 836 1094 l 736 1233 l 638 1094 l 525 1094 "},"Ẅ":{"ha":1486,"x_min":0,"x_max":0,"o":"m 50 1014 l 165 1014 l 407 168 l 688 1014 l 792 1014 l 1069 167 l 1325 1014 l 1436 1014 l 1124 0 l 1014 0 l 738 844 l 458 0 l 347 0 m 594 1297 l 701 1297 l 701 1104 l 594 1104 m 781 1297 l 888 1297 l 888 1104 l 781 1104 "},"Ý":{"ha":860,"x_min":0,"x_max":0,"o":"m 376 482 l 40 1014 l 161 1014 l 431 585 l 699 1014 l 819 1014 l 485 483 l 485 0 l 376 0 m 529 1319 l 668 1319 l 467 1094 l 367 1094 "},"Ỳ":{"ha":860,"x_min":0,"x_max":0,"o":"m 376 482 l 40 1014 l 161 1014 l 431 585 l 699 1014 l 819 1014 l 485 483 l 485 0 l 376 0 m 176 1319 l 314 1319 l 478 1094 l 378 1094 "},"Ŷ":{"ha":860,"x_min":0,"x_max":0,"o":"m 376 482 l 40 1014 l 161 1014 l 431 585 l 699 1014 l 819 1014 l 485 483 l 485 0 l 376 0 m 381 1319 l 472 1319 l 638 1094 l 526 1094 l 426 1233 l 328 1094 l 215 1094 "},"Ÿ":{"ha":860,"x_min":0,"x_max":0,"o":"m 376 482 l 40 1014 l 161 1014 l 431 585 l 699 1014 l 819 1014 l 485 483 l 485 0 l 376 0 m 283 1297 l 390 1297 l 390 1104 l 283 1104 m 469 1297 l 576 1297 l 576 1104 l 469 1104 "},"Ź":{"ha":838,"x_min":0,"x_max":0,"o":"m 83 100 l 626 911 l 100 911 l 100 1014 l 754 1014 l 754 915 l 211 104 l 754 104 l 754 0 l 83 0 m 515 1319 l 654 1319 l 453 1094 l 353 1094 "},"Ž":{"ha":838,"x_min":0,"x_max":0,"o":"m 83 100 l 626 911 l 100 911 l 100 1014 l 754 1014 l 754 915 l 211 104 l 754 104 l 754 0 l 83 0 m 210 1319 l 321 1319 l 419 1181 l 519 1319 l 631 1319 l 465 1094 l 375 1094 "},"Ż":{"ha":838,"x_min":0,"x_max":0,"o":"m 83 100 l 626 911 l 100 911 l 100 1014 l 754 1014 l 754 915 l 211 104 l 754 104 l 754 0 l 83 0 m 372 1297 l 479 1297 l 479 1104 l 372 1104 "},"B":{"ha":878,"x_min":0,"x_max":0,"o":"m 100 1014 l 469 1014 b 781 746 656 1014 781 908 b 653 528 781 650 736 569 b 808 285 753 488 808 400 b 490 0 808 110 679 0 l 100 0 m 208 472 l 208 99 l 489 99 b 699 286 615 99 699 178 b 486 472 699 396 625 472 m 208 915 l 208 572 l 481 572 b 671 746 604 572 671 647 b 468 915 671 846 592 915 "},"a":{"ha":878,"x_min":0,"x_max":0,"o":"m 422 -14 b 67 347 218 -14 67 149 b 422 708 67 546 215 708 b 678 581 511 708 618 663 l 678 694 l 785 694 l 785 0 l 678 0 l 678 114 b 422 -14 618 31 511 -14 m 428 83 b 688 347 576 83 688 201 b 428 611 688 492 576 611 b 175 347 286 611 175 493 b 428 83 175 201 286 83 "},"b":{"ha":875,"x_min":0,"x_max":0,"o":"m 453 -14 b 197 114 363 -14 256 31 l 197 0 l 94 0 l 94 1014 l 199 1014 l 199 582 b 453 708 257 664 363 708 b 808 347 660 708 808 546 b 453 -14 808 149 657 -14 m 447 83 b 700 347 589 83 700 201 b 447 611 700 493 589 611 b 188 347 299 611 188 492 b 447 83 188 201 299 83 "},"c":{"ha":815,"x_min":0,"x_max":0,"o":"m 432 -14 b 67 347 219 -14 67 147 b 431 708 67 556 226 708 b 756 501 582 708 704 624 l 658 460 b 429 611 615 556 538 611 b 175 347 283 611 175 493 b 435 83 175 201 285 83 b 664 244 550 83 625 153 l 763 203 b 432 -14 707 76 597 -14 "},"d":{"ha":875,"x_min":0,"x_max":0,"o":"m 422 -14 b 67 347 218 -14 67 149 b 422 708 67 546 215 708 b 676 582 511 708 617 664 l 676 1014 l 781 1014 l 781 0 l 678 0 l 678 114 b 422 -14 618 31 511 -14 m 428 83 b 688 347 576 83 688 201 b 428 611 688 492 576 611 b 175 347 286 611 175 493 b 428 83 175 201 286 83 "},"e":{"ha":850,"x_min":0,"x_max":0,"o":"m 432 -14 b 67 342 211 -14 67 138 b 426 708 67 550 218 708 b 782 358 626 708 782 571 l 782 313 l 171 313 b 432 82 185 175 293 82 b 667 225 544 82 624 140 l 760 179 b 432 -14 696 58 588 -14 m 426 613 b 176 411 301 613 204 528 l 672 411 b 426 613 653 536 561 613 "},"f":{"ha":489,"x_min":0,"x_max":0,"o":"m 44 694 l 164 694 l 164 749 b 428 1014 164 956 224 1014 l 438 1014 l 438 915 b 272 747 290 915 272 889 l 272 694 l 438 694 l 438 597 l 272 597 l 272 0 l 164 0 l 164 597 l 44 597 "},"g":{"ha":879,"x_min":0,"x_max":0,"o":"m 422 -14 b 67 347 218 -14 67 149 b 422 708 67 546 215 708 b 678 581 511 708 618 663 l 678 694 l 785 694 l 785 13 b 442 -339 785 -199 651 -339 b 115 -147 272 -339 165 -264 l 221 -112 b 442 -244 254 -192 324 -244 b 679 10 593 -244 679 -139 l 679 115 b 422 -14 621 32 513 -14 m 428 83 b 688 347 576 83 688 201 b 428 611 688 492 576 611 b 175 347 286 611 175 493 b 428 83 175 201 286 83 "},"h":{"ha":829,"x_min":0,"x_max":0,"o":"m 94 1014 l 200 1014 l 200 593 b 436 708 249 663 332 708 b 738 386 622 708 738 586 l 738 0 l 629 0 l 629 386 b 421 611 629 521 560 611 b 201 385 294 611 201 511 l 201 0 l 94 0 "},"i":{"ha":294,"x_min":0,"x_max":0,"o":"m 93 694 l 201 694 l 201 0 l 93 0 m 93 1014 l 201 1014 l 201 815 l 93 815 "},"j":{"ha":294,"x_min":0,"x_max":0,"o":"m -74 -215 b 93 -51 65 -215 93 -193 l 93 694 l 201 694 l 201 -53 b -57 -318 201 -256 138 -318 l -74 -318 m 93 1014 l 201 1014 l 201 815 l 93 815 "},"k":{"ha":744,"x_min":0,"x_max":0,"o":"m 340 336 l 200 193 l 200 0 l 94 0 l 94 1014 l 200 1014 l 200 317 l 569 694 l 706 694 l 418 400 l 707 0 l 582 0 "},"l":{"ha":297,"x_min":0,"x_max":0,"o":"m 94 1014 l 203 1014 l 203 0 l 94 0 "},"m":{"ha":1321,"x_min":0,"x_max":0,"o":"m 93 694 l 199 694 l 199 600 b 421 708 244 667 322 708 b 668 567 546 708 629 650 b 919 708 713 651 803 708 b 1229 408 1119 708 1229 586 l 1229 0 l 1121 0 l 1121 415 b 918 613 1121 531 1043 613 b 714 404 804 613 714 535 l 714 0 l 607 0 l 607 428 b 413 613 607 539 529 613 b 200 392 290 613 200 531 l 200 0 l 93 0 "},"n":{"ha":826,"x_min":0,"x_max":0,"o":"m 93 694 l 199 694 l 199 592 b 435 708 247 663 331 708 b 736 386 621 708 736 586 l 736 0 l 628 0 l 628 386 b 419 611 628 521 558 611 b 200 385 293 611 200 511 l 200 0 l 93 0 "},"o":{"ha":854,"x_min":0,"x_max":0,"o":"m 426 -14 b 67 347 226 -14 67 143 b 426 708 67 551 226 708 b 788 347 626 708 788 551 b 426 -14 788 143 626 -14 m 426 83 b 679 347 568 83 679 201 b 426 611 679 493 568 611 b 175 347 285 611 175 493 b 426 83 175 201 285 83 "},"p":{"ha":874,"x_min":0,"x_max":0,"o":"m 451 -14 b 197 106 354 -14 254 25 l 197 -319 l 93 -319 l 93 694 l 196 694 l 196 581 b 451 708 254 663 361 708 b 807 347 658 708 807 546 b 451 -14 807 149 656 -14 m 446 83 b 699 347 588 83 699 201 b 446 611 699 493 588 611 b 186 347 297 611 186 492 b 446 83 186 201 297 83 "},"q":{"ha":875,"x_min":0,"x_max":0,"o":"m 422 -14 b 67 347 218 -14 67 149 b 422 708 67 546 215 708 b 678 581 511 708 618 663 l 678 694 l 781 694 l 781 -319 l 676 -319 l 676 106 b 422 -14 619 25 518 -14 m 428 83 b 688 347 576 83 688 201 b 428 611 688 492 576 611 b 175 347 286 611 175 493 b 428 83 175 201 286 83 "},"r":{"ha":540,"x_min":0,"x_max":0,"o":"m 93 694 l 200 694 l 200 594 b 393 694 238 658 304 694 l 479 694 l 479 594 l 393 594 b 201 360 253 594 201 521 l 201 0 l 93 0 "},"s":{"ha":660,"x_min":0,"x_max":0,"o":"m 326 -14 b 36 119 206 -14 104 36 l 121 189 b 331 81 172 125 242 81 b 488 200 435 81 488 136 b 300 310 488 274 396 288 b 69 508 189 336 69 372 b 322 710 69 611 167 710 b 586 603 425 710 526 672 l 507 536 b 322 618 460 589 400 618 b 175 510 226 618 175 568 b 357 400 175 439 263 422 b 593 200 469 374 593 339 b 326 -14 593 111 519 -14 "},"t":{"ha":504,"x_min":0,"x_max":0,"o":"m 47 694 l 167 694 l 167 858 l 275 918 l 275 694 l 439 694 l 439 597 l 275 597 l 275 267 b 439 101 275 125 301 101 l 439 0 l 424 0 b 167 265 221 0 167 58 l 167 597 l 47 597 "},"u":{"ha":826,"x_min":0,"x_max":0,"o":"m 397 -14 b 90 308 194 -14 90 108 l 90 694 l 199 694 l 199 308 b 407 83 199 174 268 83 b 626 310 533 83 626 183 l 626 694 l 733 694 l 733 0 l 628 0 l 628 103 b 397 -14 579 32 497 -14 "},"v":{"ha":729,"x_min":0,"x_max":0,"o":"m 42 694 l 158 694 l 367 146 l 572 694 l 688 694 l 418 0 l 311 0 "},"w":{"ha":1200,"x_min":0,"x_max":0,"o":"m 50 694 l 164 694 l 339 153 l 544 694 l 649 694 l 860 150 l 1038 694 l 1150 694 l 915 0 l 811 0 l 596 546 l 386 0 l 279 0 "},"x":{"ha":740,"x_min":0,"x_max":0,"o":"m 303 353 l 42 694 l 169 694 l 371 431 l 572 694 l 701 694 l 436 354 l 713 0 l 581 0 l 368 272 l 161 0 l 29 0 "},"y":{"ha":778,"x_min":0,"x_max":0,"o":"m 342 40 l 42 694 l 160 694 l 399 164 l 619 694 l 736 694 l 299 -321 l 185 -321 "},"z":{"ha":742,"x_min":0,"x_max":0,"o":"m 69 103 l 536 594 l 82 594 l 82 694 l 668 694 l 668 592 l 200 99 l 672 99 l 672 0 l 69 0 "},"":{"ha":1157,"x_min":0,"x_max":0,"o":"m 631 225 l 350 332 l 224 0 l 114 0 l 254 369 l 71 439 l 72 549 l 294 464 l 397 732 l 72 856 l 72 965 l 433 828 l 506 1014 l 615 1014 l 531 790 l 810 685 l 936 1014 l 1046 1014 l 906 649 l 1086 579 l 1086 469 l 865 553 l 763 285 l 1085 163 l 1085 53 l 725 189 l 654 0 l 546 0 m 390 428 l 668 322 l 769 590 l 493 696 "},"":{"ha":760,"x_min":0,"x_max":0,"o":"m 294 -14 b 63 168 139 -14 63 68 b 351 400 63 294 149 358 b 557 511 457 422 557 440 b 383 621 557 575 515 621 b 199 483 253 621 199 569 l 199 479 l 92 479 l 92 482 b 381 708 92 628 197 708 b 668 476 588 708 668 607 l 668 0 l 565 0 l 565 103 b 294 -14 497 31 413 -14 m 294 76 b 567 238 399 76 490 125 l 567 374 b 353 306 535 346 435 322 b 169 176 231 279 169 250 b 294 76 169 117 215 76 "},"":{"ha":807,"x_min":0,"x_max":0,"o":"m 397 -362 b 72 -172 156 -362 72 -283 b 146 -47 72 -114 101 -74 b 65 78 92 -24 65 19 b 189 219 65 154 115 201 b 90 429 128 267 90 342 b 369 708 90 585 215 708 b 601 578 472 708 556 657 b 746 683 617 651 665 683 l 767 683 l 767 565 l 743 565 b 650 429 685 565 650 551 b 376 149 650 272 532 149 l 282 149 b 164 83 199 149 164 118 b 276 22 164 44 194 22 l 486 22 b 743 -154 649 22 743 -40 b 397 -362 743 -276 626 -362 m 368 243 b 551 429 469 243 551 325 b 368 613 551 531 469 613 b 189 429 271 613 189 531 b 368 243 189 328 271 243 m 317 -71 b 169 -167 228 -69 169 -107 b 375 -268 169 -224 213 -268 l 424 -268 b 644 -158 581 -268 644 -215 b 482 -71 644 -99 593 -71 "},"á":{"ha":878,"x_min":0,"x_max":0,"o":"m 422 -14 b 67 347 218 -14 67 149 b 422 708 67 546 215 708 b 678 581 511 708 618 663 l 678 694 l 785 694 l 785 0 l 678 0 l 678 114 b 422 -14 618 31 511 -14 m 428 83 b 688 347 576 83 688 201 b 428 611 688 492 576 611 b 175 347 286 611 175 493 b 428 83 175 201 286 83 m 522 1000 l 661 1000 l 460 775 l 360 775 "},"à":{"ha":878,"x_min":0,"x_max":0,"o":"m 422 -14 b 67 347 218 -14 67 149 b 422 708 67 546 215 708 b 678 581 511 708 618 663 l 678 694 l 785 694 l 785 0 l 678 0 l 678 114 b 422 -14 618 31 511 -14 m 428 83 b 688 347 576 83 688 201 b 428 611 688 492 576 611 b 175 347 286 611 175 493 b 428 83 175 201 286 83 m 185 1000 l 322 1000 l 486 775 l 386 775 "},"â":{"ha":878,"x_min":0,"x_max":0,"o":"m 422 -14 b 67 347 218 -14 67 149 b 422 708 67 546 215 708 b 678 581 511 708 618 663 l 678 694 l 785 694 l 785 0 l 678 0 l 678 114 b 422 -14 618 31 511 -14 m 428 83 b 688 347 576 83 688 201 b 428 611 688 492 576 611 b 175 347 286 611 175 493 b 428 83 175 201 286 83 m 407 1000 l 499 1000 l 664 775 l 553 775 l 453 914 l 354 775 l 242 775 "},"ä":{"ha":878,"x_min":0,"x_max":0,"o":"m 422 -14 b 67 347 218 -14 67 149 b 422 708 67 546 215 708 b 678 581 511 708 618 663 l 678 694 l 785 694 l 785 0 l 678 0 l 678 114 b 422 -14 618 31 511 -14 m 428 83 b 688 347 576 83 688 201 b 428 611 688 492 576 611 b 175 347 286 611 175 493 b 428 83 175 201 286 83 m 490 978 l 597 978 l 597 785 l 490 785 m 304 978 l 411 978 l 411 785 l 304 785 "},"ã":{"ha":878,"x_min":0,"x_max":0,"o":"m 422 -14 b 67 347 218 -14 67 149 b 422 708 67 546 215 708 b 678 581 511 708 618 663 l 678 694 l 785 694 l 785 0 l 678 0 l 678 114 b 422 -14 618 31 511 -14 m 428 83 b 688 347 576 83 688 201 b 428 611 688 492 576 611 b 175 347 286 611 175 493 b 428 83 175 201 286 83 m 214 775 b 351 942 214 876 271 942 b 464 904 397 942 431 924 b 551 865 494 885 522 865 b 606 938 585 865 606 889 l 692 938 b 553 769 692 835 643 769 b 426 815 500 769 461 794 b 351 846 400 831 381 846 b 300 775 319 846 300 824 l 214 775 "},"å":{"ha":878,"x_min":0,"x_max":0,"o":"m 422 -14 b 67 347 218 -14 67 149 b 422 708 67 546 215 708 b 678 581 511 708 618 663 l 678 694 l 785 694 l 785 0 l 678 0 l 678 114 b 422 -14 618 31 511 -14 m 428 83 b 688 347 576 83 688 201 b 428 611 688 492 576 611 b 175 347 286 611 175 493 b 428 83 175 201 286 83 m 433 765 b 286 914 353 765 286 832 b 433 1064 286 999 353 1064 b 585 914 518 1064 585 999 b 433 765 585 832 518 765 m 433 849 b 501 914 471 849 501 878 b 433 982 501 950 471 982 b 368 914 399 982 368 950 b 433 849 368 878 399 849 "},"ā":{"ha":878,"x_min":0,"x_max":0,"o":"m 422 -14 b 67 347 218 -14 67 149 b 422 708 67 546 215 708 b 678 581 511 708 618 663 l 678 694 l 785 694 l 785 0 l 678 0 l 678 114 b 422 -14 618 31 511 -14 m 428 83 b 688 347 576 83 688 201 b 428 611 688 492 576 611 b 175 347 286 611 175 493 b 428 83 175 201 286 83 m 278 868 l 644 868 l 644 775 l 278 775 "},"ă":{"ha":878,"x_min":0,"x_max":0,"o":"m 422 -14 b 67 347 218 -14 67 149 b 422 708 67 546 215 708 b 678 581 511 708 618 663 l 678 694 l 785 694 l 785 0 l 678 0 l 678 114 b 422 -14 618 31 511 -14 m 428 83 b 688 347 576 83 688 201 b 428 611 688 492 576 611 b 175 347 286 611 175 493 b 428 83 175 201 286 83 m 443 767 b 219 993 290 767 219 869 l 311 993 b 443 847 311 906 357 849 b 574 993 526 849 574 906 l 668 993 b 443 767 668 869 582 767 "},"ą":{"ha":878,"x_min":0,"x_max":0,"o":"m 422 -14 b 67 347 218 -14 67 149 b 422 708 67 546 215 708 b 678 581 511 708 618 663 l 678 694 l 785 694 l 785 0 b 675 -146 710 -60 675 -101 b 743 -210 675 -183 703 -210 b 832 -174 782 -210 807 -194 l 893 -249 b 743 -301 851 -279 794 -301 b 574 -150 624 -301 574 -228 b 678 24 574 -86 617 -26 l 678 114 b 422 -14 618 31 511 -14 m 428 83 b 688 347 576 83 688 201 b 428 611 688 492 576 611 b 175 347 286 611 175 493 b 428 83 175 201 286 83 "},"ǻ":{"ha":878,"x_min":0,"x_max":0,"o":"m 422 -14 b 67 347 218 -14 67 149 b 422 708 67 546 215 708 b 678 581 511 708 618 663 l 678 694 l 785 694 l 785 0 l 678 0 l 678 114 b 422 -14 618 31 511 -14 m 428 83 b 688 347 576 83 688 201 b 428 611 688 492 576 611 b 175 347 286 611 175 493 b 428 83 175 201 286 83 m 436 765 b 289 914 356 765 289 832 b 436 1064 289 999 356 1064 b 588 914 521 1064 588 999 b 436 765 588 832 521 765 m 542 1328 l 681 1328 l 479 1103 l 379 1103 m 436 849 b 504 914 474 849 504 878 b 436 982 504 950 474 982 b 371 914 401 982 371 950 b 436 849 371 878 401 849 "},"æ":{"ha":1333,"x_min":0,"x_max":0,"o":"m 915 -14 b 601 146 774 -14 663 47 b 310 -14 556 64 451 -14 b 61 176 135 -14 63 68 b 308 392 60 310 171 361 b 553 511 431 419 553 435 b 376 622 553 575 493 622 b 174 458 246 622 174 553 l 174 454 l 74 454 l 74 457 b 372 708 74 611 189 708 b 635 586 501 708 596 663 b 908 708 699 661 794 708 b 1264 358 1108 708 1264 571 l 1264 314 l 653 314 b 915 82 665 176 775 82 b 1150 225 1028 82 1107 140 l 1243 179 b 915 -14 1179 58 1071 -14 m 314 75 b 558 250 447 75 536 179 b 549 342 551 279 549 310 b 551 383 549 356 550 369 b 357 313 529 350 460 335 b 169 179 243 290 169 263 b 314 75 169 121 211 75 m 908 613 b 658 411 783 613 686 528 l 1154 411 b 908 613 1135 536 1043 613 "},"ǽ":{"ha":1333,"x_min":0,"x_max":0,"o":"m 915 -14 b 601 146 774 -14 663 47 b 310 -14 556 64 451 -14 b 61 176 135 -14 63 68 b 308 392 60 310 171 361 b 553 511 431 419 553 435 b 376 622 553 575 493 622 b 174 458 246 622 174 553 l 174 454 l 74 454 l 74 457 b 372 708 74 611 189 708 b 635 586 501 708 596 663 b 908 708 699 661 794 708 b 1264 358 1108 708 1264 571 l 1264 314 l 653 314 b 915 82 665 176 775 82 b 1150 225 1028 82 1107 140 l 1243 179 b 915 -14 1179 58 1071 -14 m 314 75 b 558 250 447 75 536 179 b 549 342 551 279 549 310 b 551 383 549 356 550 369 b 357 313 529 350 460 335 b 169 179 243 290 169 263 b 314 75 169 121 211 75 m 908 613 b 658 411 783 613 686 528 l 1154 411 b 908 613 1135 536 1043 613 m 754 1000 l 893 1000 l 692 775 l 592 775 "},"ć":{"ha":815,"x_min":0,"x_max":0,"o":"m 524 1000 l 663 1000 l 461 775 l 361 775 m 432 -14 b 67 347 219 -14 67 147 b 431 708 67 556 226 708 b 756 501 582 708 704 624 l 658 460 b 429 611 615 556 538 611 b 175 347 283 611 175 493 b 435 83 175 201 285 83 b 664 244 550 83 625 153 l 763 203 b 432 -14 707 76 597 -14 "},"ĉ":{"ha":815,"x_min":0,"x_max":0,"o":"m 432 -14 b 67 347 219 -14 67 147 b 431 708 67 556 226 708 b 756 501 582 708 704 624 l 658 460 b 429 611 615 556 538 611 b 175 347 283 611 175 493 b 435 83 175 201 285 83 b 664 244 550 83 625 153 l 763 203 b 432 -14 707 76 597 -14 m 381 1000 l 472 1000 l 638 775 l 526 775 l 426 914 l 328 775 l 215 775 "},"č":{"ha":815,"x_min":0,"x_max":0,"o":"m 432 -14 b 67 347 219 -14 67 147 b 431 708 67 556 226 708 b 756 501 582 708 704 624 l 658 460 b 429 611 615 556 538 611 b 175 347 283 611 175 493 b 435 83 175 201 285 83 b 664 244 550 83 625 153 l 763 203 b 432 -14 707 76 597 -14 m 213 1000 l 324 1000 l 422 861 l 522 1000 l 633 1000 l 468 775 l 378 775 "},"ç":{"ha":815,"x_min":0,"x_max":0,"o":"m 442 -325 b 239 -247 354 -325 289 -294 l 324 -196 b 442 -246 358 -224 388 -246 b 536 -189 494 -246 536 -221 b 438 -139 536 -157 501 -139 l 381 -139 l 381 -10 b 67 347 194 13 67 164 b 431 708 67 556 226 708 b 756 501 582 708 704 624 l 658 460 b 429 611 615 556 538 611 b 175 347 283 611 175 493 b 435 83 175 201 285 83 b 664 244 550 83 625 153 l 763 203 b 471 -12 711 86 614 0 l 471 -72 b 636 -185 569 -72 636 -119 b 442 -325 636 -267 547 -325 "},"ċ":{"ha":815,"x_min":0,"x_max":0,"o":"m 432 -14 b 67 347 219 -14 67 147 b 431 708 67 556 226 708 b 756 501 582 708 704 624 l 658 460 b 429 611 615 556 538 611 b 175 347 283 611 175 493 b 435 83 175 201 285 83 b 664 244 550 83 625 153 l 763 203 b 432 -14 707 76 597 -14 m 375 978 l 482 978 l 482 785 l 375 785 "},"đ":{"ha":903,"x_min":0,"x_max":0,"o":"m 576 894 l 676 894 l 676 1014 l 781 1014 l 781 894 l 858 894 l 858 797 l 781 797 l 781 0 l 678 0 l 678 114 b 422 -14 618 31 511 -14 b 67 347 218 -14 67 149 b 422 708 67 546 215 708 b 676 582 511 708 617 664 l 676 797 l 576 797 m 428 83 b 688 347 576 83 688 201 b 428 611 688 492 576 611 b 175 347 286 611 175 493 b 428 83 175 201 286 83 "},"ð":{"ha":839,"x_min":0,"x_max":0,"o":"m 374 863 b 176 1014 318 910 251 960 l 342 1014 b 449 924 379 983 415 954 l 556 1014 l 674 1014 l 504 872 b 767 332 685 693 767 515 b 418 -7 767 143 617 -7 b 72 332 226 -7 72 138 b 406 672 72 526 224 672 b 601 606 501 672 558 644 b 432 811 564 672 508 739 l 333 729 l 214 729 m 421 92 b 658 332 551 92 658 200 b 421 572 658 461 554 572 b 181 332 290 572 181 464 b 421 92 181 200 290 92 "},"é":{"ha":850,"x_min":0,"x_max":0,"o":"m 432 -14 b 67 342 211 -14 67 138 b 426 708 67 550 218 708 b 782 358 626 708 782 571 l 782 313 l 171 313 b 432 82 185 175 293 82 b 667 225 544 82 624 140 l 760 179 b 432 -14 696 58 588 -14 m 426 613 b 176 411 301 613 204 528 l 672 411 b 426 613 653 536 561 613 m 524 1000 l 663 1000 l 461 775 l 361 775 "},"è":{"ha":850,"x_min":0,"x_max":0,"o":"m 432 -14 b 67 342 211 -14 67 138 b 426 708 67 550 218 708 b 782 358 626 708 782 571 l 782 313 l 171 313 b 432 82 185 175 293 82 b 667 225 544 82 624 140 l 760 179 b 432 -14 696 58 588 -14 m 426 613 b 176 411 301 613 204 528 l 672 411 b 426 613 653 536 561 613 m 186 1000 l 324 1000 l 488 775 l 388 775 "},"ê":{"ha":850,"x_min":0,"x_max":0,"o":"m 432 -14 b 67 342 211 -14 67 138 b 426 708 67 550 218 708 b 782 358 626 708 782 571 l 782 313 l 171 313 b 432 82 185 175 293 82 b 667 225 544 82 624 140 l 760 179 b 432 -14 696 58 588 -14 m 426 613 b 176 411 301 613 204 528 l 672 411 b 426 613 653 536 561 613 m 381 1000 l 472 1000 l 638 775 l 526 775 l 426 914 l 328 775 l 215 775 "},"ë":{"ha":850,"x_min":0,"x_max":0,"o":"m 432 -14 b 67 342 211 -14 67 138 b 426 708 67 550 218 708 b 782 358 626 708 782 571 l 782 313 l 171 313 b 432 82 185 175 293 82 b 667 225 544 82 624 140 l 760 179 b 432 -14 696 58 588 -14 m 426 613 b 176 411 301 613 204 528 l 672 411 b 426 613 653 536 561 613 m 286 978 l 393 978 l 393 785 l 286 785 m 472 978 l 579 978 l 579 785 l 472 785 "},"ě":{"ha":850,"x_min":0,"x_max":0,"o":"m 432 -14 b 67 342 211 -14 67 138 b 426 708 67 550 218 708 b 782 358 626 708 782 571 l 782 313 l 171 313 b 432 82 185 175 293 82 b 667 225 544 82 624 140 l 760 179 b 432 -14 696 58 588 -14 m 426 613 b 176 411 301 613 204 528 l 672 411 b 426 613 653 536 561 613 m 222 1000 l 333 1000 l 432 861 l 532 1000 l 643 1000 l 478 775 l 388 775 "},"ē":{"ha":850,"x_min":0,"x_max":0,"o":"m 432 -14 b 67 342 211 -14 67 138 b 426 708 67 550 218 708 b 782 358 626 708 782 571 l 782 313 l 171 313 b 432 82 185 175 293 82 b 667 225 544 82 624 140 l 760 179 b 432 -14 696 58 588 -14 m 426 613 b 176 411 301 613 204 528 l 672 411 b 426 613 653 536 561 613 m 249 868 l 615 868 l 615 775 l 249 775 "},"ĕ":{"ha":850,"x_min":0,"x_max":0,"o":"m 432 -14 b 67 342 211 -14 67 138 b 426 708 67 550 218 708 b 782 358 626 708 782 571 l 782 313 l 171 313 b 432 82 185 175 293 82 b 667 225 544 82 624 140 l 760 179 b 432 -14 696 58 588 -14 m 426 613 b 176 411 301 613 204 528 l 672 411 b 426 613 653 536 561 613 m 431 767 b 207 993 278 767 207 869 l 299 993 b 431 847 299 906 344 849 b 561 993 514 849 561 906 l 656 993 b 431 767 656 869 569 767 "},"ę":{"ha":850,"x_min":0,"x_max":0,"o":"m 483 -287 b 296 -147 372 -287 296 -225 b 375 -10 296 -100 317 -56 b 67 342 186 13 67 156 b 426 708 67 550 218 708 b 782 358 626 708 782 571 l 782 313 l 171 313 b 432 82 185 175 293 82 b 667 225 544 82 624 140 l 760 179 b 574 10 717 99 656 40 b 404 -142 436 -72 404 -101 b 483 -199 404 -179 439 -199 b 586 -151 529 -199 557 -176 l 671 -210 b 483 -287 624 -251 551 -287 m 426 613 b 176 411 301 613 204 528 l 672 411 b 426 613 653 536 561 613 "},"ė":{"ha":850,"x_min":0,"x_max":0,"o":"m 432 -14 b 67 342 211 -14 67 138 b 426 708 67 550 218 708 b 782 358 626 708 782 571 l 782 313 l 171 313 b 432 82 185 175 293 82 b 667 225 544 82 624 140 l 760 179 b 432 -14 696 58 588 -14 m 426 613 b 176 411 301 613 204 528 l 672 411 b 426 613 653 536 561 613 m 382 978 l 489 978 l 489 785 l 382 785 "},"ĝ":{"ha":879,"x_min":0,"x_max":0,"o":"m 422 -14 b 67 347 218 -14 67 149 b 422 708 67 546 215 708 b 678 581 511 708 618 663 l 678 694 l 785 694 l 785 13 b 442 -339 785 -199 651 -339 b 115 -147 272 -339 165 -264 l 221 -112 b 442 -244 254 -192 324 -244 b 679 10 593 -244 679 -139 l 679 115 b 422 -14 621 32 513 -14 m 428 83 b 688 347 576 83 688 201 b 428 611 688 492 576 611 b 175 347 286 611 175 493 b 428 83 175 201 286 83 m 392 1000 l 483 1000 l 649 775 l 538 775 l 438 914 l 339 775 l 226 775 "},"ğ":{"ha":879,"x_min":0,"x_max":0,"o":"m 422 -14 b 67 347 218 -14 67 149 b 422 708 67 546 215 708 b 678 581 511 708 618 663 l 678 694 l 785 694 l 785 13 b 442 -339 785 -199 651 -339 b 115 -147 272 -339 165 -264 l 221 -112 b 442 -244 254 -192 324 -244 b 679 10 593 -244 679 -139 l 679 115 b 422 -14 621 32 513 -14 m 428 83 b 688 347 576 83 688 201 b 428 611 688 492 576 611 b 175 347 286 611 175 493 b 428 83 175 201 286 83 m 438 767 b 214 993 285 767 214 869 l 306 993 b 438 847 306 906 351 849 b 568 993 521 849 568 906 l 663 993 b 438 767 663 869 576 767 "},"ġ":{"ha":879,"x_min":0,"x_max":0,"o":"m 422 -14 b 67 347 218 -14 67 149 b 422 708 67 546 215 708 b 678 581 511 708 618 663 l 678 694 l 785 694 l 785 13 b 442 -339 785 -199 651 -339 b 115 -147 272 -339 165 -264 l 221 -112 b 442 -244 254 -192 324 -244 b 679 10 593 -244 679 -139 l 679 115 b 422 -14 621 32 513 -14 m 428 83 b 688 347 576 83 688 201 b 428 611 688 492 576 611 b 175 347 286 611 175 493 b 428 83 175 201 286 83 m 369 978 l 476 978 l 476 785 l 369 785 "},"ģ":{"ha":879,"x_min":0,"x_max":0,"o":"m 422 -14 b 67 347 218 -14 67 149 b 422 708 67 546 215 708 b 678 581 511 708 618 663 l 678 694 l 785 694 l 785 13 b 442 -339 785 -199 651 -339 b 115 -147 272 -339 165 -264 l 221 -112 b 442 -244 254 -192 324 -244 b 679 10 593 -244 679 -139 l 679 115 b 422 -14 621 32 513 -14 m 428 83 b 688 347 576 83 688 201 b 428 611 688 492 576 611 b 175 347 286 611 175 493 b 428 83 175 201 286 83 m 390 764 l 447 1047 l 546 1047 l 464 764 "},"ĥ":{"ha":829,"x_min":0,"x_max":0,"o":"m 94 1014 l 200 1014 l 200 593 b 436 708 249 663 332 708 b 738 386 622 708 738 586 l 738 0 l 629 0 l 629 386 b 421 611 629 521 560 611 b 201 385 294 611 201 511 l 201 0 l 94 0 m 99 1306 l 190 1306 l 356 1081 l 244 1081 l 144 1219 l 46 1081 l -67 1081 "},"ħ":{"ha":857,"x_min":0,"x_max":0,"o":"m 49 894 l 122 894 l 122 1014 l 228 1014 l 228 894 l 331 894 l 331 797 l 228 797 l 228 593 b 464 708 276 663 360 708 b 765 386 650 708 765 586 l 765 0 l 657 0 l 657 386 b 449 611 657 521 588 611 b 229 385 322 611 229 511 l 229 0 l 122 0 l 122 797 l 49 797 "},"ı":{"ha":294,"x_min":0,"x_max":0,"o":"m 93 694 l 201 694 l 201 0 l 93 0 "},"í":{"ha":294,"x_min":0,"x_max":0,"o":"m 258 1000 l 397 1000 l 196 775 l 96 775 m 93 694 l 201 694 l 201 0 l 93 0 "},"ì":{"ha":294,"x_min":0,"x_max":0,"o":"m 93 694 l 201 694 l 201 0 l 93 0 m -97 1000 l 40 1000 l 204 775 l 104 775 "},"î":{"ha":294,"x_min":0,"x_max":0,"o":"m 93 694 l 201 694 l 201 0 l 93 0 m 99 1000 l 190 1000 l 356 775 l 244 775 l 144 914 l 46 775 l -67 775 "},"ï":{"ha":294,"x_min":0,"x_max":0,"o":"m 240 978 l 349 978 l 349 785 l 240 785 m -54 978 l 54 978 l 54 785 l -54 785 m 93 694 l 201 694 l 201 0 l 93 0 "},"ĩ":{"ha":294,"x_min":0,"x_max":0,"o":"m 93 694 l 201 694 l 201 0 l 93 0 m -92 775 b 46 942 -92 876 -35 942 b 158 904 92 942 125 924 b 246 865 189 885 217 865 b 300 938 279 865 300 889 l 386 938 b 247 769 386 835 338 769 b 121 815 194 769 156 794 b 46 846 94 831 75 846 b -6 775 14 846 -6 824 l -92 775 "},"ī":{"ha":294,"x_min":0,"x_max":0,"o":"m 93 694 l 201 694 l 201 0 l 93 0 m -37 868 l 329 868 l 329 775 l -37 775 "},"ĭ":{"ha":294,"x_min":0,"x_max":0,"o":"m 93 694 l 201 694 l 201 0 l 93 0 m 147 767 b -76 993 -6 767 -76 869 l 15 993 b 147 847 15 906 61 849 b 278 993 231 849 278 906 l 372 993 b 147 767 372 869 286 767 "},"į":{"ha":294,"x_min":0,"x_max":0,"o":"m 160 -301 b -10 -150 40 -301 -10 -228 b 93 22 -10 -87 32 -28 l 93 694 l 201 694 l 201 0 b 92 -146 126 -60 92 -101 b 160 -210 92 -183 119 -210 b 249 -174 199 -210 224 -194 l 310 -249 b 160 -301 268 -279 211 -301 m 93 1014 l 201 1014 l 201 815 l 93 815 "},"ȷ":{"ha":296,"x_min":0,"x_max":0,"o":"m -74 -215 b 93 -51 65 -215 93 -193 l 93 694 l 203 694 l 203 -53 b -57 -318 203 -260 142 -318 l -74 -318 "},"ĵ":{"ha":296,"x_min":0,"x_max":0,"o":"m -74 -215 b 93 -51 65 -215 93 -193 l 93 694 l 203 694 l 203 -53 b -57 -318 203 -260 142 -318 l -74 -318 m 99 1000 l 190 1000 l 356 775 l 244 775 l 144 914 l 46 775 l -67 775 "},"ķ":{"ha":744,"x_min":0,"x_max":0,"o":"m 340 336 l 200 193 l 200 0 l 94 0 l 94 1014 l 200 1014 l 200 317 l 569 694 l 706 694 l 418 400 l 707 0 l 582 0 m 276 -353 l 333 -69 l 432 -69 l 350 -353 "},"ĺ":{"ha":297,"x_min":0,"x_max":0,"o":"m 260 1306 l 399 1306 l 197 1081 l 97 1081 m 94 1014 l 203 1014 l 203 0 l 94 0 "},"ļ":{"ha":297,"x_min":0,"x_max":0,"o":"m 50 -353 l 107 -69 l 206 -69 l 124 -353 m 94 1014 l 203 1014 l 203 0 l 94 0 "},"ŀ":{"ha":500,"x_min":0,"x_max":0,"o":"m 94 1014 l 203 1014 l 203 0 l 94 0 m 339 474 l 446 474 l 446 281 l 339 281 "},"ł":{"ha":393,"x_min":0,"x_max":0,"o":"m 17 513 l 142 549 l 142 1014 l 251 1014 l 251 581 l 376 618 l 376 538 l 251 501 l 251 0 l 142 0 l 142 469 l 17 433 "},"ń":{"ha":826,"x_min":0,"x_max":0,"o":"m 93 694 l 199 694 l 199 592 b 435 708 247 663 331 708 b 736 386 621 708 736 586 l 736 0 l 628 0 l 628 386 b 419 611 628 521 558 611 b 200 385 293 611 200 511 l 200 0 l 93 0 m 518 1000 l 657 1000 l 456 775 l 356 775 "},"ñ":{"ha":826,"x_min":0,"x_max":0,"o":"m 93 694 l 199 694 l 199 592 b 435 708 247 663 331 708 b 736 386 621 708 736 586 l 736 0 l 628 0 l 628 386 b 419 611 628 521 558 611 b 200 385 293 611 200 511 l 200 0 l 93 0 m 161 775 b 299 942 161 876 218 942 b 411 904 344 942 378 924 b 499 865 442 885 469 865 b 553 938 532 865 553 889 l 639 938 b 500 769 639 835 590 769 b 374 815 447 769 408 794 b 299 846 347 831 328 846 b 247 775 267 846 247 824 l 161 775 "},"ň":{"ha":826,"x_min":0,"x_max":0,"o":"m 93 694 l 199 694 l 199 592 b 435 708 247 663 331 708 b 736 386 621 708 736 586 l 736 0 l 628 0 l 628 386 b 419 611 628 521 558 611 b 200 385 293 611 200 511 l 200 0 l 93 0 m 197 1000 l 308 1000 l 407 861 l 507 1000 l 618 1000 l 453 775 l 363 775 "},"ņ":{"ha":826,"x_min":0,"x_max":0,"o":"m 93 694 l 199 694 l 199 592 b 435 708 247 663 331 708 b 736 386 621 708 736 586 l 736 0 l 628 0 l 628 386 b 419 611 628 521 558 611 b 200 385 293 611 200 511 l 200 0 l 93 0 m 324 -353 l 381 -69 l 479 -69 l 397 -353 "},"ó":{"ha":854,"x_min":0,"x_max":0,"o":"m 524 1000 l 663 1000 l 461 775 l 361 775 m 426 -14 b 67 347 226 -14 67 143 b 426 708 67 551 226 708 b 788 347 626 708 788 551 b 426 -14 788 143 626 -14 m 426 83 b 679 347 568 83 679 201 b 426 611 679 493 568 611 b 175 347 285 611 175 493 b 426 83 175 201 285 83 "},"ò":{"ha":854,"x_min":0,"x_max":0,"o":"m 426 -14 b 67 347 226 -14 67 143 b 426 708 67 551 226 708 b 788 347 626 708 788 551 b 426 -14 788 143 626 -14 m 426 83 b 679 347 568 83 679 201 b 426 611 679 493 568 611 b 175 347 285 611 175 493 b 426 83 175 201 285 83 m 182 1000 l 319 1000 l 483 775 l 383 775 "},"ô":{"ha":854,"x_min":0,"x_max":0,"o":"m 426 -14 b 67 347 226 -14 67 143 b 426 708 67 551 226 708 b 788 347 626 708 788 551 b 426 -14 788 143 626 -14 m 426 83 b 679 347 568 83 679 201 b 426 611 679 493 568 611 b 175 347 285 611 175 493 b 426 83 175 201 285 83 m 381 1000 l 472 1000 l 638 775 l 526 775 l 426 914 l 328 775 l 215 775 "},"ö":{"ha":854,"x_min":0,"x_max":0,"o":"m 472 978 l 579 978 l 579 785 l 472 785 m 286 978 l 393 978 l 393 785 l 286 785 m 426 -14 b 67 347 226 -14 67 143 b 426 708 67 551 226 708 b 788 347 626 708 788 551 b 426 -14 788 143 626 -14 m 426 83 b 679 347 568 83 679 201 b 426 611 679 493 568 611 b 175 347 285 611 175 493 b 426 83 175 201 285 83 "},"õ":{"ha":854,"x_min":0,"x_max":0,"o":"m 426 -14 b 67 347 226 -14 67 143 b 426 708 67 551 226 708 b 788 347 626 708 788 551 b 426 -14 788 143 626 -14 m 426 83 b 679 347 568 83 679 201 b 426 611 679 493 568 611 b 175 347 285 611 175 493 b 426 83 175 201 285 83 m 192 775 b 329 942 192 876 249 942 b 442 904 375 942 408 924 b 529 865 472 885 500 865 b 583 938 563 865 583 889 l 669 938 b 531 769 669 835 621 769 b 404 815 478 769 439 794 b 329 846 378 831 358 846 b 278 775 297 846 278 824 l 192 775 "},"ŏ":{"ha":854,"x_min":0,"x_max":0,"o":"m 426 -14 b 67 347 226 -14 67 143 b 426 708 67 551 226 708 b 788 347 626 708 788 551 b 426 -14 788 143 626 -14 m 426 83 b 679 347 568 83 679 201 b 426 611 679 493 568 611 b 175 347 285 611 175 493 b 426 83 175 201 285 83 m 428 767 b 204 993 275 767 204 869 l 296 993 b 428 847 296 906 342 849 b 558 993 511 849 558 906 l 653 993 b 428 767 653 869 567 767 "},"ō":{"ha":854,"x_min":0,"x_max":0,"o":"m 246 868 l 613 868 l 613 775 l 246 775 m 426 -14 b 67 347 226 -14 67 143 b 426 708 67 551 226 708 b 788 347 626 708 788 551 b 426 -14 788 143 626 -14 m 426 83 b 679 347 568 83 679 201 b 426 611 679 493 568 611 b 175 347 285 611 175 493 b 426 83 175 201 285 83 "},"ő":{"ha":854,"x_min":0,"x_max":0,"o":"m 442 1000 l 572 1000 l 371 775 l 279 775 m 640 1000 l 771 1000 l 569 775 l 476 775 m 426 -14 b 67 347 226 -14 67 143 b 426 708 67 551 226 708 b 788 347 626 708 788 551 b 426 -14 788 143 626 -14 m 426 83 b 679 347 568 83 679 201 b 426 611 679 493 568 611 b 175 347 285 611 175 493 b 426 83 175 201 285 83 "},"ø":{"ha":854,"x_min":0,"x_max":0,"o":"m 426 -14 b 243 35 358 -14 296 3 l 217 0 l 103 0 l 171 90 b 67 347 106 154 67 244 b 426 708 67 551 226 708 b 608 660 493 708 554 690 l 635 694 l 750 694 l 681 604 b 788 347 747 540 788 450 b 426 -14 788 143 626 -14 m 426 83 b 679 347 568 83 679 201 b 617 521 679 414 656 474 l 304 115 b 426 83 340 94 382 83 m 175 347 b 236 174 175 281 197 221 l 547 579 b 426 611 511 600 469 611 b 175 347 285 611 175 493 "},"ǿ":{"ha":854,"x_min":0,"x_max":0,"o":"m 426 -14 b 243 35 358 -14 296 3 l 217 0 l 103 0 l 171 90 b 67 347 106 154 67 244 b 426 708 67 551 226 708 b 608 660 493 708 554 690 l 635 694 l 750 694 l 681 604 b 788 347 747 540 788 450 b 426 -14 788 143 626 -14 m 426 83 b 679 347 568 83 679 201 b 617 521 679 414 656 474 l 304 115 b 426 83 340 94 382 83 m 175 347 b 236 174 175 281 197 221 l 547 579 b 426 611 511 600 469 611 b 175 347 285 611 175 493 m 524 1000 l 663 1000 l 461 775 l 361 775 "},"œ":{"ha":1468,"x_min":0,"x_max":0,"o":"m 426 -14 b 67 347 226 -14 67 143 b 426 708 67 551 226 708 b 735 539 557 708 671 642 b 1043 708 796 642 907 708 b 1399 358 1243 708 1399 571 l 1399 314 l 788 314 b 1050 82 800 176 910 82 b 1285 225 1163 82 1242 140 l 1378 179 b 1050 -14 1314 58 1206 -14 b 732 153 906 -14 792 50 b 426 -14 668 51 554 -14 m 426 83 b 679 347 568 83 679 201 b 426 611 679 493 568 611 b 175 347 285 611 175 493 b 426 83 175 201 285 83 m 1043 613 b 793 411 918 613 821 528 l 1289 411 b 1043 613 1269 536 1178 613 "},"þ":{"ha":876,"x_min":0,"x_max":0,"o":"m 453 -14 b 197 104 344 -14 254 36 l 197 -319 l 94 -319 l 94 1014 l 197 1014 l 197 585 b 456 708 257 656 351 708 b 810 350 663 708 810 550 b 453 -14 810 150 660 -14 m 449 83 b 703 350 599 83 703 208 b 451 611 703 492 601 611 b 192 347 306 611 192 493 b 449 83 192 206 307 83 "},"ŕ":{"ha":540,"x_min":0,"x_max":0,"o":"m 93 694 l 200 694 l 200 594 b 393 694 238 658 304 694 l 479 694 l 479 594 l 393 594 b 201 360 253 594 201 521 l 201 0 l 93 0 m 404 1000 l 543 1000 l 342 775 l 242 775 "},"ř":{"ha":540,"x_min":0,"x_max":0,"o":"m 93 694 l 200 694 l 200 594 b 393 694 238 658 304 694 l 479 694 l 479 594 l 393 594 b 201 360 253 594 201 521 l 201 0 l 93 0 m 74 1000 l 185 1000 l 283 861 l 383 1000 l 494 1000 l 329 775 l 239 775 "},"ŗ":{"ha":540,"x_min":0,"x_max":0,"o":"m 93 694 l 200 694 l 200 594 b 393 694 238 658 304 694 l 479 694 l 479 594 l 393 594 b 201 360 253 594 201 521 l 201 0 l 93 0 m 47 -353 l 104 -69 l 203 -69 l 121 -353 "},"ś":{"ha":660,"x_min":0,"x_max":0,"o":"m 425 1000 l 564 1000 l 363 775 l 263 775 m 326 -14 b 36 119 206 -14 104 36 l 121 189 b 331 81 172 125 242 81 b 488 200 435 81 488 136 b 300 310 488 274 396 288 b 69 508 189 336 69 372 b 322 710 69 611 167 710 b 586 603 425 710 526 672 l 507 536 b 322 618 460 589 400 618 b 175 510 226 618 175 568 b 357 400 175 439 263 422 b 593 200 469 374 593 339 b 326 -14 593 111 519 -14 "},"ŝ":{"ha":660,"x_min":0,"x_max":0,"o":"m 326 -14 b 36 119 206 -14 104 36 l 121 189 b 331 81 172 125 242 81 b 488 200 435 81 488 136 b 300 310 488 274 396 288 b 69 508 189 336 69 372 b 322 710 69 611 167 710 b 586 603 425 710 526 672 l 507 536 b 322 618 460 589 400 618 b 175 510 226 618 175 568 b 357 400 175 439 263 422 b 593 200 469 374 593 339 b 326 -14 593 111 519 -14 m 278 1000 l 369 1000 l 535 775 l 424 775 l 324 914 l 225 775 l 113 775 "},"š":{"ha":660,"x_min":0,"x_max":0,"o":"m 326 -14 b 36 119 206 -14 104 36 l 121 189 b 331 81 172 125 242 81 b 488 200 435 81 488 136 b 300 310 488 274 396 288 b 69 508 189 336 69 372 b 322 710 69 611 167 710 b 586 603 425 710 526 672 l 507 536 b 322 618 460 589 400 618 b 175 510 226 618 175 568 b 357 400 175 439 263 422 b 593 200 469 374 593 339 b 326 -14 593 111 519 -14 m 110 1000 l 221 1000 l 319 861 l 419 1000 l 531 1000 l 365 775 l 275 775 "},"ş":{"ha":660,"x_min":0,"x_max":0,"o":"m 333 -325 b 131 -247 246 -325 181 -294 l 215 -196 b 333 -246 250 -224 279 -246 b 428 -189 386 -246 428 -221 b 329 -139 428 -157 393 -139 l 272 -139 l 272 -10 b 36 119 175 1 93 49 l 121 189 b 331 81 172 125 242 81 b 488 200 435 81 488 136 b 300 310 488 274 396 288 b 69 508 189 336 69 372 b 322 710 69 611 167 710 b 586 603 425 710 526 672 l 507 536 b 322 618 460 589 400 618 b 175 510 226 618 175 568 b 357 400 175 439 263 422 b 593 200 469 374 593 339 b 363 -12 593 117 528 1 l 363 -72 b 528 -185 461 -72 528 -119 b 333 -325 528 -267 439 -325 "},"ș":{"ha":660,"x_min":0,"x_max":0,"o":"m 224 -360 l 281 -76 l 379 -76 l 297 -360 m 326 -14 b 36 119 206 -14 104 36 l 121 189 b 331 81 172 125 242 81 b 488 200 435 81 488 136 b 300 310 488 274 396 288 b 69 508 189 336 69 372 b 322 710 69 611 167 710 b 586 603 425 710 526 672 l 507 536 b 322 618 460 589 400 618 b 175 510 226 618 175 568 b 357 400 175 439 263 422 b 593 200 469 374 593 339 b 326 -14 593 111 519 -14 "},"ß":{"ha":767,"x_min":0,"x_max":0,"o":"m -65 -217 b 93 -49 61 -217 93 -169 l 93 738 b 375 1019 90 903 200 1019 b 654 751 539 1019 654 904 b 528 536 654 658 608 579 b 701 283 631 493 701 404 b 407 -11 701 114 589 -11 b 271 17 350 -11 304 -1 l 271 119 b 407 88 307 99 349 88 b 592 282 508 88 592 174 b 372 476 592 389 506 476 l 346 476 l 346 576 l 372 576 b 547 753 468 576 547 650 b 374 928 547 847 476 928 b 196 749 274 928 196 861 l 196 -47 b -47 -318 196 -240 133 -318 l -65 -318 "},"ţ":{"ha":504,"x_min":0,"x_max":0,"o":"m 47 694 l 167 694 l 167 858 l 275 918 l 275 694 l 439 694 l 439 597 l 275 597 l 275 267 b 439 101 275 125 301 101 l 439 0 l 424 0 b 167 265 221 0 167 58 l 167 597 l 47 597 m 181 -353 l 238 -69 l 336 -69 l 254 -353 "},"ú":{"ha":826,"x_min":0,"x_max":0,"o":"m 397 -14 b 90 308 194 -14 90 108 l 90 694 l 199 694 l 199 308 b 407 83 199 174 268 83 b 626 310 533 83 626 183 l 626 694 l 733 694 l 733 0 l 628 0 l 628 103 b 397 -14 579 32 497 -14 m 506 1000 l 644 1000 l 443 775 l 343 775 "},"ù":{"ha":826,"x_min":0,"x_max":0,"o":"m 397 -14 b 90 308 194 -14 90 108 l 90 694 l 199 694 l 199 308 b 407 83 199 174 268 83 b 626 310 533 83 626 183 l 626 694 l 733 694 l 733 0 l 628 0 l 628 103 b 397 -14 579 32 497 -14 m 168 1000 l 306 1000 l 469 775 l 369 775 "},"û":{"ha":826,"x_min":0,"x_max":0,"o":"m 397 -14 b 90 308 194 -14 90 108 l 90 694 l 199 694 l 199 308 b 407 83 199 174 268 83 b 626 310 533 83 626 183 l 626 694 l 733 694 l 733 0 l 628 0 l 628 103 b 397 -14 579 32 497 -14 m 360 1000 l 451 1000 l 617 775 l 506 775 l 406 914 l 307 775 l 194 775 "},"ü":{"ha":826,"x_min":0,"x_max":0,"o":"m 397 -14 b 90 308 194 -14 90 108 l 90 694 l 199 694 l 199 308 b 407 83 199 174 268 83 b 626 310 533 83 626 183 l 626 694 l 733 694 l 733 0 l 628 0 l 628 103 b 397 -14 579 32 497 -14 m 265 978 l 372 978 l 372 785 l 265 785 m 451 978 l 558 978 l 558 785 l 451 785 "},"ũ":{"ha":826,"x_min":0,"x_max":0,"o":"m 397 -14 b 90 308 194 -14 90 108 l 90 694 l 199 694 l 199 308 b 407 83 199 174 268 83 b 626 310 533 83 626 183 l 626 694 l 733 694 l 733 0 l 628 0 l 628 103 b 397 -14 579 32 497 -14 m 168 775 b 306 942 168 876 225 942 b 418 904 351 942 385 924 b 506 865 449 885 476 865 b 560 938 539 865 560 889 l 646 938 b 507 769 646 835 597 769 b 381 815 454 769 415 794 b 306 846 354 831 335 846 b 254 775 274 846 254 824 l 168 775 "},"ů":{"ha":826,"x_min":0,"x_max":0,"o":"m 397 -14 b 90 308 194 -14 90 108 l 90 694 l 199 694 l 199 308 b 407 83 199 174 268 83 b 626 310 533 83 626 183 l 626 694 l 733 694 l 733 0 l 628 0 l 628 103 b 397 -14 579 32 497 -14 m 407 769 b 260 918 326 769 260 836 b 407 1068 260 1003 326 1068 b 558 918 492 1068 558 1003 b 407 769 558 836 492 769 m 407 853 b 475 918 444 853 475 882 b 407 986 475 954 444 986 b 342 918 372 986 342 954 b 407 853 342 882 372 853 "},"ŭ":{"ha":826,"x_min":0,"x_max":0,"o":"m 397 -14 b 90 308 194 -14 90 108 l 90 694 l 199 694 l 199 308 b 407 83 199 174 268 83 b 626 310 533 83 626 183 l 626 694 l 733 694 l 733 0 l 628 0 l 628 103 b 397 -14 579 32 497 -14 m 406 767 b 182 993 253 767 182 869 l 274 993 b 406 847 274 906 319 849 b 536 993 489 849 536 906 l 631 993 b 406 767 631 869 544 767 "},"ū":{"ha":826,"x_min":0,"x_max":0,"o":"m 397 -14 b 90 308 194 -14 90 108 l 90 694 l 199 694 l 199 308 b 407 83 199 174 268 83 b 626 310 533 83 626 183 l 626 694 l 733 694 l 733 0 l 628 0 l 628 103 b 397 -14 579 32 497 -14 m 225 868 l 592 868 l 592 775 l 225 775 "},"ű":{"ha":826,"x_min":0,"x_max":0,"o":"m 397 -14 b 90 308 194 -14 90 108 l 90 694 l 199 694 l 199 308 b 407 83 199 174 268 83 b 626 310 533 83 626 183 l 626 694 l 733 694 l 733 0 l 628 0 l 628 103 b 397 -14 579 32 497 -14 m 614 1000 l 744 1000 l 543 775 l 450 775 m 415 1000 l 546 1000 l 344 775 l 253 775 "},"ų":{"ha":826,"x_min":0,"x_max":0,"o":"m 397 -14 b 90 308 194 -14 90 108 l 90 694 l 199 694 l 199 308 b 407 83 199 174 268 83 b 626 310 533 83 626 183 l 626 694 l 733 694 l 733 0 b 624 -146 658 -60 624 -101 b 692 -210 624 -183 651 -210 b 781 -174 731 -210 756 -194 l 842 -249 b 692 -301 800 -279 743 -301 b 522 -150 572 -301 522 -228 b 628 24 522 -86 565 -26 l 628 103 b 397 -14 579 32 497 -14 "},"ẃ":{"ha":1200,"x_min":0,"x_max":0,"o":"m 50 694 l 164 694 l 339 153 l 544 694 l 649 694 l 860 150 l 1038 694 l 1150 694 l 915 0 l 811 0 l 596 546 l 386 0 l 279 0 m 710 1000 l 849 1000 l 647 775 l 547 775 "},"ẁ":{"ha":1200,"x_min":0,"x_max":0,"o":"m 50 694 l 164 694 l 339 153 l 544 694 l 649 694 l 860 150 l 1038 694 l 1150 694 l 915 0 l 811 0 l 596 546 l 386 0 l 279 0 m 347 1000 l 485 1000 l 649 775 l 549 775 "},"ŵ":{"ha":1200,"x_min":0,"x_max":0,"o":"m 50 694 l 164 694 l 339 153 l 544 694 l 649 694 l 860 150 l 1038 694 l 1150 694 l 915 0 l 811 0 l 596 546 l 386 0 l 279 0 m 554 1000 l 646 1000 l 811 775 l 700 775 l 600 914 l 501 775 l 389 775 "},"ẅ":{"ha":1200,"x_min":0,"x_max":0,"o":"m 50 694 l 164 694 l 339 153 l 544 694 l 649 694 l 860 150 l 1038 694 l 1150 694 l 915 0 l 811 0 l 596 546 l 386 0 l 279 0 m 458 978 l 565 978 l 565 785 l 458 785 m 644 978 l 751 978 l 751 785 l 644 785 "},"ý":{"ha":778,"x_min":0,"x_max":0,"o":"m 342 40 l 42 694 l 160 694 l 399 164 l 619 694 l 736 694 l 299 -321 l 185 -321 m 488 1000 l 626 1000 l 425 775 l 325 775 "},"ỳ":{"ha":778,"x_min":0,"x_max":0,"o":"m 342 40 l 42 694 l 160 694 l 399 164 l 619 694 l 736 694 l 299 -321 l 185 -321 m 139 1000 l 276 1000 l 440 775 l 340 775 "},"ŷ":{"ha":778,"x_min":0,"x_max":0,"o":"m 342 40 l 42 694 l 160 694 l 399 164 l 619 694 l 736 694 l 299 -321 l 185 -321 m 339 1000 l 431 1000 l 596 775 l 485 775 l 385 914 l 286 775 l 174 775 "},"ÿ":{"ha":778,"x_min":0,"x_max":0,"o":"m 342 40 l 42 694 l 160 694 l 399 164 l 619 694 l 736 694 l 299 -321 l 185 -321 m 246 978 l 353 978 l 353 785 l 246 785 m 432 978 l 539 978 l 539 785 l 432 785 "},"ź":{"ha":742,"x_min":0,"x_max":0,"o":"m 69 103 l 536 594 l 82 594 l 82 694 l 668 694 l 668 592 l 200 99 l 672 99 l 672 0 l 69 0 m 478 1000 l 617 1000 l 415 775 l 315 775 "},"ž":{"ha":742,"x_min":0,"x_max":0,"o":"m 69 103 l 536 594 l 82 594 l 82 694 l 668 694 l 668 592 l 200 99 l 672 99 l 672 0 l 69 0 m 169 1000 l 281 1000 l 379 861 l 479 1000 l 590 1000 l 425 775 l 335 775 "},"ż":{"ha":742,"x_min":0,"x_max":0,"o":"m 69 103 l 536 594 l 82 594 l 82 694 l 668 694 l 668 592 l 200 99 l 672 99 l 672 0 l 69 0 m 328 978 l 435 978 l 435 785 l 328 785 "},"":{"ha":760,"x_min":0,"x_max":0,"o":"m 294 -14 b 63 168 139 -14 63 68 b 351 400 63 294 149 358 b 557 511 457 422 557 440 b 383 621 557 575 515 621 b 199 483 253 621 199 569 l 199 479 l 92 479 l 92 482 b 381 708 92 628 197 708 b 668 476 588 708 668 607 l 668 0 l 565 0 l 565 103 b 294 -14 497 31 413 -14 m 294 76 b 567 238 399 76 490 125 l 567 374 b 353 306 535 346 435 322 b 169 176 231 279 169 250 b 294 76 169 117 215 76 m 483 1000 l 622 1000 l 421 775 l 321 775 "},"":{"ha":760,"x_min":0,"x_max":0,"o":"m 294 -14 b 63 168 139 -14 63 68 b 351 400 63 294 149 358 b 557 511 457 422 557 440 b 383 621 557 575 515 621 b 199 483 253 621 199 569 l 199 479 l 92 479 l 92 482 b 381 708 92 628 197 708 b 668 476 588 708 668 607 l 668 0 l 565 0 l 565 103 b 294 -14 497 31 413 -14 m 294 76 b 567 238 399 76 490 125 l 567 374 b 353 306 535 346 435 322 b 169 176 231 279 169 250 b 294 76 169 117 215 76 m 129 1000 l 267 1000 l 431 775 l 331 775 "},"":{"ha":760,"x_min":0,"x_max":0,"o":"m 294 -14 b 63 168 139 -14 63 68 b 351 400 63 294 149 358 b 557 511 457 422 557 440 b 383 621 557 575 515 621 b 199 483 253 621 199 569 l 199 479 l 92 479 l 92 482 b 381 708 92 628 197 708 b 668 476 588 708 668 607 l 668 0 l 565 0 l 565 103 b 294 -14 497 31 413 -14 m 294 76 b 567 238 399 76 490 125 l 567 374 b 353 306 535 346 435 322 b 169 176 231 279 169 250 b 294 76 169 117 215 76 m 329 1000 l 421 1000 l 586 775 l 475 775 l 375 914 l 276 775 l 164 775 "},"":{"ha":760,"x_min":0,"x_max":0,"o":"m 294 -14 b 63 168 139 -14 63 68 b 351 400 63 294 149 358 b 557 511 457 422 557 440 b 383 621 557 575 515 621 b 199 483 253 621 199 569 l 199 479 l 92 479 l 92 482 b 381 708 92 628 197 708 b 668 476 588 708 668 607 l 668 0 l 565 0 l 565 103 b 294 -14 497 31 413 -14 m 294 76 b 567 238 399 76 490 125 l 567 374 b 353 306 535 346 435 322 b 169 176 231 279 169 250 b 294 76 169 117 215 76 m 228 978 l 335 978 l 335 785 l 228 785 m 414 978 l 521 978 l 521 785 l 414 785 "},"":{"ha":758,"x_min":0,"x_max":0,"o":"m 293 -14 b 61 168 138 -14 61 68 b 350 400 61 294 147 358 b 556 511 456 422 556 440 b 382 621 556 575 514 621 b 197 483 251 621 197 569 l 197 479 l 90 479 l 90 482 b 379 708 90 628 196 708 b 667 476 586 708 667 607 l 667 0 l 564 0 l 564 103 b 293 -14 496 31 411 -14 m 293 76 b 565 238 397 76 489 125 l 565 374 b 351 306 533 346 433 322 b 168 176 229 279 168 250 b 293 76 168 117 214 76 m 149 775 b 286 942 149 876 206 942 b 399 904 332 942 365 924 b 486 865 429 885 457 865 b 540 938 519 865 540 889 l 626 938 b 488 769 626 835 578 769 b 361 815 435 769 396 794 b 286 846 335 831 315 846 b 235 775 254 846 235 824 l 149 775 "},"":{"ha":758,"x_min":0,"x_max":0,"o":"m 293 -14 b 61 168 138 -14 61 68 b 350 400 61 294 147 358 b 556 511 456 422 556 440 b 382 621 556 575 514 621 b 197 483 251 621 197 569 l 197 479 l 90 479 l 90 482 b 379 708 90 628 196 708 b 667 476 586 708 667 607 l 667 0 l 564 0 l 564 103 b 293 -14 496 31 411 -14 m 293 76 b 565 238 397 76 489 125 l 565 374 b 351 306 533 346 433 322 b 168 176 229 279 168 250 b 293 76 168 117 214 76 m 371 765 b 224 914 290 765 224 832 b 371 1064 224 999 290 1064 b 522 914 456 1064 522 999 b 371 765 522 832 456 765 m 371 849 b 439 914 408 849 439 878 b 371 982 439 950 408 982 b 306 914 336 982 306 950 b 371 849 306 878 336 849 "},"":{"ha":760,"x_min":0,"x_max":0,"o":"m 294 -14 b 63 168 139 -14 63 68 b 351 400 63 294 149 358 b 557 511 457 422 557 440 b 383 621 557 575 515 621 b 199 483 253 621 199 569 l 199 479 l 92 479 l 92 482 b 381 708 92 628 197 708 b 668 476 588 708 668 607 l 668 0 l 565 0 l 565 103 b 294 -14 497 31 413 -14 m 294 76 b 567 238 399 76 490 125 l 567 374 b 353 306 535 346 435 322 b 169 176 231 279 169 250 b 294 76 169 117 215 76 m 201 868 l 568 868 l 568 775 l 201 775 "},"":{"ha":760,"x_min":0,"x_max":0,"o":"m 294 -14 b 63 168 139 -14 63 68 b 351 400 63 294 149 358 b 557 511 457 422 557 440 b 383 621 557 575 515 621 b 199 483 253 621 199 569 l 199 479 l 92 479 l 92 482 b 381 708 92 628 197 708 b 668 476 588 708 668 607 l 668 0 l 565 0 l 565 103 b 294 -14 497 31 413 -14 m 294 76 b 567 238 399 76 490 125 l 567 374 b 353 306 535 346 435 322 b 169 176 231 279 169 250 b 294 76 169 117 215 76 m 378 767 b 154 993 225 767 154 869 l 246 993 b 378 847 246 906 292 849 b 508 993 461 849 508 906 l 603 993 b 378 767 603 869 517 767 "},"":{"ha":760,"x_min":0,"x_max":0,"o":"m 626 -301 b 457 -150 507 -301 457 -228 b 565 26 457 -85 501 -24 l 565 103 b 294 -14 497 31 413 -14 b 63 168 139 -14 63 68 b 351 400 63 294 149 358 b 557 511 457 422 557 440 b 383 621 557 575 515 621 b 199 483 253 621 199 569 l 199 479 l 92 479 l 92 482 b 381 708 92 628 197 708 b 668 476 588 708 668 607 l 668 0 b 558 -146 593 -60 558 -101 b 626 -210 558 -183 586 -210 b 715 -174 665 -210 690 -194 l 776 -249 b 626 -301 735 -279 678 -301 m 294 76 b 567 238 399 76 490 125 l 567 374 b 353 306 535 346 435 322 b 169 176 231 279 169 250 b 294 76 169 117 215 76 "},"":{"ha":760,"x_min":0,"x_max":0,"o":"m 294 -14 b 63 168 139 -14 63 68 b 351 400 63 294 149 358 b 557 511 457 422 557 440 b 383 621 557 575 515 621 b 199 483 253 621 199 569 l 199 479 l 92 479 l 92 482 b 381 708 92 628 197 708 b 668 476 588 708 668 607 l 668 0 l 565 0 l 565 103 b 294 -14 497 31 413 -14 m 294 76 b 567 238 399 76 490 125 l 567 374 b 353 306 535 346 435 322 b 169 176 231 279 169 250 b 294 76 169 117 215 76 m 378 769 b 231 918 297 769 231 836 b 378 1068 231 1003 297 1068 b 529 918 463 1068 529 1003 b 378 769 529 836 463 769 m 488 1333 l 626 1333 l 425 1108 l 325 1108 m 378 853 b 446 918 415 853 446 882 b 378 986 446 954 415 986 b 313 918 343 986 313 954 b 378 853 313 882 343 853 "},"":{"ha":807,"x_min":0,"x_max":0,"o":"m 397 -362 b 72 -172 156 -362 72 -283 b 146 -47 72 -114 101 -74 b 65 78 92 -24 65 19 b 189 219 65 154 115 201 b 90 429 128 267 90 342 b 369 708 90 585 215 708 b 601 578 472 708 556 657 b 746 683 617 651 665 683 l 767 683 l 767 565 l 743 565 b 650 429 685 565 650 551 b 376 149 650 272 532 149 l 282 149 b 164 83 199 149 164 118 b 276 22 164 44 194 22 l 486 22 b 743 -154 649 22 743 -40 b 397 -362 743 -276 626 -362 m 368 243 b 551 429 469 243 551 325 b 368 613 551 531 469 613 b 189 429 271 613 189 531 b 368 243 189 328 271 243 m 310 -71 b 169 -167 225 -71 169 -108 b 375 -268 169 -224 213 -268 l 424 -268 b 644 -158 581 -268 644 -215 b 482 -71 644 -99 593 -71 m 313 1000 l 404 1000 l 569 775 l 458 775 l 358 914 l 260 775 l 147 775 "},"":{"ha":807,"x_min":0,"x_max":0,"o":"m 397 -362 b 72 -172 156 -362 72 -283 b 146 -47 72 -114 101 -74 b 65 78 92 -24 65 19 b 189 219 65 154 115 201 b 90 429 128 267 90 342 b 369 708 90 585 215 708 b 601 578 472 708 556 657 b 746 683 617 651 665 683 l 767 683 l 767 565 l 743 565 b 650 429 685 565 650 551 b 376 149 650 272 532 149 l 282 149 b 164 83 199 149 164 118 b 276 22 164 44 194 22 l 486 22 b 743 -154 649 22 743 -40 b 397 -362 743 -276 626 -362 m 368 243 b 551 429 469 243 551 325 b 368 613 551 531 469 613 b 189 429 271 613 189 531 b 368 243 189 328 271 243 m 317 -71 b 169 -167 228 -69 169 -107 b 375 -268 169 -224 213 -268 l 424 -268 b 644 -158 581 -268 644 -215 b 482 -71 644 -99 593 -71 m 371 767 b 147 993 218 767 147 869 l 239 993 b 371 847 239 906 285 849 b 501 993 454 849 501 906 l 596 993 b 371 767 596 869 510 767 "},"":{"ha":807,"x_min":0,"x_max":0,"o":"m 397 -362 b 72 -172 156 -362 72 -283 b 146 -47 72 -114 101 -74 b 65 78 92 -24 65 19 b 189 219 65 154 115 201 b 90 429 128 267 90 342 b 369 708 90 585 215 708 b 601 578 472 708 556 657 b 746 683 617 651 665 683 l 767 683 l 767 565 l 743 565 b 650 429 685 565 650 551 b 376 149 650 272 532 149 l 282 149 b 164 83 199 149 164 118 b 276 22 164 44 194 22 l 486 22 b 743 -154 649 22 743 -40 b 397 -362 743 -276 626 -362 m 368 243 b 551 429 469 243 551 325 b 368 613 551 531 469 613 b 189 429 271 613 189 531 b 368 243 189 328 271 243 m 297 -71 b 169 -167 219 -75 169 -111 b 375 -268 169 -224 213 -268 l 424 -268 b 644 -158 581 -268 644 -215 b 482 -71 644 -99 593 -71 m 322 978 l 429 978 l 429 785 l 322 785 "},"":{"ha":807,"x_min":0,"x_max":0,"o":"m 397 -362 b 72 -172 156 -362 72 -283 b 146 -47 72 -114 101 -74 b 65 78 92 -24 65 19 b 189 219 65 154 115 201 b 90 429 128 267 90 342 b 369 708 90 585 215 708 b 601 578 472 708 556 657 b 746 683 617 651 665 683 l 767 683 l 767 565 l 743 565 b 650 429 685 565 650 551 b 376 149 650 272 532 149 l 282 149 b 164 83 199 149 164 118 b 276 22 164 44 194 22 l 486 22 b 743 -154 649 22 743 -40 b 397 -362 743 -276 626 -362 m 368 243 b 551 429 469 243 551 325 b 368 613 551 531 469 613 b 189 429 271 613 189 531 b 368 243 189 328 271 243 m 310 -71 b 169 -167 225 -71 169 -108 b 375 -268 169 -224 213 -268 l 424 -268 b 644 -158 581 -268 644 -215 b 482 -71 644 -99 593 -71 m 338 783 l 394 1067 l 493 1067 l 411 783 "}," ":{"ha":347,"x_min":0,"x_max":0,"o":""},"-":{"ha":657,"x_min":0,"x_max":0,"o":"m 72 394 l 586 394 l 586 300 l 72 300 "},"·":{"ha":281,"x_min":0,"x_max":0,"o":"m 86 442 l 194 442 l 194 251 l 86 251 "},"«":{"ha":644,"x_min":0,"x_max":0,"o":"m 90 315 l 90 379 l 315 540 l 315 461 l 157 346 l 315 232 l 315 154 m 329 315 l 329 379 l 554 540 l 554 461 l 396 346 l 554 232 l 554 154 "},"»":{"ha":644,"x_min":0,"x_max":0,"o":"m 329 233 l 489 347 l 329 463 l 329 542 l 554 381 l 554 317 l 329 156 m 90 233 l 250 347 l 90 463 l 90 542 l 315 381 l 315 317 l 90 156 "},"‹":{"ha":406,"x_min":0,"x_max":0,"o":"m 96 313 l 96 382 l 311 547 l 311 461 l 160 347 l 311 233 l 311 147 "},"›":{"ha":406,"x_min":0,"x_max":0,"o":"m 96 233 l 246 347 l 96 463 l 96 549 l 311 383 l 311 314 l 96 149 "},"•":{"ha":465,"x_min":0,"x_max":0,"o":"m 233 246 b 132 347 178 246 132 292 b 233 449 132 403 178 449 b 335 347 289 449 335 403 b 233 246 335 292 289 246 "},"|":{"ha":279,"x_min":0,"x_max":0,"o":"m 86 1014 l 194 1014 l 194 -319 l 86 -319 "},"¦":{"ha":336,"x_min":0,"x_max":0,"o":"m 86 1014 l 194 1014 l 194 431 l 86 431 m 86 264 l 194 264 l 194 -319 l 86 -319 "},"(":{"ha":599,"x_min":0,"x_max":0,"o":"m 453 -343 b 68 347 242 -196 68 17 b 450 1039 68 679 243 886 l 525 954 b 183 349 326 815 183 632 b 526 -258 183 64 325 -121 l 453 -343 "},")":{"ha":599,"x_min":0,"x_max":0,"o":"m 415 347 b 74 953 415 631 272 814 l 149 1038 b 531 346 356 885 531 678 b 146 -344 531 15 357 -197 l 72 -260 b 415 347 274 -122 415 63 "},"[":{"ha":522,"x_min":0,"x_max":0,"o":"m 72 1014 l 451 1014 l 451 911 l 181 911 l 181 -217 l 451 -217 l 451 -319 l 72 -319 "},"]":{"ha":522,"x_min":0,"x_max":0,"o":"m 72 -218 l 343 -218 l 343 911 l 72 911 l 72 1014 l 451 1014 l 451 -319 l 72 -319 "},"{":{"ha":560,"x_min":0,"x_max":0,"o":"m 488 -319 b 182 -18 256 -319 182 -244 l 182 149 b 51 294 182 257 168 294 l 51 396 b 182 542 168 396 182 433 l 182 713 b 488 1014 182 939 256 1014 l 503 1014 l 503 915 b 289 711 325 915 289 874 l 289 540 b 196 344 289 436 265 374 b 289 150 267 315 289 253 l 289 -17 b 503 -221 289 -179 325 -221 l 503 -319 "},"}":{"ha":560,"x_min":0,"x_max":0,"o":"m 58 -219 b 272 -17 235 -219 272 -179 l 272 150 b 365 344 272 253 293 315 b 272 540 294 374 272 436 l 272 711 b 58 914 272 874 235 914 l 58 1014 l 74 1014 b 379 713 306 1014 379 939 l 379 542 b 510 396 379 433 393 396 l 510 294 b 379 149 393 294 379 257 l 379 -18 b 74 -319 379 -244 306 -319 l 58 -319 "},"":{"ha":807,"x_min":0,"x_max":0,"o":"m 346 828 l 460 828 l 768 0 l 657 0 l 586 190 l 221 190 l 151 0 l 39 0 m 260 293 l 549 293 l 404 683 "},"":{"ha":743,"x_min":0,"x_max":0,"o":"m 97 828 l 386 828 b 651 606 547 828 651 743 b 551 432 651 529 617 468 b 676 236 631 399 676 331 b 406 0 676 88 568 0 l 97 0 m 204 375 l 204 99 l 408 99 b 569 238 507 99 569 156 b 403 375 569 321 518 375 m 204 729 l 204 476 l 396 476 b 544 606 496 476 544 531 b 389 729 544 681 488 729 "},"":{"ha":918,"x_min":0,"x_max":0,"o":"m 493 -11 b 67 414 247 -11 67 183 b 490 839 67 651 258 839 b 867 611 651 839 797 746 l 771 561 b 492 739 719 664 617 739 b 176 414 310 739 176 589 b 490 89 176 233 315 89 b 776 279 629 89 726 169 l 876 235 b 493 -11 804 86 664 -11 "},"":{"ha":826,"x_min":0,"x_max":0,"o":"m 97 828 l 328 828 b 760 414 590 828 760 649 b 332 0 760 178 578 0 l 97 0 m 204 728 l 204 101 l 322 101 b 649 414 517 101 649 236 b 318 728 649 594 528 728 "},"":{"ha":674,"x_min":0,"x_max":0,"o":"m 97 828 l 596 828 l 596 728 l 204 728 l 204 465 l 596 465 l 596 365 l 204 365 l 204 101 l 596 101 l 596 0 l 97 0 "},"":{"ha":633,"x_min":0,"x_max":0,"o":"m 97 828 l 565 828 l 565 728 l 204 728 l 204 465 l 565 465 l 565 365 l 204 365 l 204 0 l 97 0 "},"":{"ha":975,"x_min":0,"x_max":0,"o":"m 494 -11 b 67 414 253 -11 67 181 b 496 839 67 649 254 839 b 865 625 660 839 794 753 l 771 569 b 496 739 717 671 619 739 b 176 414 310 739 176 589 b 494 89 176 238 308 89 b 794 346 664 89 769 200 l 482 346 l 482 449 l 908 449 l 908 414 b 494 -11 908 183 749 -11 "},"":{"ha":813,"x_min":0,"x_max":0,"o":"m 608 365 l 204 365 l 204 0 l 97 0 l 97 828 l 204 828 l 204 467 l 608 467 l 608 828 l 715 828 l 715 0 l 608 0 "},"":{"ha":318,"x_min":0,"x_max":0,"o":"m 104 828 l 214 828 l 214 0 l 104 0 "},"":{"ha":558,"x_min":0,"x_max":0,"o":"m 250 -11 b 26 126 142 -11 60 46 l 128 176 b 249 89 147 126 189 89 b 361 222 318 89 361 140 l 361 828 l 468 828 l 468 228 b 250 -11 468 74 386 -11 "},"":{"ha":765,"x_min":0,"x_max":0,"o":"m 343 426 l 204 272 l 204 0 l 97 0 l 97 828 l 204 828 l 204 407 l 582 828 l 714 828 l 419 501 l 726 0 l 604 0 "},"":{"ha":621,"x_min":0,"x_max":0,"o":"m 97 828 l 204 828 l 204 103 l 556 103 l 556 0 l 97 0 "},"":{"ha":1006,"x_min":0,"x_max":0,"o":"m 97 828 l 203 828 l 504 410 l 806 828 l 908 828 l 908 0 l 801 0 l 801 643 l 504 232 l 204 647 l 204 0 l 97 0 "},"":{"ha":874,"x_min":0,"x_max":0,"o":"m 97 828 l 217 828 l 669 174 l 669 828 l 776 828 l 776 0 l 663 0 l 204 661 l 204 0 l 97 0 "},"":{"ha":982,"x_min":0,"x_max":0,"o":"m 490 -11 b 67 414 256 -11 67 179 b 490 839 67 649 256 839 b 915 414 725 839 915 649 b 490 -11 915 179 725 -11 m 490 89 b 804 414 668 89 804 235 b 490 739 804 592 668 739 b 176 414 313 739 176 592 b 490 89 176 235 313 89 "},"":{"ha":733,"x_min":0,"x_max":0,"o":"m 97 828 l 364 828 b 664 540 540 828 664 701 b 363 251 664 378 540 251 l 204 251 l 204 0 l 97 0 m 204 728 l 204 353 l 356 353 b 554 540 479 353 554 435 b 356 728 554 646 479 728 "},"":{"ha":982,"x_min":0,"x_max":0,"o":"m 490 -11 b 67 414 256 -11 67 179 b 490 839 67 649 256 839 b 915 414 725 839 915 649 b 803 128 915 303 872 203 l 907 0 l 771 0 l 472 374 l 604 374 l 736 210 b 804 414 779 265 804 336 b 490 739 804 592 668 739 b 176 414 313 739 176 592 b 490 89 176 235 313 89 b 625 119 539 89 585 100 l 689 39 b 490 -11 631 8 563 -11 "},"":{"ha":710,"x_min":0,"x_max":0,"o":"m 97 828 l 354 828 b 642 560 524 828 642 710 b 450 310 642 447 572 342 l 653 0 l 525 0 l 278 388 l 340 388 b 531 560 464 388 531 478 b 349 728 531 658 472 728 l 207 728 l 207 0 l 97 0 "},"":{"ha":664,"x_min":0,"x_max":0,"o":"m 331 -11 b 31 139 193 -11 99 51 l 125 213 b 329 89 174 133 243 89 b 489 232 424 89 489 151 b 296 385 489 325 396 351 b 64 618 183 422 64 467 b 322 839 64 744 176 839 b 586 717 443 839 524 793 l 499 650 b 324 744 460 713 401 744 b 175 619 236 744 175 692 b 365 469 175 529 263 504 b 600 232 478 432 600 386 b 331 -11 600 107 496 -11 "},"":{"ha":710,"x_min":0,"x_max":0,"o":"m 301 725 l 60 725 l 60 828 l 650 828 l 650 725 l 410 725 l 410 0 l 301 0 "},"":{"ha":746,"x_min":0,"x_max":0,"o":"m 372 -11 b 90 269 208 -11 90 94 l 90 828 l 197 828 l 197 264 b 374 89 197 157 268 89 b 549 264 476 89 549 157 l 549 828 l 656 828 l 656 269 b 372 -11 656 94 536 -11 "},"":{"ha":776,"x_min":0,"x_max":0,"o":"m 39 828 l 151 828 l 388 154 l 624 828 l 738 828 l 442 0 l 332 0 "},"":{"ha":1214,"x_min":0,"x_max":0,"o":"m 42 828 l 156 828 l 338 168 l 549 828 l 651 828 l 863 160 l 1063 828 l 1172 828 l 918 0 l 808 0 l 600 658 l 389 0 l 278 0 "},"":{"ha":751,"x_min":0,"x_max":0,"o":"m 379 333 l 165 0 l 39 0 l 319 421 l 56 828 l 174 828 l 381 508 l 581 828 l 706 828 l 442 424 l 713 0 l 593 0 "},"":{"ha":726,"x_min":0,"x_max":0,"o":"m 310 390 l 38 828 l 156 828 l 361 493 l 569 828 l 689 828 l 417 390 l 417 0 l 310 0 "},"":{"ha":683,"x_min":0,"x_max":0,"o":"m 65 100 l 486 725 l 79 725 l 79 828 l 614 828 l 614 729 l 193 104 l 614 104 l 614 0 l 65 0 "},"":{"ha":914,"x_min":0,"x_max":0,"o":"m 628 76 b 388 -11 560 22 478 -11 b 68 257 165 -11 68 125 b 217 500 68 365 132 451 b 171 640 188 542 171 586 b 392 839 171 750 257 839 b 606 718 504 839 571 782 l 510 668 b 393 744 489 707 454 744 b 283 640 326 744 283 697 b 421 433 283 572 318 535 l 635 218 b 722 411 681 275 711 344 l 588 411 l 588 514 l 831 514 l 831 467 b 703 150 831 364 783 244 l 851 0 l 704 0 m 388 89 b 558 146 451 89 510 111 l 333 371 b 279 426 314 390 296 408 b 178 263 214 389 178 338 b 388 89 178 171 244 89 "},"":{"ha":606,"x_min":0,"x_max":0,"o":"m 443 828 l 557 828 l 165 0 l 50 0 "},"":{"ha":606,"x_min":0,"x_max":0,"o":"m 50 828 l 165 828 l 557 0 l 443 0 "},"":{"ha":281,"x_min":0,"x_max":0,"o":"m 86 953 l 196 953 l 196 -136 l 86 -136 "},"":{"ha":433,"x_min":0,"x_max":0,"o":"m 354 -89 b 68 414 171 39 68 190 b 342 910 68 642 171 786 l 410 828 b 174 414 274 733 174 608 b 413 0 174 222 275 94 l 354 -89 "},"":{"ha":433,"x_min":0,"x_max":0,"o":"m 21 0 b 260 414 158 94 260 222 b 24 828 260 608 160 733 l 92 910 b 365 414 263 786 365 642 b 79 -89 365 190 263 39 "},"":{"ha":467,"x_min":0,"x_max":0,"o":"m 86 953 l 394 953 l 394 849 l 194 849 l 194 -33 l 394 -33 l 394 -136 l 86 -136 "},"":{"ha":467,"x_min":0,"x_max":0,"o":"m 72 -33 l 272 -33 l 272 849 l 72 849 l 72 953 l 381 953 l 381 -136 l 72 -136 "},"":{"ha":514,"x_min":0,"x_max":0,"o":"m 429 -136 b 179 110 239 -136 179 -75 l 179 238 b 72 356 179 326 168 356 l 72 456 b 179 574 168 456 179 485 l 179 707 b 429 953 179 892 239 953 l 442 953 l 442 854 b 286 706 311 854 286 825 l 286 572 b 207 406 286 485 265 432 b 286 239 267 381 286 326 l 286 111 b 442 -37 286 -10 311 -37 l 442 -136 l 429 -136 "},"":{"ha":514,"x_min":0,"x_max":0,"o":"m 72 -36 b 228 111 203 -36 228 -10 l 228 239 b 307 406 228 328 247 381 b 228 572 249 432 228 485 l 228 706 b 72 853 228 825 203 853 l 72 953 l 85 953 b 335 707 275 953 335 892 l 335 574 b 442 456 335 485 346 456 l 442 356 b 335 238 346 356 335 326 l 335 110 b 85 -136 335 -75 275 -136 l 72 -136 "},"":{"ha":807,"x_min":0,"x_max":0,"o":"m 346 828 l 460 828 l 768 0 l 657 0 l 586 190 l 221 190 l 151 0 l 39 0 m 260 293 l 549 293 l 404 683 m 513 1133 l 651 1133 l 450 908 l 350 908 "},"":{"ha":807,"x_min":0,"x_max":0,"o":"m 346 828 l 460 828 l 768 0 l 657 0 l 586 190 l 221 190 l 151 0 l 39 0 m 260 293 l 549 293 l 404 683 m 146 1133 l 283 1133 l 447 908 l 347 908 "},"":{"ha":807,"x_min":0,"x_max":0,"o":"m 346 828 l 460 828 l 768 0 l 657 0 l 586 190 l 221 190 l 151 0 l 39 0 m 260 293 l 549 293 l 404 683 m 354 1122 l 446 1122 l 611 897 l 500 897 l 400 1036 l 301 897 l 189 897 "},"":{"ha":807,"x_min":0,"x_max":0,"o":"m 346 828 l 460 828 l 768 0 l 657 0 l 586 190 l 221 190 l 151 0 l 39 0 m 260 293 l 549 293 l 404 683 m 444 1111 l 551 1111 l 551 918 l 444 918 m 258 1111 l 365 1111 l 365 918 l 258 918 "},"":{"ha":807,"x_min":0,"x_max":0,"o":"m 346 828 l 460 828 l 768 0 l 657 0 l 586 190 l 221 190 l 151 0 l 39 0 m 260 293 l 549 293 l 404 683 m 164 908 b 301 1075 164 1010 221 1075 b 414 1038 347 1075 381 1057 b 501 999 444 1018 472 999 b 556 1071 535 999 556 1022 l 642 1071 b 503 903 642 968 593 903 b 376 949 450 903 411 928 b 301 979 350 964 331 979 b 250 908 269 979 250 957 l 164 908 "},"":{"ha":807,"x_min":0,"x_max":0,"o":"m 326 774 b 253 903 282 800 253 847 b 400 1053 253 988 319 1053 b 551 903 485 1053 551 988 b 479 775 551 849 522 801 l 768 0 l 657 0 l 586 190 l 221 190 l 151 0 l 39 0 m 260 293 l 549 293 l 404 683 m 400 838 b 468 903 438 838 468 867 b 400 971 468 939 438 971 b 335 903 365 971 335 939 b 400 838 335 867 365 838 "},"":{"ha":807,"x_min":0,"x_max":0,"o":"m 346 828 l 460 828 l 768 0 l 657 0 l 586 190 l 221 190 l 151 0 l 39 0 m 260 293 l 549 293 l 404 683 m 217 1001 l 583 1001 l 583 908 l 217 908 "},"":{"ha":807,"x_min":0,"x_max":0,"o":"m 346 828 l 460 828 l 768 0 l 657 0 l 586 190 l 221 190 l 151 0 l 39 0 m 260 293 l 549 293 l 404 683 m 400 899 b 176 1125 247 899 176 1001 l 268 1125 b 400 979 268 1038 314 981 b 531 1125 483 981 531 1038 l 625 1125 b 400 899 625 1001 539 899 "},"":{"ha":807,"x_min":0,"x_max":0,"o":"m 674 -300 b 486 -160 563 -300 486 -237 b 646 28 486 -96 525 -37 l 586 190 l 221 190 l 151 0 l 39 0 l 346 828 l 460 828 l 768 0 b 594 -154 628 -85 594 -114 b 674 -211 594 -192 629 -211 b 776 -164 719 -211 747 -189 l 861 -222 b 674 -300 814 -264 742 -300 m 260 293 l 549 293 l 404 683 "},"":{"ha":807,"x_min":0,"x_max":0,"o":"m 326 774 b 253 903 282 800 253 847 b 400 1053 253 988 319 1053 b 551 903 485 1053 551 988 b 479 775 551 849 522 801 l 768 0 l 657 0 l 586 190 l 221 190 l 151 0 l 39 0 m 260 293 l 549 293 l 404 683 m 507 1326 l 646 1326 l 444 1101 l 344 1101 m 400 838 b 468 903 438 838 468 867 b 400 971 468 939 438 971 b 335 903 365 971 335 939 b 400 838 335 867 365 838 "},"":{"ha":1189,"x_min":0,"x_max":0,"o":"m 432 828 l 1111 828 l 1111 725 l 574 725 l 628 467 l 1111 467 l 1111 364 l 649 364 l 703 104 l 1111 104 l 1111 0 l 614 0 l 574 188 l 246 188 l 158 0 l 40 0 m 293 288 l 553 288 l 472 672 "},"":{"ha":1199,"x_min":0,"x_max":0,"o":"m 433 828 l 1113 828 l 1113 725 l 575 725 l 629 467 l 1113 467 l 1113 364 l 650 364 l 704 104 l 1113 104 l 1113 0 l 615 0 l 575 188 l 247 188 l 160 0 l 42 0 m 294 288 l 554 288 l 474 672 m 800 1133 l 939 1133 l 738 908 l 638 908 "},"":{"ha":918,"x_min":0,"x_max":0,"o":"m 594 1133 l 733 1133 l 532 908 l 432 908 m 493 -11 b 67 414 247 -11 67 183 b 490 839 67 651 258 839 b 867 611 651 839 797 746 l 771 561 b 492 739 719 664 617 739 b 176 414 310 739 176 589 b 490 89 176 233 315 89 b 776 279 629 89 726 169 l 876 235 b 493 -11 804 86 664 -11 "},"":{"ha":918,"x_min":0,"x_max":0,"o":"m 493 -11 b 67 414 247 -11 67 183 b 490 839 67 651 258 839 b 867 611 651 839 797 746 l 771 561 b 492 739 719 664 617 739 b 176 414 310 739 176 589 b 490 89 176 233 315 89 b 776 279 629 89 726 169 l 876 235 b 493 -11 804 86 664 -11 m 450 1129 l 542 1129 l 707 904 l 596 904 l 496 1043 l 397 904 l 285 904 "},"":{"ha":918,"x_min":0,"x_max":0,"o":"m 493 -11 b 67 414 247 -11 67 183 b 490 839 67 651 258 839 b 867 611 651 839 797 746 l 771 561 b 492 739 719 664 617 739 b 176 414 310 739 176 589 b 490 89 176 233 315 89 b 776 279 629 89 726 169 l 876 235 b 493 -11 804 86 664 -11 m 283 1133 l 394 1133 l 493 994 l 593 1133 l 704 1133 l 539 908 l 449 908 "},"":{"ha":918,"x_min":0,"x_max":0,"o":"m 485 -325 b 282 -247 397 -325 332 -294 l 367 -196 b 485 -246 401 -224 431 -246 b 579 -189 538 -246 579 -221 b 481 -139 579 -157 544 -139 l 424 -139 l 424 -6 b 67 414 214 26 67 206 b 490 839 67 651 258 839 b 867 611 651 839 797 746 l 771 561 b 492 739 719 664 617 739 b 176 414 310 739 176 589 b 490 89 176 233 315 89 b 776 279 629 89 726 169 l 876 235 b 514 -10 807 92 675 -3 l 514 -72 b 679 -185 613 -72 679 -119 b 485 -325 679 -267 590 -325 "},"":{"ha":918,"x_min":0,"x_max":0,"o":"m 493 -11 b 67 414 247 -11 67 183 b 490 839 67 651 258 839 b 867 611 651 839 797 746 l 771 561 b 492 739 719 664 617 739 b 176 414 310 739 176 589 b 490 89 176 233 315 89 b 776 279 629 89 726 169 l 876 235 b 493 -11 804 86 664 -11 m 446 1111 l 553 1111 l 553 918 l 446 918 "},"":{"ha":865,"x_min":0,"x_max":0,"o":"m 39 465 l 136 465 l 136 828 l 367 828 b 799 414 629 828 799 649 b 371 0 799 178 617 0 l 136 0 l 136 368 l 39 368 m 243 368 l 243 101 l 361 101 b 688 414 556 101 688 236 b 357 728 688 594 567 728 l 243 728 l 243 465 l 446 465 l 446 368 "},"":{"ha":865,"x_min":0,"x_max":0,"o":"m 39 465 l 136 465 l 136 828 l 367 828 b 799 414 629 828 799 649 b 371 0 799 178 617 0 l 136 0 l 136 368 l 39 368 m 243 368 l 243 101 l 361 101 b 688 414 556 101 688 236 b 357 728 688 594 567 728 l 243 728 l 243 465 l 446 465 l 446 368 "},"":{"ha":674,"x_min":0,"x_max":0,"o":"m 97 828 l 596 828 l 596 728 l 204 728 l 204 465 l 596 465 l 596 365 l 204 365 l 204 101 l 596 101 l 596 0 l 97 0 m 433 1133 l 572 1133 l 371 908 l 271 908 "},"":{"ha":674,"x_min":0,"x_max":0,"o":"m 97 828 l 596 828 l 596 728 l 204 728 l 204 465 l 596 465 l 596 365 l 204 365 l 204 101 l 596 101 l 596 0 l 97 0 m 119 1133 l 257 1133 l 421 908 l 321 908 "},"":{"ha":674,"x_min":0,"x_max":0,"o":"m 97 828 l 596 828 l 596 728 l 204 728 l 204 465 l 596 465 l 596 365 l 204 365 l 204 101 l 596 101 l 596 0 l 97 0 m 304 1133 l 396 1133 l 561 908 l 450 908 l 350 1047 l 251 908 l 139 908 "},"":{"ha":674,"x_min":0,"x_max":0,"o":"m 97 828 l 596 828 l 596 728 l 204 728 l 204 465 l 596 465 l 596 365 l 204 365 l 204 101 l 596 101 l 596 0 l 97 0 m 208 1111 l 315 1111 l 315 918 l 208 918 m 394 1111 l 501 1111 l 501 918 l 394 918 "},"":{"ha":674,"x_min":0,"x_max":0,"o":"m 97 828 l 596 828 l 596 728 l 204 728 l 204 465 l 596 465 l 596 365 l 204 365 l 204 101 l 596 101 l 596 0 l 97 0 m 138 1133 l 249 1133 l 347 994 l 447 1133 l 558 1133 l 393 908 l 303 908 "},"":{"ha":674,"x_min":0,"x_max":0,"o":"m 97 828 l 596 828 l 596 728 l 204 728 l 204 465 l 596 465 l 596 365 l 204 365 l 204 101 l 596 101 l 596 0 l 97 0 m 164 1001 l 531 1001 l 531 908 l 164 908 "},"":{"ha":674,"x_min":0,"x_max":0,"o":"m 97 828 l 596 828 l 596 728 l 204 728 l 204 465 l 596 465 l 596 365 l 204 365 l 204 101 l 596 101 l 596 0 l 97 0 m 347 899 b 124 1125 194 899 124 1001 l 215 1125 b 347 979 215 1038 261 981 b 478 1125 431 981 478 1038 l 572 1125 b 347 899 572 1001 486 899 "},"":{"ha":674,"x_min":0,"x_max":0,"o":"m 97 828 l 596 828 l 596 728 l 204 728 l 204 465 l 596 465 l 596 365 l 204 365 l 204 101 l 596 101 l 596 0 b 422 -154 456 -85 422 -114 b 501 -211 422 -192 457 -211 b 604 -164 547 -211 575 -189 l 689 -222 b 501 -300 642 -264 569 -300 b 314 -160 390 -300 314 -237 b 426 0 314 -106 342 -54 l 97 0 "},"":{"ha":674,"x_min":0,"x_max":0,"o":"m 97 828 l 596 828 l 596 728 l 204 728 l 204 465 l 596 465 l 596 365 l 204 365 l 204 101 l 596 101 l 596 0 l 97 0 m 306 1111 l 413 1111 l 413 918 l 306 918 "},"":{"ha":975,"x_min":0,"x_max":0,"o":"m 494 -11 b 67 414 253 -11 67 181 b 496 839 67 649 254 839 b 865 625 660 839 794 753 l 771 569 b 496 739 717 671 619 739 b 176 414 310 739 176 589 b 494 89 176 238 308 89 b 794 346 664 89 769 200 l 482 346 l 482 449 l 908 449 l 908 414 b 494 -11 908 183 749 -11 m 443 1132 l 535 1132 l 700 907 l 589 907 l 489 1046 l 390 907 l 278 907 "},"":{"ha":975,"x_min":0,"x_max":0,"o":"m 494 -11 b 67 414 253 -11 67 181 b 496 839 67 649 254 839 b 865 625 660 839 794 753 l 771 569 b 496 739 717 671 619 739 b 176 414 310 739 176 589 b 494 89 176 238 308 89 b 794 346 664 89 769 200 l 482 346 l 482 449 l 908 449 l 908 414 b 494 -11 908 183 749 -11 m 490 907 b 267 1133 338 907 267 1010 l 358 1133 b 490 988 358 1046 404 989 b 621 1133 574 989 621 1046 l 715 1133 b 490 907 715 1010 629 907 "},"":{"ha":975,"x_min":0,"x_max":0,"o":"m 494 -11 b 67 414 253 -11 67 181 b 496 839 67 649 254 839 b 865 625 660 839 794 753 l 771 569 b 496 739 717 671 619 739 b 176 414 310 739 176 589 b 494 89 176 238 308 89 b 794 346 664 89 769 200 l 482 346 l 482 449 l 908 449 l 908 414 b 494 -11 908 183 749 -11 m 442 1111 l 549 1111 l 549 918 l 442 918 "},"":{"ha":975,"x_min":0,"x_max":0,"o":"m 494 -11 b 67 414 253 -11 67 181 b 496 839 67 649 254 839 b 865 625 660 839 794 753 l 771 569 b 496 739 717 671 619 739 b 176 414 310 739 176 589 b 494 89 176 238 308 89 b 794 346 664 89 769 200 l 482 346 l 482 449 l 908 449 l 908 414 b 494 -11 908 183 749 -11 m 388 -381 l 444 -97 l 543 -97 l 461 -381 "},"":{"ha":885,"x_min":0,"x_max":0,"o":"m 644 365 l 240 365 l 240 0 l 133 0 l 133 597 l 36 597 l 36 699 l 133 699 l 133 828 l 240 828 l 240 699 l 644 699 l 644 828 l 751 828 l 751 699 l 849 699 l 849 597 l 751 597 l 751 0 l 644 0 m 240 467 l 644 467 l 644 597 l 240 597 "},"":{"ha":813,"x_min":0,"x_max":0,"o":"m 608 365 l 204 365 l 204 0 l 97 0 l 97 828 l 204 828 l 204 467 l 608 467 l 608 828 l 715 828 l 715 0 l 608 0 m 356 1132 l 447 1132 l 613 907 l 501 907 l 401 1046 l 303 907 l 190 907 "},"":{"ha":318,"x_min":0,"x_max":0,"o":"m 263 1133 l 401 1133 l 200 908 l 100 908 m 104 828 l 214 828 l 214 0 l 104 0 "},"":{"ha":318,"x_min":0,"x_max":0,"o":"m -94 1133 l 43 1133 l 207 908 l 107 908 m 104 828 l 214 828 l 214 0 l 104 0 "},"":{"ha":318,"x_min":0,"x_max":0,"o":"m 104 828 l 214 828 l 214 0 l 104 0 m 110 1122 l 201 1122 l 367 897 l 256 897 l 156 1036 l 57 897 l -56 897 "},"":{"ha":318,"x_min":0,"x_max":0,"o":"m 247 1111 l 354 1111 l 354 918 l 247 918 m -35 1111 l 72 1111 l 72 918 l -35 918 m 104 828 l 214 828 l 214 0 l 104 0 "},"":{"ha":318,"x_min":0,"x_max":0,"o":"m -81 908 b 57 1075 -81 1010 -24 1075 b 169 1038 103 1075 136 1057 b 257 999 200 1018 228 999 b 311 1071 290 999 311 1022 l 397 1071 b 258 903 397 968 349 903 b 132 949 206 903 167 928 b 57 979 106 964 86 979 b 6 908 25 979 6 957 l -81 908 m 104 828 l 214 828 l 214 0 l 104 0 "},"":{"ha":318,"x_min":0,"x_max":0,"o":"m -28 1001 l 339 1001 l 339 908 l -28 908 m 104 828 l 214 828 l 214 0 l 104 0 "},"":{"ha":318,"x_min":0,"x_max":0,"o":"m 157 899 b -67 1125 4 899 -67 1001 l 25 1125 b 157 979 25 1038 71 981 b 288 1125 240 981 288 1038 l 382 1125 b 157 899 382 1001 296 899 m 104 828 l 214 828 l 214 0 l 104 0 "},"":{"ha":318,"x_min":0,"x_max":0,"o":"m 172 -301 b 3 -150 53 -301 3 -228 b 104 21 3 -87 44 -29 l 104 828 l 214 828 l 214 0 b 104 -146 139 -60 104 -101 b 172 -210 104 -183 132 -210 b 261 -174 211 -210 236 -194 l 322 -249 b 172 -301 281 -279 224 -301 "},"":{"ha":558,"x_min":0,"x_max":0,"o":"m 250 -11 b 26 126 142 -11 60 46 l 128 176 b 249 89 147 126 189 89 b 361 222 318 89 361 140 l 361 828 l 468 828 l 468 228 b 250 -11 468 74 386 -11 m 361 1119 l 453 1119 l 618 894 l 507 894 l 407 1033 l 308 894 l 196 894 "},"":{"ha":765,"x_min":0,"x_max":0,"o":"m 343 426 l 204 272 l 204 0 l 97 0 l 97 828 l 204 828 l 204 407 l 582 828 l 714 828 l 419 501 l 726 0 l 604 0 m 296 -353 l 353 -69 l 451 -69 l 369 -353 "},"":{"ha":621,"x_min":0,"x_max":0,"o":"m 97 828 l 204 828 l 204 103 l 556 103 l 556 0 l 97 0 m 256 1133 l 394 1133 l 193 908 l 93 908 "},"":{"ha":621,"x_min":0,"x_max":0,"o":"m 97 828 l 204 828 l 204 103 l 556 103 l 556 0 l 97 0 m 225 -353 l 282 -69 l 381 -69 l 299 -353 "},"":{"ha":621,"x_min":0,"x_max":0,"o":"m 97 828 l 204 828 l 204 103 l 556 103 l 556 0 l 97 0 m 447 546 l 554 546 l 554 353 l 447 353 "},"":{"ha":653,"x_min":0,"x_max":0,"o":"m 24 363 l 129 411 l 129 828 l 236 828 l 236 460 l 478 572 l 478 478 l 236 367 l 236 103 l 588 103 l 588 0 l 129 0 l 129 318 l 24 269 "},"":{"ha":874,"x_min":0,"x_max":0,"o":"m 97 828 l 217 828 l 669 174 l 669 828 l 776 828 l 776 0 l 663 0 l 204 661 l 204 0 l 97 0 m 551 1122 l 690 1122 l 489 897 l 389 897 "},"":{"ha":874,"x_min":0,"x_max":0,"o":"m 97 828 l 217 828 l 669 174 l 669 828 l 776 828 l 776 0 l 663 0 l 204 661 l 204 0 l 97 0 m 201 908 b 339 1075 201 1010 258 1075 b 451 1038 385 1075 418 1057 b 539 999 482 1018 510 999 b 593 1071 572 999 593 1022 l 679 1071 b 540 903 679 968 631 903 b 414 949 488 903 449 928 b 339 979 388 964 368 979 b 288 908 307 979 288 957 l 201 908 "},"":{"ha":874,"x_min":0,"x_max":0,"o":"m 97 828 l 217 828 l 669 174 l 669 828 l 776 828 l 776 0 l 663 0 l 204 661 l 204 0 l 97 0 m 229 1122 l 340 1122 l 439 983 l 539 1122 l 650 1122 l 485 897 l 394 897 "},"":{"ha":874,"x_min":0,"x_max":0,"o":"m 97 828 l 217 828 l 669 174 l 669 828 l 776 828 l 776 0 l 663 0 l 204 661 l 204 0 l 97 0 m 347 -353 l 404 -69 l 503 -69 l 421 -353 "},"":{"ha":982,"x_min":0,"x_max":0,"o":"m 583 1133 l 722 1133 l 521 908 l 421 908 m 490 -11 b 67 414 256 -11 67 179 b 490 839 67 649 256 839 b 915 414 725 839 915 649 b 490 -11 915 179 725 -11 m 490 89 b 804 414 668 89 804 235 b 490 739 804 592 668 739 b 176 414 313 739 176 592 b 490 89 176 235 313 89 "},"":{"ha":982,"x_min":0,"x_max":0,"o":"m 490 -11 b 67 414 256 -11 67 179 b 490 839 67 649 256 839 b 915 414 725 839 915 649 b 490 -11 915 179 725 -11 m 490 89 b 804 414 668 89 804 235 b 490 739 804 592 668 739 b 176 414 313 739 176 592 b 490 89 176 235 313 89 m 239 1133 l 376 1133 l 540 908 l 440 908 "},"":{"ha":982,"x_min":0,"x_max":0,"o":"m 490 -11 b 67 414 256 -11 67 179 b 490 839 67 649 256 839 b 915 414 725 839 915 649 b 490 -11 915 179 725 -11 m 490 89 b 804 414 668 89 804 235 b 490 739 804 592 668 739 b 176 414 313 739 176 592 b 490 89 176 235 313 89 m 444 1128 l 536 1128 l 701 903 l 590 903 l 490 1042 l 392 903 l 279 903 "},"":{"ha":982,"x_min":0,"x_max":0,"o":"m 533 1110 l 640 1110 l 640 917 l 533 917 m 347 1110 l 454 1110 l 454 917 l 347 917 m 490 -11 b 67 414 256 -11 67 179 b 490 839 67 649 256 839 b 915 414 725 839 915 649 b 490 -11 915 179 725 -11 m 490 89 b 804 414 668 89 804 235 b 490 739 804 592 668 739 b 176 414 313 739 176 592 b 490 89 176 235 313 89 "},"":{"ha":982,"x_min":0,"x_max":0,"o":"m 490 -11 b 67 414 256 -11 67 179 b 490 839 67 649 256 839 b 915 414 725 839 915 649 b 490 -11 915 179 725 -11 m 490 89 b 804 414 668 89 804 235 b 490 739 804 592 668 739 b 176 414 313 739 176 592 b 490 89 176 235 313 89 m 253 908 b 390 1075 253 1010 310 1075 b 503 1038 436 1075 469 1057 b 590 999 533 1018 561 999 b 644 1071 624 999 644 1022 l 731 1071 b 592 903 731 968 682 903 b 465 949 539 903 500 928 b 390 979 439 964 419 979 b 339 908 358 979 339 957 l 253 908 "},"":{"ha":982,"x_min":0,"x_max":0,"o":"m 490 -11 b 67 414 256 -11 67 179 b 490 839 67 649 256 839 b 915 414 725 839 915 649 b 490 -11 915 179 725 -11 m 490 89 b 804 414 668 89 804 235 b 490 739 804 592 668 739 b 176 414 313 739 176 592 b 490 89 176 235 313 89 m 489 907 b 265 1133 336 907 265 1010 l 357 1133 b 489 988 357 1046 403 989 b 619 1133 572 989 619 1046 l 714 1133 b 489 907 714 1010 628 907 "},"":{"ha":982,"x_min":0,"x_max":0,"o":"m 308 1001 l 675 1001 l 675 908 l 308 908 m 490 -11 b 67 414 256 -11 67 179 b 490 839 67 649 256 839 b 915 414 725 839 915 649 b 490 -11 915 179 725 -11 m 490 89 b 804 414 668 89 804 235 b 490 739 804 592 668 739 b 176 414 313 739 176 592 b 490 89 176 235 313 89 "},"":{"ha":982,"x_min":0,"x_max":0,"o":"m 499 1133 l 629 1133 l 428 908 l 336 908 m 697 1133 l 828 1133 l 626 908 l 533 908 m 490 -11 b 67 414 256 -11 67 179 b 490 839 67 649 256 839 b 915 414 725 839 915 649 b 490 -11 915 179 725 -11 m 490 89 b 804 414 668 89 804 235 b 490 739 804 592 668 739 b 176 414 313 739 176 592 b 490 89 176 235 313 89 "},"":{"ha":982,"x_min":0,"x_max":0,"o":"m 490 -11 b 272 49 410 -11 336 11 l 233 0 l 107 0 l 193 110 b 67 414 114 188 67 294 b 490 839 67 649 256 839 b 711 776 571 839 646 815 l 751 828 l 876 828 l 789 715 b 915 414 867 639 915 532 b 490 -11 915 179 725 -11 m 175 414 b 258 194 175 329 207 253 l 646 693 b 490 735 600 719 547 735 b 175 414 313 735 175 589 m 490 93 b 806 414 668 93 806 238 b 724 631 806 496 775 572 l 336 132 b 490 93 382 107 433 93 "},"":{"ha":985,"x_min":0,"x_max":0,"o":"m 492 -11 b 274 49 411 -11 338 11 l 235 0 l 108 0 l 194 110 b 68 414 115 188 68 294 b 492 839 68 649 257 839 b 713 776 572 839 647 815 l 753 828 l 878 828 l 790 715 b 917 414 868 639 917 532 b 492 -11 917 179 726 -11 m 176 414 b 260 194 176 329 208 253 l 647 693 b 492 735 601 719 549 735 b 176 414 314 735 176 589 m 492 93 b 807 414 669 93 807 238 b 725 631 807 496 776 572 l 338 132 b 492 93 383 107 435 93 m 589 1133 l 728 1133 l 526 908 l 426 908 "},"":{"ha":1381,"x_min":0,"x_max":0,"o":"m 804 143 b 490 -11 732 49 622 -11 b 67 414 256 -11 67 179 b 490 839 67 649 256 839 b 804 683 622 839 732 778 l 804 828 l 1303 828 l 1303 728 l 911 728 l 911 465 l 1303 465 l 1303 365 l 911 365 l 911 101 l 1303 101 l 1303 0 l 804 0 m 490 89 b 804 400 664 89 797 228 l 804 414 b 490 739 804 592 668 739 b 176 414 313 739 176 592 b 490 89 176 235 313 89 "},"":{"ha":739,"x_min":0,"x_max":0,"o":"m 104 828 l 211 828 l 211 661 l 413 661 b 671 414 564 661 671 553 b 411 165 671 274 564 165 l 211 165 l 211 0 l 104 0 m 211 561 l 211 267 l 407 267 b 563 414 503 267 563 332 b 407 561 563 496 503 561 "},"":{"ha":710,"x_min":0,"x_max":0,"o":"m 97 828 l 354 828 b 642 560 524 828 642 710 b 450 310 642 447 572 342 l 653 0 l 525 0 l 278 388 l 340 388 b 531 560 464 388 531 478 b 349 728 531 658 472 728 l 207 728 l 207 0 l 97 0 m 446 1133 l 585 1133 l 383 908 l 283 908 "},"":{"ha":710,"x_min":0,"x_max":0,"o":"m 97 828 l 354 828 b 642 560 524 828 642 710 b 450 310 642 447 572 342 l 653 0 l 525 0 l 278 388 l 340 388 b 531 560 464 388 531 478 b 349 728 531 658 472 728 l 207 728 l 207 0 l 97 0 m 160 1133 l 271 1133 l 369 994 l 469 1133 l 581 1133 l 415 908 l 325 908 "},"":{"ha":710,"x_min":0,"x_max":0,"o":"m 97 828 l 354 828 b 642 560 524 828 642 710 b 450 310 642 447 572 342 l 653 0 l 525 0 l 278 388 l 340 388 b 531 560 464 388 531 478 b 349 728 531 658 472 728 l 207 728 l 207 0 l 97 0 m 258 -353 l 315 -69 l 414 -69 l 332 -353 "},"":{"ha":664,"x_min":0,"x_max":0,"o":"m 426 1133 l 565 1133 l 364 908 l 264 908 m 331 -11 b 31 139 193 -11 99 51 l 125 213 b 329 89 174 133 243 89 b 489 232 424 89 489 151 b 296 385 489 325 396 351 b 64 618 183 422 64 467 b 322 839 64 744 176 839 b 586 717 443 839 524 793 l 499 650 b 324 744 460 713 401 744 b 175 619 236 744 175 692 b 365 469 175 529 263 504 b 600 232 478 432 600 386 b 331 -11 600 107 496 -11 "},"":{"ha":664,"x_min":0,"x_max":0,"o":"m 331 -11 b 31 139 193 -11 99 51 l 125 213 b 329 89 174 133 243 89 b 489 232 424 89 489 151 b 296 385 489 325 396 351 b 64 618 183 422 64 467 b 322 839 64 744 176 839 b 586 717 443 839 524 793 l 499 650 b 324 744 460 713 401 744 b 175 619 236 744 175 692 b 365 469 175 529 263 504 b 600 232 478 432 600 386 b 331 -11 600 107 496 -11 m 275 1132 l 367 1132 l 532 907 l 421 907 l 321 1046 l 222 907 l 110 907 "},"":{"ha":664,"x_min":0,"x_max":0,"o":"m 331 -11 b 31 139 193 -11 99 51 l 125 213 b 329 89 174 133 243 89 b 489 232 424 89 489 151 b 296 385 489 325 396 351 b 64 618 183 422 64 467 b 322 839 64 744 176 839 b 586 717 443 839 524 793 l 499 650 b 324 744 460 713 401 744 b 175 619 236 744 175 692 b 365 469 175 529 263 504 b 600 232 478 432 600 386 b 331 -11 600 107 496 -11 m 118 1133 l 229 1133 l 328 994 l 428 1133 l 539 1133 l 374 908 l 283 908 "},"":{"ha":664,"x_min":0,"x_max":0,"o":"m 318 -325 b 115 -247 231 -325 165 -294 l 200 -196 b 318 -246 235 -224 264 -246 b 413 -189 371 -246 413 -221 b 314 -139 413 -157 378 -139 l 257 -139 l 257 -4 b 31 139 158 13 85 68 l 125 213 b 329 89 174 133 243 89 b 489 232 424 89 489 151 b 296 385 489 325 396 351 b 64 618 183 422 64 467 b 322 839 64 744 176 839 b 586 717 443 839 524 793 l 499 650 b 324 744 460 713 401 744 b 175 619 236 744 175 692 b 365 469 175 529 263 504 b 600 232 478 432 600 386 b 347 -11 600 111 503 -3 l 347 -72 b 513 -185 446 -72 513 -119 b 318 -325 513 -267 424 -325 "},"":{"ha":664,"x_min":0,"x_max":0,"o":"m 219 -353 l 276 -69 l 375 -69 l 293 -353 m 331 -11 b 31 139 193 -11 99 51 l 125 213 b 329 89 174 133 243 89 b 489 232 424 89 489 151 b 296 385 489 325 396 351 b 64 618 183 422 64 467 b 322 839 64 744 176 839 b 586 717 443 839 524 793 l 499 650 b 324 744 460 713 401 744 b 175 619 236 744 175 692 b 365 469 175 529 263 504 b 600 232 478 432 600 386 b 331 -11 600 107 496 -11 "},"":{"ha":710,"x_min":0,"x_max":0,"o":"m 247 -353 l 304 -69 l 403 -69 l 321 -353 m 301 725 l 60 725 l 60 828 l 650 828 l 650 725 l 410 725 l 410 0 l 301 0 "},"":{"ha":746,"x_min":0,"x_max":0,"o":"m 458 1119 l 597 1119 l 396 894 l 296 894 m 372 -11 b 90 269 208 -11 90 94 l 90 828 l 197 828 l 197 264 b 374 89 197 157 268 89 b 549 264 476 89 549 157 l 549 828 l 656 828 l 656 269 b 372 -11 656 94 536 -11 "},"":{"ha":746,"x_min":0,"x_max":0,"o":"m 372 -11 b 90 269 208 -11 90 94 l 90 828 l 197 828 l 197 264 b 374 89 197 157 268 89 b 549 264 476 89 549 157 l 549 828 l 656 828 l 656 269 b 372 -11 656 94 536 -11 m 124 1119 l 261 1119 l 425 894 l 325 894 "},"":{"ha":746,"x_min":0,"x_max":0,"o":"m 372 -11 b 90 269 208 -11 90 94 l 90 828 l 197 828 l 197 264 b 374 89 197 157 268 89 b 549 264 476 89 549 157 l 549 828 l 656 828 l 656 269 b 372 -11 656 94 536 -11 m 319 1133 l 411 1133 l 576 908 l 465 908 l 365 1047 l 267 908 l 154 908 "},"":{"ha":746,"x_min":0,"x_max":0,"o":"m 414 1111 l 521 1111 l 521 918 l 414 918 m 228 1111 l 335 1111 l 335 918 l 228 918 m 372 -11 b 90 269 208 -11 90 94 l 90 828 l 197 828 l 197 264 b 374 89 197 157 268 89 b 549 264 476 89 549 157 l 549 828 l 656 828 l 656 269 b 372 -11 656 94 536 -11 "},"":{"ha":746,"x_min":0,"x_max":0,"o":"m 372 -11 b 90 269 208 -11 90 94 l 90 828 l 197 828 l 197 264 b 374 89 197 157 268 89 b 549 264 476 89 549 157 l 549 828 l 656 828 l 656 269 b 372 -11 656 94 536 -11 m 129 908 b 267 1075 129 1010 186 1075 b 379 1038 313 1075 346 1057 b 467 999 410 1018 438 999 b 521 1071 500 999 521 1022 l 607 1071 b 468 903 607 968 558 903 b 342 949 415 903 376 928 b 267 979 315 964 296 979 b 215 908 235 979 215 957 l 129 908 "},"":{"ha":746,"x_min":0,"x_max":0,"o":"m 368 890 b 221 1039 288 890 221 957 b 368 1189 221 1124 288 1189 b 519 1039 453 1189 519 1124 b 368 890 519 957 453 890 m 368 974 b 436 1039 406 974 436 1003 b 368 1107 436 1075 406 1107 b 303 1039 333 1107 303 1075 b 368 974 303 1003 333 974 m 372 -11 b 90 269 208 -11 90 94 l 90 828 l 197 828 l 197 264 b 374 89 197 157 268 89 b 549 264 476 89 549 157 l 549 828 l 656 828 l 656 269 b 372 -11 656 94 536 -11 "},"":{"ha":746,"x_min":0,"x_max":0,"o":"m 372 -11 b 90 269 208 -11 90 94 l 90 828 l 197 828 l 197 264 b 374 89 197 157 268 89 b 549 264 476 89 549 157 l 549 828 l 656 828 l 656 269 b 372 -11 656 94 536 -11 m 374 892 b 150 1118 221 892 150 994 l 242 1118 b 374 972 242 1031 288 974 b 504 1118 457 974 504 1031 l 599 1118 b 374 892 599 994 513 892 "},"":{"ha":746,"x_min":0,"x_max":0,"o":"m 372 -11 b 90 269 208 -11 90 94 l 90 828 l 197 828 l 197 264 b 374 89 197 157 268 89 b 549 264 476 89 549 157 l 549 828 l 656 828 l 656 269 b 372 -11 656 94 536 -11 m 190 1001 l 557 1001 l 557 908 l 190 908 "},"":{"ha":746,"x_min":0,"x_max":0,"o":"m 372 -11 b 90 269 208 -11 90 94 l 90 828 l 197 828 l 197 264 b 374 89 197 157 268 89 b 549 264 476 89 549 157 l 549 828 l 656 828 l 656 269 b 372 -11 656 94 536 -11 m 363 1122 l 493 1122 l 292 897 l 200 897 m 561 1122 l 692 1122 l 490 897 l 397 897 "},"":{"ha":746,"x_min":0,"x_max":0,"o":"m 406 -289 b 218 -149 294 -289 218 -226 b 307 -4 218 -100 240 -53 b 90 269 178 19 90 118 l 90 828 l 197 828 l 197 264 b 374 89 197 157 268 89 b 549 264 476 89 549 157 l 549 828 l 656 828 l 656 269 b 497 13 656 143 593 53 l 500 11 b 326 -143 360 -74 326 -103 b 406 -200 326 -181 361 -200 b 508 -153 451 -200 479 -178 l 593 -211 b 406 -289 546 -253 474 -289 "},"":{"ha":1214,"x_min":0,"x_max":0,"o":"m 42 828 l 156 828 l 338 168 l 549 828 l 651 828 l 863 160 l 1063 828 l 1172 828 l 918 0 l 808 0 l 600 658 l 389 0 l 278 0 m 711 1133 l 850 1133 l 649 908 l 549 908 "},"":{"ha":1214,"x_min":0,"x_max":0,"o":"m 42 828 l 156 828 l 338 168 l 549 828 l 651 828 l 863 160 l 1063 828 l 1172 828 l 918 0 l 808 0 l 600 658 l 389 0 l 278 0 m 350 1133 l 488 1133 l 651 908 l 551 908 "},"":{"ha":1214,"x_min":0,"x_max":0,"o":"m 42 828 l 156 828 l 338 168 l 549 828 l 651 828 l 863 160 l 1063 828 l 1172 828 l 918 0 l 808 0 l 600 658 l 389 0 l 278 0 m 554 1125 l 646 1125 l 811 900 l 700 900 l 600 1039 l 501 900 l 389 900 "},"":{"ha":1214,"x_min":0,"x_max":0,"o":"m 42 828 l 156 828 l 338 168 l 549 828 l 651 828 l 863 160 l 1063 828 l 1172 828 l 918 0 l 808 0 l 600 658 l 389 0 l 278 0 m 460 1111 l 567 1111 l 567 918 l 460 918 m 646 1111 l 753 1111 l 753 918 l 646 918 "},"":{"ha":726,"x_min":0,"x_max":0,"o":"m 310 390 l 38 828 l 156 828 l 361 493 l 569 828 l 689 828 l 417 390 l 417 0 l 310 0 m 460 1122 l 599 1122 l 397 897 l 297 897 "},"":{"ha":744,"x_min":0,"x_max":0,"o":"m 319 390 l 47 828 l 165 828 l 371 493 l 579 828 l 699 828 l 426 390 l 426 0 l 319 0 m 128 1122 l 265 1122 l 429 897 l 329 897 "},"":{"ha":726,"x_min":0,"x_max":0,"o":"m 310 390 l 38 828 l 156 828 l 361 493 l 569 828 l 689 828 l 417 390 l 417 0 l 310 0 m 313 1132 l 404 1132 l 569 907 l 458 907 l 358 1046 l 260 907 l 147 907 "},"":{"ha":726,"x_min":0,"x_max":0,"o":"m 310 390 l 38 828 l 156 828 l 361 493 l 569 828 l 689 828 l 417 390 l 417 0 l 310 0 m 218 1100 l 325 1100 l 325 907 l 218 907 m 404 1100 l 511 1100 l 511 907 l 404 907 "},"":{"ha":683,"x_min":0,"x_max":0,"o":"m 65 100 l 486 725 l 79 725 l 79 828 l 614 828 l 614 729 l 193 104 l 614 104 l 614 0 l 65 0 m 429 1133 l 568 1133 l 367 908 l 267 908 "},"":{"ha":683,"x_min":0,"x_max":0,"o":"m 65 100 l 486 725 l 79 725 l 79 828 l 614 828 l 614 729 l 193 104 l 614 104 l 614 0 l 65 0 m 132 1133 l 243 1133 l 342 994 l 442 1133 l 553 1133 l 388 908 l 297 908 "},"":{"ha":683,"x_min":0,"x_max":0,"o":"m 65 100 l 486 725 l 79 725 l 79 828 l 614 828 l 614 729 l 193 104 l 614 104 l 614 0 l 65 0 m 299 1111 l 406 1111 l 406 918 l 299 918 "},"":{"ha":817,"x_min":0,"x_max":0,"o":"m 58 104 l 347 104 l 347 800 b 182 735 318 757 244 735 l 165 735 l 165 847 l 172 847 b 351 1014 306 847 351 942 l 456 1014 l 456 104 l 758 104 l 758 0 l 58 0 "},"":{"ha":817,"x_min":0,"x_max":0,"o":"m 83 107 b 360 467 83 267 225 371 b 611 747 483 556 611 636 b 404 931 611 854 533 931 b 174 782 300 931 219 869 l 79 832 b 403 1028 136 944 258 1028 b 722 746 596 1028 722 900 b 442 396 722 590 575 490 b 197 107 317 308 197 225 l 197 104 l 742 104 l 742 0 l 83 0 "},"":{"ha":817,"x_min":0,"x_max":0,"o":"m 397 -12 b 54 136 239 -12 133 39 l 140 207 b 397 85 203 129 281 85 b 633 282 542 85 633 171 b 388 475 633 400 525 475 l 289 475 l 289 578 l 388 578 b 608 753 519 578 608 644 b 392 931 608 861 526 931 b 157 818 303 931 201 885 l 68 881 b 394 1028 131 963 258 1028 b 715 753 601 1028 715 913 b 569 528 715 649 661 571 b 742 282 675 485 742 401 b 397 -12 742 110 613 -12 "},"":{"ha":817,"x_min":0,"x_max":0,"o":"m 504 233 l 58 233 l 58 333 l 503 1014 l 613 1014 l 613 332 l 758 332 l 758 233 l 613 233 l 613 0 l 504 0 m 504 332 l 504 833 l 176 332 "},"":{"ha":817,"x_min":0,"x_max":0,"o":"m 411 -14 b 75 168 258 -14 136 60 l 176 233 b 411 88 221 151 294 88 b 642 324 546 88 642 182 b 406 563 642 479 524 563 b 193 458 311 563 239 521 l 85 493 l 163 1014 l 682 1014 l 682 911 l 254 911 l 206 594 b 406 663 256 635 324 663 b 751 324 582 663 751 554 b 411 -14 751 122 611 -14 "},"":{"ha":817,"x_min":0,"x_max":0,"o":"m 408 -14 b 65 322 210 -14 65 136 b 139 554 65 407 94 492 l 439 1014 l 569 1014 l 331 649 b 424 660 360 656 390 660 b 751 322 608 660 751 515 b 408 -14 751 132 601 -14 m 407 85 b 646 322 538 85 646 192 b 407 561 646 456 538 561 b 171 324 276 561 171 456 b 407 85 171 193 276 85 "},"":{"ha":817,"x_min":0,"x_max":0,"o":"m 636 910 l 58 910 l 58 1014 l 758 1014 l 758 919 l 336 0 l 218 0 "},"":{"ha":817,"x_min":0,"x_max":0,"o":"m 408 -14 b 67 286 183 -14 67 114 b 226 536 67 393 128 485 b 97 758 144 585 97 664 b 408 1028 97 913 219 1028 b 722 758 593 1028 722 913 b 589 536 722 664 671 585 b 750 286 688 485 750 393 b 408 -14 750 114 625 -14 m 408 85 b 646 286 560 85 646 176 b 408 486 646 393 565 486 b 171 286 251 486 171 393 b 408 85 171 176 257 85 m 408 583 b 621 758 551 583 621 660 b 408 932 621 854 547 932 b 197 758 274 932 197 854 b 408 583 197 660 265 583 "},"":{"ha":817,"x_min":0,"x_max":0,"o":"m 247 0 l 486 365 b 393 354 457 357 425 354 b 65 692 208 354 65 499 b 408 1028 65 882 215 1028 b 751 692 607 1028 751 878 b 678 460 751 607 722 522 l 378 0 m 410 453 b 646 690 540 453 646 558 b 410 929 646 821 540 929 b 171 692 279 929 171 822 b 410 453 171 558 279 453 "},"":{"ha":817,"x_min":0,"x_max":0,"o":"m 407 85 b 622 307 550 85 622 172 l 622 697 b 410 929 622 844 549 929 b 194 697 267 929 194 836 l 194 308 b 407 85 194 169 264 85 m 408 -14 b 86 307 197 -14 86 113 l 86 697 b 408 1028 86 888 215 1028 b 731 697 607 1028 731 883 l 731 307 b 408 -14 731 108 614 -14 "},"":{"ha":817,"x_min":0,"x_max":0,"o":"m 408 -14 b 86 307 197 -14 86 113 l 86 697 b 408 1028 86 888 215 1028 b 731 697 607 1028 731 883 l 731 307 b 408 -14 731 108 614 -14 m 407 85 b 622 307 550 85 622 172 l 622 697 b 410 929 622 844 549 929 b 194 697 267 929 194 836 l 194 308 b 407 85 194 169 264 85 m 408 154 b 258 301 317 154 258 215 l 258 710 b 408 860 258 794 319 860 b 558 710 500 860 558 793 l 558 554 l 449 554 l 449 703 b 408 742 449 724 432 742 b 368 703 385 742 368 724 l 368 299 b 408 260 368 275 385 260 b 449 299 432 260 449 275 l 449 474 l 558 474 l 558 301 b 408 154 558 214 497 154 "},"":{"ha":817,"x_min":0,"x_max":0,"o":"m 408 -14 b 86 307 197 -14 86 113 l 86 697 b 408 1028 86 888 215 1028 b 731 697 607 1028 731 883 l 731 307 b 408 -14 731 108 614 -14 m 407 85 b 622 307 550 85 622 172 l 622 697 b 410 929 622 844 549 929 b 194 697 267 929 194 836 l 194 308 b 407 85 194 169 264 85 m 265 853 l 418 853 b 561 703 524 853 561 797 l 561 589 b 525 496 561 546 547 517 b 557 413 546 475 557 447 l 557 188 b 568 161 557 175 560 167 l 461 161 b 447 183 453 164 447 169 l 447 400 b 400 450 447 432 433 450 l 375 450 l 375 161 l 265 161 m 375 753 l 375 550 l 400 550 b 451 606 433 550 451 565 l 451 703 b 407 753 451 738 442 753 "},"":{"ha":817,"x_min":0,"x_max":0,"o":"m 760 278 b 471 -10 760 142 649 11 l 471 -167 l 363 -167 l 363 -11 b 49 154 218 0 126 61 l 131 231 b 364 88 190 150 257 99 l 364 499 b 89 767 235 543 89 603 b 363 1025 89 906 190 1010 l 363 1167 l 471 1167 l 471 1024 b 744 871 599 1010 682 954 l 657 806 b 469 929 615 871 557 915 l 469 569 b 760 278 604 522 760 464 m 649 276 b 469 463 649 381 565 428 l 469 89 b 649 276 582 107 649 181 m 199 767 b 364 606 199 681 275 639 l 364 932 b 199 767 260 918 199 854 "},"":{"ha":817,"x_min":0,"x_max":0,"o":"m 379 -10 b 65 347 196 17 65 165 b 379 704 65 535 201 678 l 379 875 l 488 875 l 488 704 b 768 501 615 688 722 610 l 671 460 b 435 611 628 556 543 611 b 174 347 289 611 174 493 b 440 83 174 201 290 83 b 676 244 556 83 638 153 l 775 203 b 488 -11 725 89 626 6 l 488 -181 l 379 -181 "},"":{"ha":817,"x_min":0,"x_max":0,"o":"m 83 563 l 215 563 b 158 760 183 615 158 676 b 433 1028 158 917 285 1028 b 713 876 569 1028 654 964 l 619 818 b 429 928 571 893 518 928 b 268 760 347 928 268 861 b 336 563 268 683 299 622 l 649 563 l 649 475 l 390 475 b 463 243 429 410 463 338 b 447 156 463 214 457 183 b 568 85 489 117 526 85 b 621 151 608 85 621 107 l 621 279 l 731 279 l 731 156 b 563 -14 731 21 658 -14 b 404 72 504 -14 453 26 b 232 -14 365 21 307 -14 b 57 135 124 -14 57 50 b 211 281 57 219 119 281 b 371 222 275 281 326 256 l 371 238 b 278 475 371 340 326 408 l 83 475 m 231 71 b 343 128 283 71 321 92 b 217 193 303 164 261 193 b 153 131 176 193 153 167 b 231 71 153 92 186 71 "},"":{"ha":817,"x_min":0,"x_max":0,"o":"m 40 701 l 128 701 b 450 1028 129 889 258 1028 b 693 925 553 1028 638 989 l 619 857 b 451 929 583 904 528 929 b 236 701 310 929 238 838 l 597 701 l 582 615 l 236 615 l 236 399 l 547 399 l 533 313 l 236 313 l 236 308 b 449 85 236 169 306 85 b 625 164 531 85 590 114 l 708 96 b 450 -14 654 26 567 -14 b 128 307 239 -14 128 113 l 128 313 l 40 313 l 40 399 l 128 399 l 128 615 l 40 615 "},"":{"ha":817,"x_min":0,"x_max":0,"o":"m 124 519 l 356 519 l 356 535 l 53 1014 l 174 1014 l 410 638 l 644 1014 l 765 1014 l 464 536 l 464 519 l 693 519 l 693 431 l 464 431 l 464 278 l 693 278 l 693 189 l 464 189 l 464 0 l 356 0 l 356 189 l 124 189 l 124 278 l 356 278 l 356 431 l 124 431 "},"":{"ha":817,"x_min":0,"x_max":0,"o":"m 156 568 l 378 568 l 436 744 b 726 1014 501 953 585 1014 l 735 1014 l 735 915 b 544 735 642 915 589 878 l 489 568 l 686 568 l 686 472 l 458 472 l 392 269 b 92 0 326 65 265 0 l 82 0 l 82 100 b 283 281 199 100 236 138 l 346 472 l 156 472 "},"":{"ha":817,"x_min":0,"x_max":0,"o":"m 654 1014 l 778 1014 l 161 0 l 38 0 m 256 689 b 86 858 161 689 86 765 b 256 1028 86 953 161 1028 b 425 858 349 1028 425 953 b 256 689 425 765 349 689 m 256 796 b 318 858 290 796 318 824 b 256 921 318 893 290 921 b 193 858 221 921 193 893 b 256 796 193 824 221 796 m 561 -15 b 392 154 467 -15 392 61 b 561 324 392 249 467 324 b 731 154 654 324 731 249 b 561 -15 731 61 654 -15 m 561 92 b 624 154 596 92 624 119 b 561 217 624 189 596 217 b 499 154 526 217 499 189 b 561 92 499 119 526 92 "},"":{"ha":408,"x_min":0,"x_max":0,"o":"m 143 190 l 251 190 l 251 0 l 143 0 "},"":{"ha":408,"x_min":0,"x_max":0,"o":"m 197 121 l 313 121 l 226 -162 l 140 -162 "},"Ľ":{"ha":740,"x_min":0,"x_max":0,"o":"m 100 1014 l 208 1014 l 208 104 l 661 104 l 661 0 l 100 0 m 463 1014 l 561 1014 l 479 758 l 406 758 "},"":{"ha":692,"x_min":0,"x_max":0,"o":"m 339 1000 l 438 1000 l 356 744 l 282 744 "},"ď":{"ha":928,"x_min":0,"x_max":0,"o":"m 422 -14 b 67 347 218 -14 67 149 b 422 708 67 546 215 708 b 676 582 511 708 617 664 l 676 1014 l 781 1014 l 781 0 l 678 0 l 678 114 b 422 -14 618 31 511 -14 m 428 83 b 688 347 576 83 688 201 b 428 611 688 492 576 611 b 175 347 286 611 175 493 b 428 83 175 201 286 83 m 931 1014 l 1029 1014 l 947 758 l 874 758 "},"ľ":{"ha":342,"x_min":0,"x_max":0,"o":"m 86 1014 l 194 1014 l 194 0 l 86 0 m 344 1014 l 443 1014 l 361 758 l 288 758 "},"ť":{"ha":504,"x_min":0,"x_max":0,"o":"m 47 694 l 167 694 l 167 858 l 275 918 l 275 694 l 439 694 l 439 597 l 275 597 l 275 267 b 439 101 275 125 301 101 l 439 0 l 424 0 b 167 265 221 0 167 58 l 167 597 l 47 597 m 404 1028 l 503 1028 l 421 772 l 347 772 "},"":{"ha":728,"x_min":0,"x_max":0,"o":"m 50 694 l 169 694 l 169 749 b 433 1014 169 956 229 1014 l 443 1014 l 443 915 b 278 747 296 915 278 889 l 278 694 l 443 694 l 443 597 l 278 597 l 278 0 l 169 0 l 169 597 l 50 597 m 533 694 l 642 694 l 642 0 l 533 0 m 533 1014 l 642 1014 l 642 815 l 533 815 "},"":{"ha":728,"x_min":0,"x_max":0,"o":"m 50 694 l 169 694 l 169 749 b 433 1014 169 956 229 1014 l 443 1014 l 443 915 b 278 747 296 915 278 889 l 278 694 l 443 694 l 443 597 l 278 597 l 278 0 l 169 0 l 169 597 l 50 597 m 533 1014 l 642 1014 l 642 0 l 533 0 "},"":{"ha":826,"x_min":0,"x_max":0,"o":"m 97 828 l 328 828 b 760 414 590 828 760 649 b 332 0 760 178 578 0 l 97 0 m 204 728 l 204 101 l 322 101 b 649 414 517 101 649 236 b 318 728 649 594 528 728 m 163 1133 l 274 1133 l 372 994 l 472 1133 l 583 1133 l 418 908 l 328 908 "},"":{"ha":621,"x_min":0,"x_max":0,"o":"m 97 828 l 204 828 l 204 103 l 556 103 l 556 0 l 97 0 m 472 828 l 571 828 l 489 572 l 415 572 "},"":{"ha":710,"x_min":0,"x_max":0,"o":"m 301 725 l 60 725 l 60 828 l 650 828 l 650 725 l 410 725 l 410 0 l 301 0 m 144 1133 l 256 1133 l 354 994 l 454 1133 l 565 1133 l 400 908 l 310 908 "},"":{"ha":979,"x_min":0,"x_max":0,"o":"m 431 1014 l 547 1014 l 932 0 l 819 0 l 489 868 l 161 0 l 47 0 "},"Ŋ":{"ha":1026,"x_min":0,"x_max":0,"o":"m 639 -200 l 668 -200 b 818 -26 785 -200 818 -153 l 818 0 l 208 849 l 208 0 l 100 0 l 100 1014 l 221 1014 l 818 182 l 818 1014 l 926 1014 l 926 -28 b 678 -304 926 -206 863 -304 l 639 -304 "},"Ŧ":{"ha":846,"x_min":0,"x_max":0,"o":"m 239 624 l 369 624 l 369 914 l 64 914 l 64 1014 l 782 1014 l 782 914 l 478 914 l 478 624 l 606 624 l 606 524 l 478 524 l 478 0 l 369 0 l 369 524 l 239 524 "},"Ĳ":{"ha":801,"x_min":0,"x_max":0,"o":"m 326 101 l 457 101 b 607 278 557 101 607 156 l 607 1014 l 715 1014 l 715 276 b 463 0 715 99 635 0 l 326 0 m 86 1014 l 194 1014 l 194 0 l 86 0 "},"":{"ha":294,"x_min":0,"x_max":0,"o":"m 93 694 l 201 694 l 201 0 l 93 0 m 93 1014 l 201 1014 l 201 815 l 93 815 "},"ĸ":{"ha":744,"x_min":0,"x_max":0,"o":"m 340 336 l 200 193 l 200 0 l 94 0 l 94 694 l 200 694 l 200 317 l 569 694 l 706 694 l 418 400 l 707 0 l 582 0 "},"ŋ":{"ha":826,"x_min":0,"x_max":0,"o":"m 460 -215 b 628 -51 599 -215 628 -193 l 628 386 b 419 611 628 521 558 611 b 200 385 293 611 200 511 l 200 0 l 93 0 l 93 694 l 199 694 l 199 592 b 435 708 247 663 331 708 b 736 386 621 708 736 586 l 736 -53 b 476 -318 736 -260 675 -318 l 460 -318 "},"ŧ":{"ha":504,"x_min":0,"x_max":0,"o":"m 47 694 l 167 694 l 167 858 l 275 918 l 275 694 l 439 694 l 439 597 l 275 597 l 275 408 l 433 408 l 433 315 l 275 315 l 275 267 b 439 101 275 125 301 101 l 439 0 l 424 0 b 167 265 221 0 167 58 l 167 315 l 67 315 l 67 408 l 167 408 l 167 597 l 47 597 "},"ĳ":{"ha":533,"x_min":0,"x_max":0,"o":"m 93 -215 l 165 -215 b 332 -51 304 -215 332 -193 l 332 694 l 440 694 l 440 -53 b 182 -318 440 -256 376 -318 l 93 -318 m 93 694 l 201 694 l 201 0 l 93 0 m 93 1014 l 201 1014 l 201 815 l 93 815 m 332 1014 l 440 1014 l 440 815 l 332 815 "},"A":{"ha":979,"x_min":0,"x_max":0,"o":"m 431 1014 l 547 1014 l 932 0 l 819 0 l 721 257 l 258 257 l 161 0 l 47 0 m 297 360 l 682 360 l 489 868 "},"":{"ha":543,"x_min":0,"x_max":0,"o":"m 282 604 b 74 813 167 604 74 697 b 282 1022 74 929 167 1022 b 464 918 360 1022 428 979 l 394 878 b 282 944 374 917 332 944 b 153 813 208 944 153 886 b 282 682 153 740 208 682 b 399 754 338 682 378 711 l 469 717 b 282 604 433 650 367 604 "},"":{"ha":526,"x_min":0,"x_max":0,"o":"m 224 604 b 72 719 133 604 72 644 b 243 860 72 793 124 835 b 367 907 306 872 367 883 b 275 956 367 935 339 956 b 169 888 207 956 169 929 l 169 885 l 82 885 l 82 886 b 274 1022 82 967 158 1022 b 451 888 396 1022 451 967 l 451 613 l 371 613 l 371 665 b 224 604 335 628 288 604 m 225 674 b 372 767 301 674 354 732 l 372 832 b 260 794 353 817 308 807 b 158 721 183 775 158 757 b 225 674 158 694 188 674 "},"":{"ha":807,"x_min":0,"x_max":0,"o":"m 346 828 l 460 828 l 768 0 l 657 0 l 404 683 l 151 0 l 39 0 "},"":{"ha":318,"x_min":0,"x_max":0,"o":"m 104 828 l 214 828 l 214 0 l 104 0 m 104 1100 l 211 1100 l 211 907 l 104 907 "},"":{"ha":874,"x_min":0,"x_max":0,"o":"m 500 -215 b 668 -51 639 -215 668 -197 l 668 -8 l 204 661 l 204 0 l 97 0 l 97 828 l 217 828 l 669 174 l 669 828 l 776 828 l 776 -53 b 517 -318 776 -260 715 -318 l 500 -318 "},"":{"ha":710,"x_min":0,"x_max":0,"o":"m 410 368 l 410 0 l 301 0 l 301 368 l 157 368 l 157 471 l 301 471 l 301 725 l 60 725 l 60 828 l 650 828 l 650 725 l 410 725 l 410 471 l 553 471 l 553 368 "},"":{"ha":638,"x_min":0,"x_max":0,"o":"m 303 100 l 332 100 b 444 229 426 100 444 147 l 444 828 l 551 828 l 551 235 b 333 0 551 81 503 0 l 303 0 m 86 828 l 196 828 l 196 0 l 86 0 "},"₀":{"ha":675,"x_min":0,"x_max":0,"o":"m 338 -8 b 38 293 171 -8 38 126 b 338 594 38 460 171 594 b 638 293 504 594 638 460 b 338 -8 638 126 504 -8 m 338 86 b 542 293 451 86 542 181 b 338 500 542 407 451 500 b 135 293 224 500 135 407 b 338 86 135 181 224 86 "},"₁":{"ha":407,"x_min":0,"x_max":0,"o":"m 44 93 l 161 93 l 161 433 b 65 388 144 407 101 388 l 56 388 l 56 490 l 60 490 b 164 586 138 490 164 544 l 258 586 l 258 93 l 369 93 l 369 0 l 44 0 "},"₂":{"ha":469,"x_min":0,"x_max":0,"o":"m 49 92 b 204 301 49 190 131 250 b 322 432 265 344 322 381 b 232 510 322 475 290 510 b 122 426 179 510 144 475 l 39 468 b 232 594 74 544 140 594 b 421 431 349 594 421 521 b 272 235 421 338 344 285 b 147 93 208 192 147 151 l 422 93 l 422 0 l 49 0 "},"₃":{"ha":446,"x_min":0,"x_max":0,"o":"m 213 -8 b 24 75 138 -8 74 17 l 107 138 b 213 81 135 99 169 81 b 310 168 269 81 310 115 b 199 256 310 222 264 256 l 139 256 l 139 347 l 199 347 b 301 431 265 347 301 383 b 207 510 301 478 264 510 b 110 450 160 510 131 486 l 28 496 b 207 594 61 556 128 594 b 394 432 322 594 394 531 b 324 304 394 376 368 332 b 407 168 375 276 407 231 b 213 -8 407 67 336 -8 "},"₄":{"ha":526,"x_min":0,"x_max":0,"o":"m 301 135 l 44 135 l 44 224 l 297 586 l 397 586 l 397 224 l 482 224 l 482 135 l 397 135 l 397 0 l 301 0 m 301 224 l 301 439 l 150 224 "},"₅":{"ha":475,"x_min":0,"x_max":0,"o":"m 238 -8 b 39 101 139 -8 69 43 l 128 156 b 239 82 147 115 182 82 b 340 186 294 82 340 124 b 238 293 340 249 296 293 b 132 228 186 293 153 267 l 44 269 l 88 586 l 410 586 l 410 494 l 165 494 l 146 350 b 246 382 171 368 204 382 b 439 186 349 382 439 314 b 238 -8 439 71 354 -8 "},"₆":{"ha":490,"x_min":0,"x_max":0,"o":"m 246 -8 b 38 193 125 -8 38 81 b 82 342 38 247 54 301 l 239 586 l 353 586 l 224 389 b 264 394 236 392 250 394 b 454 193 369 394 454 310 b 246 -8 454 76 364 -8 m 244 81 b 358 196 306 81 358 132 b 244 308 358 258 306 308 b 132 194 182 308 132 258 b 244 81 132 132 182 81 "},"₇":{"ha":454,"x_min":0,"x_max":0,"o":"m 307 493 l 43 493 l 43 586 l 410 586 l 410 501 l 194 0 l 90 0 "},"₈":{"ha":469,"x_min":0,"x_max":0,"o":"m 235 -8 b 49 172 118 -8 49 75 b 124 310 49 232 79 281 b 67 429 89 335 67 374 b 235 594 67 518 133 594 b 404 429 333 594 404 518 b 344 311 404 375 381 336 b 419 172 388 283 419 235 b 235 -8 419 75 351 -8 m 233 81 b 324 172 289 81 324 122 b 233 264 324 222 290 264 b 144 172 179 264 144 222 b 233 81 144 122 179 81 m 233 354 b 306 429 278 354 306 385 b 233 504 306 469 279 504 b 164 429 190 504 164 469 b 233 354 164 385 190 354 "},"₉":{"ha":490,"x_min":0,"x_max":0,"o":"m 267 199 b 226 193 253 194 240 193 b 36 393 122 193 36 276 b 244 594 36 511 128 594 b 453 393 364 594 453 506 b 408 244 453 340 435 285 l 253 0 l 136 0 m 246 278 b 358 393 308 278 358 331 b 246 507 358 456 308 507 b 132 392 183 507 132 456 b 246 278 132 329 183 278 "},"₊":{"ha":390,"x_min":0,"x_max":0,"o":"m 47 335 l 156 335 l 156 440 l 236 440 l 236 335 l 343 335 l 343 253 l 236 253 l 236 144 l 156 144 l 156 253 l 47 253 "},"₋":{"ha":390,"x_min":0,"x_max":0,"o":"m 47 335 l 343 335 l 343 253 l 47 253 "},"₌":{"ha":390,"x_min":0,"x_max":0,"o":"m 47 399 l 343 399 l 343 317 l 47 317 m 47 265 l 343 265 l 343 183 l 47 183 "},"₍":{"ha":375,"x_min":0,"x_max":0,"o":"m 251 -82 b 38 304 115 13 38 133 b 249 690 38 479 121 597 l 313 611 b 138 304 211 542 138 449 b 314 -1 138 163 213 68 l 251 -82 "},"₎":{"ha":375,"x_min":0,"x_max":0,"o":"m 61 -1 b 238 304 163 68 238 163 b 63 611 238 449 164 542 l 126 690 b 338 304 254 594 338 479 b 124 -82 338 133 260 13 "},"":{"ha":564,"x_min":0,"x_max":0,"o":"m 282 604 b 74 813 167 604 74 697 b 282 1022 74 929 167 1022 b 490 813 399 1022 490 929 b 282 604 490 697 399 604 m 282 683 b 410 813 354 683 410 742 b 282 944 410 885 354 944 b 154 813 211 944 154 885 b 282 683 154 742 211 683 "},"":{"ha":543,"x_min":0,"x_max":0,"o":"m 282 604 b 74 813 167 604 74 697 b 282 1022 74 929 167 1022 b 464 918 360 1022 428 979 l 394 878 b 282 944 374 917 332 944 b 153 813 208 944 153 886 b 282 682 153 740 208 682 b 399 754 338 682 378 711 l 469 717 b 282 604 433 650 367 604 "},"":{"ha":564,"x_min":0,"x_max":0,"o":"m 239 1014 l 326 1014 l 485 611 l 399 611 l 367 693 l 199 693 l 167 611 l 82 611 m 228 771 l 336 771 l 282 911 "},"":{"ha":692,"x_min":0,"x_max":0,"o":"m 335 -325 b 136 -249 247 -325 189 -303 l 221 -194 b 335 -244 253 -224 281 -244 b 429 -189 388 -244 429 -222 b 328 -139 429 -156 396 -139 l 308 -139 l 308 -72 l 335 -72 b 529 -185 454 -69 529 -115 b 335 -325 529 -267 449 -325 "},"":{"ha":700,"x_min":0,"x_max":0,"o":"m 283 -62 l 390 -62 l 390 -256 l 283 -256 "},"":{"ha":692,"x_min":0,"x_max":0,"o":"m 121 774 b 344 1000 121 897 192 1000 b 569 774 483 1000 569 897 l 475 774 b 344 919 475 861 428 918 b 213 774 258 918 213 861 l 121 774 "},"":{"ha":692,"x_min":0,"x_max":0,"o":"m 107 1000 l 235 1000 l 385 775 l 294 775 m 299 1000 l 426 1000 l 576 775 l 486 775 "},"‽":{"ha":760,"x_min":0,"x_max":0,"o":"m 332 264 b 328 851 328 403 328 665 l 328 928 b 171 804 251 914 206 865 l 75 849 b 382 1028 125 946 233 1028 b 683 771 554 1028 683 925 b 417 276 683 508 417 578 l 417 264 l 332 264 m 574 772 b 432 928 574 851 515 911 l 432 851 b 421 535 432 756 428 642 b 574 772 488 619 574 646 m 319 190 l 428 190 l 428 0 l 319 0 "},"":{"ha":760,"x_min":0,"x_max":0,"o":"m 382 -333 b 81 -76 210 -333 81 -231 b 347 418 81 186 347 117 l 347 431 l 432 431 b 436 -157 436 292 436 29 l 436 -233 b 593 -110 511 -219 557 -171 l 689 -154 b 382 -333 639 -251 531 -333 m 190 -78 b 332 -233 190 -157 249 -217 l 332 -157 b 342 158 332 -61 336 53 b 190 -78 276 74 190 47 m 444 504 l 336 504 l 336 694 l 444 694 "},"‖":{"ha":518,"x_min":0,"x_max":0,"o":"m 86 1014 l 194 1014 l 194 -319 l 86 -319 m 324 1014 l 432 1014 l 432 -319 l 324 -319 "},"":{"ha":518,"x_min":0,"x_max":0,"o":"m 86 1167 l 194 1167 l 194 -167 l 86 -167 m 324 1167 l 432 1167 l 432 -167 l 324 -167 "},"":{"ha":518,"x_min":0,"x_max":0,"o":"m 86 953 l 196 953 l 196 -136 l 86 -136 m 324 953 l 433 953 l 433 -136 l 324 -136 "},"":{"ha":1176,"x_min":0,"x_max":0,"o":"m 589 -14 b 68 507 301 -14 68 219 b 589 1028 68 794 301 1028 b 1110 507 876 1028 1110 794 b 589 -14 1110 219 876 -14 m 589 82 b 1006 507 826 82 1006 274 b 589 932 1006 740 826 932 b 172 507 351 932 172 740 b 589 82 172 274 351 82 m 404 778 l 606 778 b 808 607 731 778 808 699 b 692 436 808 529 769 460 l 807 258 l 689 258 l 542 501 l 590 501 b 703 603 654 501 703 540 b 592 690 703 665 653 690 l 504 690 l 504 258 l 404 258 "},"":{"ha":1174,"x_min":0,"x_max":0,"o":"m 586 -15 b 68 506 299 -15 68 217 b 596 1026 68 793 308 1026 b 1106 558 899 1026 1106 801 b 888 269 1106 403 1033 269 b 732 349 810 269 758 303 b 549 265 696 300 632 265 b 331 518 431 265 314 357 b 581 765 350 686 471 765 b 735 699 650 765 704 739 b 740 757 740 750 740 757 l 846 757 l 818 506 b 896 371 807 407 833 371 b 1007 556 968 371 1007 444 b 594 929 1007 749 844 929 b 174 506 361 929 174 739 b 586 82 174 272 353 82 b 885 208 704 82 808 131 l 963 143 b 586 -15 874 51 739 -15 m 569 361 b 717 518 656 361 710 435 b 600 672 726 600 683 672 b 442 519 521 672 450 614 b 569 361 429 433 486 361 "},"":{"ha":1174,"x_min":0,"x_max":0,"o":"m 586 -104 b 68 417 299 -104 68 128 b 596 938 68 704 308 938 b 1106 469 899 938 1106 713 b 888 181 1106 314 1033 181 b 732 260 810 181 758 214 b 549 176 696 211 632 176 b 331 429 431 176 314 268 b 581 676 350 597 471 676 b 735 610 650 676 704 650 b 740 668 740 661 740 668 l 846 668 l 818 417 b 896 282 807 318 833 282 b 1007 467 968 282 1007 356 b 594 840 1007 660 844 840 b 174 417 361 840 174 650 b 586 -7 174 183 353 -7 b 885 119 704 -7 808 42 l 963 54 b 586 -104 874 -37 739 -104 m 569 272 b 717 429 656 272 710 346 b 600 583 726 511 683 583 b 442 431 521 583 450 525 b 569 272 429 344 486 272 "},"‴":{"ha":582,"x_min":0,"x_max":0,"o":"m 113 694 b 82 897 104 729 82 832 l 82 1014 l 176 1014 l 176 897 b 146 694 176 835 154 729 l 113 694 m 275 694 b 244 897 267 729 244 832 l 244 1014 l 339 1014 l 339 897 b 308 694 339 835 317 729 l 275 694 m 438 694 b 407 897 429 729 407 832 l 407 1014 l 501 1014 l 501 897 b 471 694 501 835 479 729 l 438 694 "},"℠":{"ha":904,"x_min":0,"x_max":0,"o":"m 386 1014 l 460 1014 l 607 818 l 761 1014 l 829 1014 l 829 611 l 750 611 l 750 883 l 607 707 l 464 885 l 464 611 l 386 611 m 183 601 b 38 669 117 601 69 624 l 108 721 b 182 672 126 690 147 672 b 238 728 214 672 238 694 b 54 906 238 801 54 760 b 179 1013 54 971 110 1013 b 308 954 238 1013 278 990 l 238 908 b 176 942 224 931 203 942 b 128 904 146 942 128 925 b 317 728 128 836 317 872 b 183 601 317 658 264 601 "},"₡":{"ha":1089,"x_min":0,"x_max":0,"o":"m 175 -167 l 279 88 b 68 507 150 183 68 335 b 589 1028 68 794 301 1028 b 661 1022 614 1028 638 1026 l 721 1167 l 814 1167 l 746 1003 b 821 972 772 994 797 985 l 901 1167 l 994 1167 l 896 926 b 1040 767 954 883 1003 829 l 947 713 b 854 826 924 756 892 794 l 551 90 b 589 89 564 89 576 89 b 958 317 765 89 892 182 l 1054 267 b 589 -14 967 100 800 -14 b 511 -7 563 -14 536 -11 l 446 -167 l 354 -167 l 426 11 b 351 43 400 19 375 31 l 265 -167 m 179 507 b 321 189 179 381 233 267 l 621 924 b 589 925 610 924 600 925 b 179 507 356 925 179 736 m 390 139 b 467 107 414 126 440 115 l 782 876 b 707 907 758 890 733 900 l 390 139 "},"₢":{"ha":1089,"x_min":0,"x_max":0,"o":"m 589 -14 b 68 507 301 -14 68 219 b 589 1028 68 794 301 1028 b 1040 767 782 1028 950 922 l 947 713 b 589 925 878 839 746 925 b 179 507 356 925 179 736 b 524 93 179 300 324 125 l 524 569 l 631 569 l 631 469 b 824 569 668 533 735 569 l 915 569 l 915 469 l 824 469 b 632 235 683 469 632 396 l 632 90 b 958 317 786 104 897 193 l 1054 267 b 589 -14 967 100 800 -14 "},"₣":{"ha":743,"x_min":0,"x_max":0,"o":"m 86 1014 l 660 1014 l 660 911 l 194 911 l 194 674 l 660 674 l 660 574 l 194 574 l 194 440 l 660 440 l 660 340 l 194 340 l 194 0 l 86 0 "},"〈":{"ha":511,"x_min":0,"x_max":0,"o":"m 43 347 l 360 1014 l 475 1014 l 158 347 l 475 -319 l 360 -319 "},"〉":{"ha":511,"x_min":0,"x_max":0,"o":"m 43 -319 l 360 347 l 43 1014 l 158 1014 l 475 347 l 158 -319 "},"":{"ha":511,"x_min":0,"x_max":0,"o":"m 43 500 l 360 1167 l 475 1167 l 158 500 l 475 -167 l 360 -167 "},"":{"ha":511,"x_min":0,"x_max":0,"o":"m 43 -167 l 360 500 l 43 1167 l 158 1167 l 475 500 l 158 -167 "},"":{"ha":796,"x_min":0,"x_max":0,"o":"m 72 -139 l 725 -139 l 725 -232 l 72 -232 "},"₤":{"ha":943,"x_min":0,"x_max":0,"o":"m 99 681 l 229 681 b 224 754 225 703 224 728 b 513 1028 224 921 339 1028 b 797 890 650 1028 735 971 l 710 824 b 511 933 665 894 610 933 b 331 756 403 933 331 863 b 338 681 331 729 333 704 l 650 681 l 650 593 l 364 593 b 408 493 378 558 393 525 l 650 493 l 650 406 l 447 406 b 481 250 467 357 481 306 b 465 153 481 215 475 183 b 625 74 513 110 560 74 b 760 251 715 74 760 121 l 760 279 l 869 279 l 869 238 b 636 -14 869 69 794 -14 b 426 76 540 -14 479 29 b 240 -14 385 21 321 -14 b 57 138 111 -14 57 53 b 225 286 57 222 121 286 b 392 219 294 286 346 256 b 393 244 392 228 393 236 b 347 406 393 303 372 354 l 99 406 l 99 493 l 300 493 b 253 593 283 524 265 557 l 99 593 m 239 71 b 364 136 293 71 338 96 b 229 201 324 172 283 201 b 151 136 176 201 151 176 b 239 71 151 97 186 71 "},"₦":{"ha":1146,"x_min":0,"x_max":0,"o":"m 49 639 l 160 639 l 160 1014 l 276 1014 l 542 639 l 878 639 l 878 1014 l 986 1014 l 986 639 l 1097 639 l 1097 554 l 986 554 l 986 449 l 1097 449 l 1097 364 l 986 364 l 986 0 l 875 0 l 617 364 l 268 364 l 268 0 l 160 0 l 160 364 l 49 364 l 49 449 l 160 449 l 160 554 l 49 554 m 268 449 l 557 449 l 482 554 l 268 554 m 678 449 l 878 449 l 878 554 l 603 554 m 268 854 l 268 639 l 421 639 m 878 167 l 878 364 l 738 364 "},"₧":{"ha":1776,"x_min":0,"x_max":0,"o":"m 1126 0 b 869 265 924 0 869 58 l 869 597 l 765 597 b 403 315 736 433 597 315 l 194 315 l 194 0 l 86 0 l 86 1014 l 403 1014 b 771 694 613 1014 757 876 l 869 694 l 869 858 l 978 918 l 978 694 l 1142 694 l 1142 597 l 978 597 l 978 267 b 1142 101 978 125 1004 101 l 1443 101 b 1600 210 1547 101 1600 146 b 1421 313 1600 281 1514 293 b 1186 508 1310 335 1186 367 b 1439 710 1186 611 1283 710 b 1703 603 1542 710 1643 672 l 1624 536 b 1439 618 1576 589 1517 618 b 1292 510 1343 618 1292 568 b 1475 404 1292 439 1379 425 b 1710 210 1588 381 1710 349 b 1439 0 1710 96 1640 0 m 194 914 l 194 417 l 396 417 b 663 665 563 417 663 525 b 396 914 663 807 563 914 "},"₨":{"ha":1368,"x_min":0,"x_max":0,"o":"m 1007 -17 b 308 464 638 -17 454 193 l 388 464 b 633 692 540 464 633 578 b 389 914 633 819 540 914 l 194 914 l 194 0 l 86 0 l 86 1014 l 397 1014 b 742 692 596 1014 742 871 b 481 381 742 544 643 411 b 1004 78 596 211 750 78 b 1196 200 1140 78 1196 136 b 1008 310 1196 274 1104 288 b 778 508 897 336 778 372 b 1031 710 778 611 875 710 b 1294 603 1133 710 1235 672 l 1215 536 b 1031 618 1168 589 1108 618 b 883 510 935 618 883 568 b 1065 400 883 439 971 422 b 1301 200 1178 374 1301 339 b 1007 -17 1301 94 1225 -17 "},"₩":{"ha":1528,"x_min":0,"x_max":0,"o":"m 49 639 l 183 639 l 74 1014 l 189 1014 l 296 639 l 586 639 l 711 1014 l 815 1014 l 938 639 l 1236 639 l 1349 1014 l 1460 1014 l 1344 639 l 1479 639 l 1479 554 l 1318 554 l 1285 449 l 1479 449 l 1479 364 l 1258 364 l 1147 0 l 1038 0 l 919 364 l 603 364 l 482 0 l 371 0 l 264 364 l 49 364 l 49 449 l 239 449 l 208 554 l 49 554 m 631 449 l 892 449 l 857 554 l 665 554 m 1000 449 l 1179 449 l 1211 554 l 965 554 m 350 449 l 524 449 l 558 554 l 321 554 m 693 639 l 829 639 l 761 844 m 1093 165 l 1153 364 l 1028 364 m 431 168 l 496 364 l 375 364 "},"₪":{"ha":996,"x_min":0,"x_max":0,"o":"m 86 1014 l 361 1014 b 672 672 564 1014 672 919 l 672 318 b 564 204 672 236 647 204 l 564 672 b 365 913 564 844 507 913 l 194 913 l 194 0 l 86 0 m 324 792 b 432 678 407 792 432 760 l 432 101 l 608 101 b 801 342 750 101 801 169 l 801 1014 l 910 1014 l 910 342 b 604 0 910 94 807 0 l 324 0 "},"₮":{"ha":851,"x_min":0,"x_max":0,"o":"m 181 558 l 372 636 l 372 914 l 67 914 l 67 1014 l 785 1014 l 785 914 l 481 914 l 481 681 l 671 760 l 671 675 l 481 596 l 481 479 l 671 558 l 671 474 l 481 394 l 481 0 l 372 0 l 372 350 l 181 272 l 181 357 l 372 435 l 372 551 l 181 474 "},"₱":{"ha":993,"x_min":0,"x_max":0,"o":"m 49 801 l 160 801 l 160 1014 l 476 1014 b 819 801 642 1014 768 928 l 944 801 l 944 717 l 842 717 b 846 665 844 700 846 682 b 842 611 846 646 844 628 l 944 611 l 944 526 l 819 526 b 476 315 767 400 642 315 l 268 315 l 268 0 l 160 0 l 160 526 l 49 526 l 49 611 l 160 611 l 160 717 l 49 717 m 736 665 b 731 717 736 682 733 700 l 268 717 l 268 611 l 731 611 b 736 665 733 628 736 646 m 268 914 l 268 801 l 699 801 b 469 914 656 869 575 914 m 469 417 b 696 526 574 417 653 460 l 268 526 l 268 417 l 469 417 "},"฿":{"ha":733,"x_min":0,"x_max":0,"o":"m 86 919 l 317 919 l 317 1014 l 411 1014 l 411 918 b 653 697 558 911 653 828 b 547 521 653 618 617 556 b 665 328 622 486 665 419 b 411 92 665 183 564 97 l 411 0 l 317 0 l 317 92 l 86 92 m 193 190 l 317 190 l 317 467 l 193 467 m 558 329 b 411 465 558 407 513 460 l 411 190 b 558 329 501 194 558 251 m 193 568 l 317 568 l 317 821 l 193 821 m 546 697 b 411 819 546 767 497 814 l 411 568 b 546 697 501 572 546 625 "},"≈":{"ha":639,"x_min":0,"x_max":0,"o":"m 63 658 b 197 694 103 678 140 694 b 443 642 281 694 371 642 b 576 676 497 642 529 656 l 576 581 b 443 546 538 558 504 546 b 197 599 365 546 268 599 b 63 563 142 599 104 582 m 63 426 b 193 464 103 446 136 464 b 446 413 276 464 374 413 b 576 444 500 413 529 424 l 576 349 b 446 317 538 326 507 317 b 193 368 368 317 264 368 b 63 331 138 368 104 350 "},"":{"ha":468,"x_min":0,"x_max":0,"o":"m 301 -136 l 43 408 l 301 953 l 417 953 l 158 408 l 417 -136 "},"":{"ha":468,"x_min":0,"x_max":0,"o":"m 56 -136 l 314 408 l 56 953 l 171 953 l 429 408 l 171 -136 "},"/":{"ha":669,"x_min":0,"x_max":0,"o":"m 518 1014 l 633 1014 l 153 0 l 38 0 "},"\\":{"ha":669,"x_min":0,"x_max":0,"o":"m 38 1014 l 153 1014 l 633 0 l 518 0 "},"⅟":{"ha":1044,"x_min":0,"x_max":0,"o":"m 883 1014 l 1010 1014 l 278 0 l 151 0 m 44 521 l 161 521 l 161 861 b 65 815 144 835 101 815 l 56 815 l 56 918 l 60 918 b 164 1014 138 918 164 972 l 258 1014 l 258 521 l 369 521 l 369 428 l 44 428 "},"½":{"ha":1175,"x_min":0,"x_max":0,"o":"m 883 1014 l 1010 1014 l 278 0 l 151 0 m 749 92 b 904 301 749 190 831 250 b 1022 432 965 344 1022 381 b 932 510 1022 475 990 510 b 822 426 879 510 844 475 l 739 468 b 932 594 774 544 840 594 b 1121 431 1049 594 1121 521 b 972 235 1121 338 1044 285 b 847 93 908 192 847 151 l 1122 93 l 1122 0 l 749 0 m 44 521 l 161 521 l 161 861 b 65 815 144 835 101 815 l 56 815 l 56 918 l 60 918 b 164 1014 138 918 164 972 l 258 1014 l 258 521 l 369 521 l 369 428 l 44 428 "},"⅓":{"ha":1151,"x_min":0,"x_max":0,"o":"m 883 1014 l 1010 1014 l 278 0 l 151 0 m 918 -8 b 729 75 843 -8 779 17 l 813 138 b 918 81 840 99 875 81 b 1015 168 975 81 1015 115 b 904 256 1015 222 969 256 l 844 256 l 844 347 l 904 347 b 1007 431 971 347 1007 383 b 913 510 1007 478 969 510 b 815 450 865 510 836 486 l 733 496 b 913 594 767 556 833 594 b 1100 432 1028 594 1100 531 b 1029 304 1100 376 1074 332 b 1113 168 1081 276 1113 231 b 918 -8 1113 67 1042 -8 m 44 521 l 161 521 l 161 861 b 65 815 144 835 101 815 l 56 815 l 56 918 l 60 918 b 164 1014 138 918 164 972 l 258 1014 l 258 521 l 369 521 l 369 428 l 44 428 "},"⅔":{"ha":1151,"x_min":0,"x_max":0,"o":"m 883 1014 l 1010 1014 l 278 0 l 151 0 m 49 519 b 204 729 49 618 131 678 b 322 860 265 772 322 808 b 232 938 322 903 290 938 b 122 854 179 938 144 903 l 39 896 b 232 1022 74 972 140 1022 b 421 858 349 1022 421 949 b 272 663 421 765 344 713 b 147 521 208 619 147 579 l 422 521 l 422 428 l 49 428 m 918 -8 b 729 75 843 -8 779 17 l 813 138 b 918 81 840 99 875 81 b 1015 168 975 81 1015 115 b 904 256 1015 222 969 256 l 844 256 l 844 347 l 904 347 b 1007 431 971 347 1007 383 b 913 510 1007 478 969 510 b 815 450 865 510 836 486 l 733 496 b 913 594 767 556 833 594 b 1100 432 1028 594 1100 531 b 1029 304 1100 376 1074 332 b 1113 168 1081 276 1113 231 b 918 -8 1113 67 1042 -8 "},"¼":{"ha":1121,"x_min":0,"x_max":0,"o":"m 896 135 l 639 135 l 639 224 l 892 586 l 992 586 l 992 224 l 1076 224 l 1076 135 l 992 135 l 992 0 l 896 0 m 883 1014 l 1010 1014 l 278 0 l 151 0 m 44 521 l 161 521 l 161 861 b 65 815 144 835 101 815 l 56 815 l 56 918 l 60 918 b 164 1014 138 918 164 972 l 258 1014 l 258 521 l 369 521 l 369 428 l 44 428 m 896 224 l 896 439 l 744 224 "},"¾":{"ha":1121,"x_min":0,"x_max":0,"o":"m 896 135 l 639 135 l 639 224 l 892 586 l 992 586 l 992 224 l 1076 224 l 1076 135 l 992 135 l 992 0 l 896 0 m 883 1014 l 1010 1014 l 278 0 l 151 0 m 213 419 b 24 503 138 419 74 444 l 107 565 b 213 508 135 526 169 508 b 310 596 269 508 310 543 b 199 683 310 650 264 683 l 139 683 l 139 775 l 199 775 b 301 858 265 775 301 811 b 207 938 301 906 264 938 b 110 878 160 938 131 914 l 28 924 b 207 1022 61 983 128 1022 b 394 860 322 1022 394 958 b 324 732 394 804 368 760 b 407 596 375 704 407 658 b 213 419 407 494 336 419 m 896 224 l 896 439 l 744 224 "},"⅕":{"ha":1181,"x_min":0,"x_max":0,"o":"m 883 1014 l 1010 1014 l 278 0 l 151 0 m 943 -8 b 744 101 844 -8 775 43 l 833 156 b 944 82 853 115 888 82 b 1046 186 1000 82 1046 124 b 943 293 1046 249 1001 293 b 838 228 892 293 858 267 l 750 269 l 793 586 l 1115 586 l 1115 494 l 871 494 l 851 350 b 951 382 876 368 910 382 b 1144 186 1054 382 1144 314 b 943 -8 1144 71 1060 -8 m 44 521 l 161 521 l 161 861 b 65 815 144 835 101 815 l 56 815 l 56 918 l 60 918 b 164 1014 138 918 164 972 l 258 1014 l 258 521 l 369 521 l 369 428 l 44 428 "},"⅖":{"ha":1181,"x_min":0,"x_max":0,"o":"m 883 1014 l 1010 1014 l 278 0 l 151 0 m 943 -8 b 744 101 844 -8 775 43 l 833 156 b 944 82 853 115 888 82 b 1046 186 1000 82 1046 124 b 943 293 1046 249 1001 293 b 838 228 892 293 858 267 l 750 269 l 793 586 l 1115 586 l 1115 494 l 871 494 l 851 350 b 951 382 876 368 910 382 b 1144 186 1054 382 1144 314 b 943 -8 1144 71 1060 -8 m 49 519 b 204 729 49 618 131 678 b 322 860 265 772 322 808 b 232 938 322 903 290 938 b 122 854 179 938 144 903 l 39 896 b 232 1022 74 972 140 1022 b 421 858 349 1022 421 949 b 272 663 421 765 344 713 b 147 521 208 619 147 579 l 422 521 l 422 428 l 49 428 "},"⅗":{"ha":1181,"x_min":0,"x_max":0,"o":"m 883 1014 l 1010 1014 l 278 0 l 151 0 m 943 -8 b 744 101 844 -8 775 43 l 833 156 b 944 82 853 115 888 82 b 1046 186 1000 82 1046 124 b 943 293 1046 249 1001 293 b 838 228 892 293 858 267 l 750 269 l 793 586 l 1115 586 l 1115 494 l 871 494 l 851 350 b 951 382 876 368 910 382 b 1144 186 1054 382 1144 314 b 943 -8 1144 71 1060 -8 m 213 419 b 24 503 138 419 74 444 l 107 565 b 213 508 135 526 169 508 b 310 596 269 508 310 543 b 199 683 310 650 264 683 l 139 683 l 139 775 l 199 775 b 301 858 265 775 301 811 b 207 938 301 906 264 938 b 110 878 160 938 131 914 l 28 924 b 207 1022 61 983 128 1022 b 394 860 322 1022 394 958 b 324 732 394 804 368 760 b 407 596 375 704 407 658 b 213 419 407 494 336 419 "},"⅘":{"ha":1181,"x_min":0,"x_max":0,"o":"m 301 563 l 44 563 l 44 651 l 297 1014 l 397 1014 l 397 651 l 482 651 l 482 563 l 397 563 l 397 428 l 301 428 m 883 1014 l 1010 1014 l 278 0 l 151 0 m 943 -8 b 744 101 844 -8 775 43 l 833 156 b 944 82 853 115 888 82 b 1046 186 1000 82 1046 124 b 943 293 1046 249 1001 293 b 838 228 892 293 858 267 l 750 269 l 793 586 l 1115 586 l 1115 494 l 871 494 l 851 350 b 951 382 876 368 910 382 b 1144 186 1054 382 1144 314 b 943 -8 1144 71 1060 -8 m 301 651 l 301 867 l 150 651 "},"⅙":{"ha":1099,"x_min":0,"x_max":0,"o":"m 854 -8 b 646 193 733 -8 646 81 b 690 342 646 247 663 301 l 847 586 l 961 586 l 832 389 b 872 394 844 392 858 394 b 1063 193 978 394 1063 310 b 854 -8 1063 76 972 -8 m 883 1014 l 1010 1014 l 278 0 l 151 0 m 44 521 l 161 521 l 161 861 b 65 815 144 835 101 815 l 56 815 l 56 918 l 60 918 b 164 1014 138 918 164 972 l 258 1014 l 258 521 l 369 521 l 369 428 l 44 428 m 853 81 b 967 196 914 81 967 132 b 853 308 967 258 914 308 b 740 194 790 308 740 258 b 853 81 740 132 790 81 "},"⅚":{"ha":1099,"x_min":0,"x_max":0,"o":"m 854 -8 b 646 193 733 -8 646 81 b 690 342 646 247 663 301 l 847 586 l 961 586 l 832 389 b 872 394 844 392 858 394 b 1063 193 978 394 1063 310 b 854 -8 1063 76 972 -8 m 883 1014 l 1010 1014 l 278 0 l 151 0 m 238 419 b 39 529 139 419 69 471 l 128 583 b 239 510 147 543 182 510 b 340 614 294 510 340 551 b 238 721 340 676 296 721 b 132 656 186 721 153 694 l 44 697 l 88 1014 l 410 1014 l 410 922 l 165 922 l 146 778 b 246 810 171 796 204 810 b 439 614 349 810 439 742 b 238 419 439 499 354 419 m 853 81 b 967 196 914 81 967 132 b 853 308 967 258 914 308 b 740 194 790 308 740 258 b 853 81 740 132 790 81 "},"⅛":{"ha":1175,"x_min":0,"x_max":0,"o":"m 940 -8 b 754 172 824 -8 754 75 b 829 310 754 232 785 281 b 772 429 794 335 772 374 b 940 594 772 518 839 594 b 1110 429 1039 594 1110 518 b 1050 311 1110 375 1086 336 b 1125 172 1093 283 1125 235 b 940 -8 1125 75 1057 -8 m 883 1014 l 1010 1014 l 278 0 l 151 0 m 44 521 l 161 521 l 161 861 b 65 815 144 835 101 815 l 56 815 l 56 918 l 60 918 b 164 1014 138 918 164 972 l 258 1014 l 258 521 l 369 521 l 369 428 l 44 428 m 939 81 b 1029 172 994 81 1029 122 b 939 264 1029 222 996 264 b 850 172 885 264 850 222 b 939 81 850 122 885 81 m 939 354 b 1011 429 983 354 1011 385 b 939 504 1011 469 985 504 b 869 429 896 504 869 469 b 939 354 869 385 896 354 "},"⅜":{"ha":1175,"x_min":0,"x_max":0,"o":"m 940 -8 b 754 172 824 -8 754 75 b 829 310 754 232 785 281 b 772 429 794 335 772 374 b 940 594 772 518 839 594 b 1110 429 1039 594 1110 518 b 1050 311 1110 375 1086 336 b 1125 172 1093 283 1125 235 b 940 -8 1125 75 1057 -8 m 883 1014 l 1010 1014 l 278 0 l 151 0 m 213 419 b 24 503 138 419 74 444 l 107 565 b 213 508 135 526 169 508 b 310 596 269 508 310 543 b 199 683 310 650 264 683 l 139 683 l 139 775 l 199 775 b 301 858 265 775 301 811 b 207 938 301 906 264 938 b 110 878 160 938 131 914 l 28 924 b 207 1022 61 983 128 1022 b 394 860 322 1022 394 958 b 324 732 394 804 368 760 b 407 596 375 704 407 658 b 213 419 407 494 336 419 m 939 81 b 1029 172 994 81 1029 122 b 939 264 1029 222 996 264 b 850 172 885 264 850 222 b 939 81 850 122 885 81 m 939 354 b 1011 429 983 354 1011 385 b 939 504 1011 469 985 504 b 869 429 896 504 869 469 b 939 354 869 385 896 354 "},"⅝":{"ha":1175,"x_min":0,"x_max":0,"o":"m 940 -8 b 754 172 824 -8 754 75 b 829 310 754 232 785 281 b 772 429 794 335 772 374 b 940 594 772 518 839 594 b 1110 429 1039 594 1110 518 b 1050 311 1110 375 1086 336 b 1125 172 1093 283 1125 235 b 940 -8 1125 75 1057 -8 m 883 1014 l 1010 1014 l 278 0 l 151 0 m 238 419 b 39 529 139 419 69 471 l 128 583 b 239 510 147 543 182 510 b 340 614 294 510 340 551 b 238 721 340 676 296 721 b 132 656 186 721 153 694 l 44 697 l 88 1014 l 410 1014 l 410 922 l 165 922 l 146 778 b 246 810 171 796 204 810 b 439 614 349 810 439 742 b 238 419 439 499 354 419 m 939 81 b 1029 172 994 81 1029 122 b 939 264 1029 222 996 264 b 850 172 885 264 850 222 b 939 81 850 122 885 81 m 939 354 b 1011 429 983 354 1011 385 b 939 504 1011 469 985 504 b 869 429 896 504 869 469 b 939 354 869 385 896 354 "},"⅞":{"ha":1064,"x_min":0,"x_max":0,"o":"m 829 -8 b 643 172 713 -8 643 75 b 718 310 643 232 674 281 b 661 429 683 335 661 374 b 829 594 661 518 728 594 b 999 429 928 594 999 518 b 939 311 999 375 975 336 b 1014 172 982 283 1014 235 b 829 -8 1014 75 946 -8 m 772 1014 l 899 1014 l 167 0 l 40 0 m 307 921 l 43 921 l 43 1014 l 410 1014 l 410 929 l 194 428 l 90 428 m 828 81 b 918 172 883 81 918 122 b 828 264 918 222 885 264 b 739 172 774 264 739 222 b 828 81 739 122 774 81 m 828 354 b 900 429 872 354 900 385 b 828 504 900 469 874 504 b 758 429 785 504 758 469 b 828 354 758 385 785 354 "},"⁺":{"ha":390,"x_min":0,"x_max":0,"o":"m 47 763 l 156 763 l 156 868 l 236 868 l 236 763 l 343 763 l 343 681 l 236 681 l 236 572 l 156 572 l 156 681 l 47 681 "},"⁻":{"ha":390,"x_min":0,"x_max":0,"o":"m 47 763 l 343 763 l 343 681 l 47 681 "},"⁼":{"ha":390,"x_min":0,"x_max":0,"o":"m 47 826 l 343 826 l 343 744 l 47 744 m 47 693 l 343 693 l 343 611 l 47 611 "},"⁽":{"ha":375,"x_min":0,"x_max":0,"o":"m 251 346 b 38 732 115 440 38 561 b 249 1118 38 907 121 1025 l 313 1039 b 138 732 211 969 138 876 b 314 426 138 590 213 496 l 251 346 "},"⁾":{"ha":375,"x_min":0,"x_max":0,"o":"m 61 426 b 238 732 163 496 238 590 b 63 1039 238 876 164 969 l 126 1118 b 338 732 254 1022 338 907 b 124 346 338 561 260 440 "},"⁰":{"ha":675,"x_min":0,"x_max":0,"o":"m 338 419 b 38 721 171 419 38 554 b 338 1022 38 888 171 1022 b 638 721 504 1022 638 888 b 338 419 638 554 504 419 m 338 514 b 542 721 451 514 542 608 b 338 928 542 835 451 928 b 135 721 224 928 135 835 b 338 514 135 608 224 514 "},"⁹":{"ha":490,"x_min":0,"x_max":0,"o":"m 267 626 b 226 621 253 622 240 621 b 36 821 122 621 36 704 b 244 1022 36 939 128 1022 b 453 821 364 1022 453 933 b 408 672 453 768 435 713 l 253 428 l 136 428 m 246 706 b 358 821 308 706 358 758 b 246 935 358 883 308 935 b 132 819 183 935 132 883 b 246 706 132 757 183 706 "},"⁸":{"ha":469,"x_min":0,"x_max":0,"o":"m 235 419 b 49 600 118 419 49 503 b 124 738 49 660 79 708 b 67 857 89 763 67 801 b 235 1022 67 946 133 1022 b 404 857 333 1022 404 946 b 344 739 404 803 381 764 b 419 600 388 711 419 663 b 235 419 419 503 351 419 m 233 508 b 324 600 289 508 324 550 b 233 692 324 650 290 692 b 144 600 179 692 144 650 b 233 508 144 550 179 508 m 233 782 b 306 857 278 782 306 813 b 233 932 306 897 279 932 b 164 857 190 932 164 897 b 233 782 164 813 190 782 "},"⁷":{"ha":454,"x_min":0,"x_max":0,"o":"m 307 921 l 43 921 l 43 1014 l 410 1014 l 410 929 l 194 428 l 90 428 "},"⁶":{"ha":490,"x_min":0,"x_max":0,"o":"m 246 419 b 38 621 125 419 38 508 b 82 769 38 675 54 729 l 239 1014 l 353 1014 l 224 817 b 264 822 236 819 250 822 b 454 621 369 822 454 738 b 246 419 454 504 364 419 m 244 508 b 358 624 306 508 358 560 b 244 736 358 686 306 736 b 132 622 182 736 132 686 b 244 508 132 560 182 508 "},"⁵":{"ha":475,"x_min":0,"x_max":0,"o":"m 238 419 b 39 529 139 419 69 471 l 128 583 b 239 510 147 543 182 510 b 340 614 294 510 340 551 b 238 721 340 676 296 721 b 132 656 186 721 153 694 l 44 697 l 88 1014 l 410 1014 l 410 922 l 165 922 l 146 778 b 246 810 171 796 204 810 b 439 614 349 810 439 742 b 238 419 439 499 354 419 "},"⁴":{"ha":526,"x_min":0,"x_max":0,"o":"m 301 563 l 44 563 l 44 651 l 297 1014 l 397 1014 l 397 651 l 482 651 l 482 563 l 397 563 l 397 428 l 301 428 m 301 651 l 301 867 l 150 651 "},"³":{"ha":446,"x_min":0,"x_max":0,"o":"m 213 419 b 24 503 138 419 74 444 l 107 565 b 213 508 135 526 169 508 b 310 596 269 508 310 543 b 199 683 310 650 264 683 l 139 683 l 139 775 l 199 775 b 301 858 265 775 301 811 b 207 938 301 906 264 938 b 110 878 160 938 131 914 l 28 924 b 207 1022 61 983 128 1022 b 394 860 322 1022 394 958 b 324 732 394 804 368 760 b 407 596 375 704 407 658 b 213 419 407 494 336 419 "},"²":{"ha":469,"x_min":0,"x_max":0,"o":"m 49 519 b 204 729 49 618 131 678 b 322 860 265 772 322 808 b 232 938 322 903 290 938 b 122 854 179 938 144 903 l 39 896 b 232 1022 74 972 140 1022 b 421 858 349 1022 421 949 b 272 663 421 765 344 713 b 147 521 208 619 147 579 l 422 521 l 422 428 l 49 428 "},"¹":{"ha":407,"x_min":0,"x_max":0,"o":"m 44 521 l 161 521 l 161 861 b 65 815 144 835 101 815 l 56 815 l 56 918 l 60 918 b 164 1014 138 918 164 972 l 258 1014 l 258 521 l 369 521 l 369 428 l 44 428 "},"":{"ha":1522,"x_min":0,"x_max":0,"o":"m 1278 -8 b 1069 193 1157 -8 1069 81 b 1114 342 1069 247 1086 301 l 1271 586 l 1385 586 l 1256 389 b 1296 394 1268 392 1282 394 b 1486 193 1401 394 1486 310 b 1278 -8 1486 76 1396 -8 m 883 1014 l 1010 1014 l 278 0 l 151 0 m 713 93 l 829 93 l 829 433 b 733 388 813 407 769 388 l 724 388 l 724 490 l 728 490 b 832 586 806 490 832 544 l 926 586 l 926 93 l 1038 93 l 1038 0 l 713 0 m 44 521 l 161 521 l 161 861 b 65 815 144 835 101 815 l 56 815 l 56 918 l 60 918 b 164 1014 138 918 164 972 l 258 1014 l 258 521 l 369 521 l 369 428 l 44 428 m 1276 81 b 1390 196 1338 81 1390 132 b 1276 308 1390 258 1338 308 b 1164 194 1214 308 1164 258 b 1276 81 1164 132 1214 81 "},"":{"ha":1522,"x_min":0,"x_max":0,"o":"m 1278 -8 b 1069 193 1157 -8 1069 81 b 1114 342 1069 247 1086 301 l 1271 586 l 1385 586 l 1256 389 b 1296 394 1268 392 1282 394 b 1486 193 1401 394 1486 310 b 1278 -8 1486 76 1396 -8 m 883 1014 l 1010 1014 l 278 0 l 151 0 m 213 419 b 24 503 138 419 74 444 l 107 565 b 213 508 135 526 169 508 b 310 596 269 508 310 543 b 199 683 310 650 264 683 l 139 683 l 139 775 l 199 775 b 301 858 265 775 301 811 b 207 938 301 906 264 938 b 110 878 160 938 131 914 l 28 924 b 207 1022 61 983 128 1022 b 394 860 322 1022 394 958 b 324 732 394 804 368 760 b 407 596 375 704 407 658 b 213 419 407 494 336 419 m 713 93 l 829 93 l 829 433 b 733 388 813 407 769 388 l 724 388 l 724 490 l 728 490 b 832 586 806 490 832 544 l 926 586 l 926 93 l 1038 93 l 1038 0 l 713 0 m 1276 81 b 1390 196 1338 81 1390 132 b 1276 308 1390 258 1338 308 b 1164 194 1214 308 1164 258 b 1276 81 1164 132 1214 81 "},"":{"ha":1411,"x_min":0,"x_max":0,"o":"m 1167 -8 b 958 193 1046 -8 958 81 b 1003 342 958 247 975 301 l 1160 586 l 1274 586 l 1144 389 b 1185 394 1157 392 1171 394 b 1375 193 1290 394 1375 310 b 1167 -8 1375 76 1285 -8 m 772 1014 l 899 1014 l 167 0 l 40 0 m 601 93 l 718 93 l 718 433 b 622 388 701 407 658 388 l 613 388 l 613 490 l 617 490 b 721 586 694 490 721 544 l 815 586 l 815 93 l 926 93 l 926 0 l 601 0 m 307 921 l 43 921 l 43 1014 l 410 1014 l 410 929 l 194 428 l 90 428 m 1165 81 b 1279 196 1226 81 1279 132 b 1165 308 1279 258 1226 308 b 1053 194 1103 308 1053 258 b 1165 81 1053 132 1103 81 "},"":{"ha":1521,"x_min":0,"x_max":0,"o":"m 1276 -8 b 1068 193 1156 -8 1068 81 b 1113 342 1068 247 1085 301 l 1269 586 l 1383 586 l 1254 389 b 1294 394 1267 392 1281 394 b 1485 193 1400 394 1485 310 b 1276 -8 1485 76 1394 -8 m 882 1014 l 1008 1014 l 276 0 l 150 0 m 238 419 b 39 529 139 419 69 471 l 128 583 b 239 510 147 543 182 510 b 340 614 294 510 340 551 b 238 721 340 676 296 721 b 132 656 186 721 153 694 l 44 697 l 88 1014 l 410 1014 l 410 922 l 165 922 l 146 778 b 246 810 171 796 204 810 b 439 614 349 810 439 742 b 238 419 439 499 354 419 m 711 93 l 828 93 l 828 433 b 732 388 811 407 768 388 l 722 388 l 722 490 l 726 490 b 831 586 804 490 831 544 l 925 586 l 925 93 l 1036 93 l 1036 0 l 711 0 m 1275 81 b 1389 196 1336 81 1389 132 b 1275 308 1389 258 1336 308 b 1163 194 1213 308 1163 258 b 1275 81 1163 132 1213 81 "},"":{"ha":1486,"x_min":0,"x_max":0,"o":"m 1242 -8 b 1033 193 1121 -8 1033 81 b 1078 342 1033 247 1050 301 l 1235 586 l 1349 586 l 1219 389 b 1260 394 1232 392 1246 394 b 1450 193 1365 394 1450 310 b 1242 -8 1450 76 1360 -8 m 267 626 b 226 621 253 622 240 621 b 36 821 122 621 36 704 b 244 1022 36 939 128 1022 b 453 821 364 1022 453 933 b 408 672 453 768 435 713 l 253 428 l 136 428 m 847 1014 l 974 1014 l 242 0 l 115 0 m 676 93 l 793 93 l 793 433 b 697 388 776 407 733 388 l 688 388 l 688 490 l 692 490 b 796 586 769 490 796 544 l 890 586 l 890 93 l 1001 93 l 1001 0 l 676 0 m 246 706 b 358 821 308 706 358 758 b 246 935 358 883 308 935 b 132 819 183 935 132 883 b 246 706 132 757 183 706 m 1240 81 b 1354 196 1301 81 1354 132 b 1240 308 1354 258 1301 308 b 1128 194 1178 308 1128 258 b 1240 81 1128 132 1178 81 "},"":{"ha":1881,"x_min":0,"x_max":0,"o":"m 1636 -8 b 1428 193 1515 -8 1428 81 b 1472 342 1428 247 1444 301 l 1629 586 l 1743 586 l 1614 389 b 1654 394 1626 392 1640 394 b 1844 193 1760 394 1844 310 b 1636 -8 1844 76 1754 -8 m 1242 1014 l 1368 1014 l 636 0 l 510 0 m 44 521 l 161 521 l 161 861 b 65 815 144 835 101 815 l 56 815 l 56 918 l 60 918 b 164 1014 138 918 164 972 l 258 1014 l 258 521 l 369 521 l 369 428 l 44 428 m 403 521 l 519 521 l 519 861 b 424 815 503 835 460 815 l 414 815 l 414 918 l 418 918 b 522 1014 496 918 522 972 l 617 1014 l 617 521 l 728 521 l 728 428 l 403 428 m 1071 93 l 1188 93 l 1188 433 b 1092 388 1171 407 1128 388 l 1082 388 l 1082 490 l 1086 490 b 1190 586 1164 490 1190 544 l 1285 586 l 1285 93 l 1396 93 l 1396 0 l 1071 0 m 1635 81 b 1749 196 1696 81 1749 132 b 1635 308 1749 258 1696 308 b 1522 194 1572 308 1522 258 b 1635 81 1522 132 1572 81 "},"":{"ha":1903,"x_min":0,"x_max":0,"o":"m 1658 -8 b 1450 193 1538 -8 1450 81 b 1494 342 1450 247 1467 301 l 1651 586 l 1765 586 l 1636 389 b 1676 394 1649 392 1663 394 b 1867 193 1782 394 1867 310 b 1658 -8 1867 76 1776 -8 m 1264 1014 l 1390 1014 l 658 0 l 532 0 m 593 419 b 404 503 518 419 454 444 l 488 565 b 593 508 515 526 550 508 b 690 596 650 508 690 543 b 579 683 690 650 644 683 l 519 683 l 519 775 l 579 775 b 682 858 646 775 682 811 b 588 938 682 906 644 938 b 490 878 540 938 511 914 l 408 924 b 588 1022 442 983 508 1022 b 775 860 703 1022 775 958 b 704 732 775 804 749 760 b 788 596 756 704 788 658 b 593 419 788 494 717 419 m 44 521 l 161 521 l 161 861 b 65 815 144 835 101 815 l 56 815 l 56 918 l 60 918 b 164 1014 138 918 164 972 l 258 1014 l 258 521 l 369 521 l 369 428 l 44 428 m 1093 93 l 1210 93 l 1210 433 b 1114 388 1193 407 1150 388 l 1104 388 l 1104 490 l 1108 490 b 1213 586 1186 490 1213 544 l 1307 586 l 1307 93 l 1418 93 l 1418 0 l 1093 0 m 1657 81 b 1771 196 1718 81 1771 132 b 1657 308 1771 258 1718 308 b 1544 194 1594 308 1544 258 b 1657 81 1544 132 1594 81 "},"":{"ha":1885,"x_min":0,"x_max":0,"o":"m 1640 -8 b 1432 193 1519 -8 1432 81 b 1476 342 1432 247 1449 301 l 1633 586 l 1747 586 l 1618 389 b 1658 394 1631 392 1644 394 b 1849 193 1764 394 1849 310 b 1640 -8 1849 76 1758 -8 m 1246 1014 l 1372 1014 l 640 0 l 514 0 m 600 419 b 401 529 501 419 432 471 l 490 583 b 601 510 510 543 544 510 b 703 614 657 510 703 551 b 600 721 703 676 658 721 b 494 656 549 721 515 694 l 407 697 l 450 1014 l 772 1014 l 772 922 l 528 922 l 508 778 b 608 810 533 796 567 810 b 801 614 711 810 801 742 b 600 419 801 499 717 419 m 1075 93 l 1192 93 l 1192 433 b 1096 388 1175 407 1132 388 l 1086 388 l 1086 490 l 1090 490 b 1194 586 1168 490 1194 544 l 1289 586 l 1289 93 l 1400 93 l 1400 0 l 1075 0 m 44 521 l 161 521 l 161 861 b 65 815 144 835 101 815 l 56 815 l 56 918 l 60 918 b 164 1014 138 918 164 972 l 258 1014 l 258 521 l 369 521 l 369 428 l 44 428 m 1639 81 b 1753 196 1700 81 1753 132 b 1639 308 1753 258 1700 308 b 1526 194 1576 308 1526 258 b 1639 81 1526 132 1576 81 "},"":{"ha":817,"x_min":0,"x_max":0,"o":"m 72 -14 l 746 -14 l 746 -107 l 72 -107 "},"¤":{"ha":1074,"x_min":0,"x_max":0,"o":"m 543 142 b 324 214 460 142 385 168 l 196 81 l 132 144 l 260 276 b 183 503 211 338 183 417 b 258 726 183 589 211 665 l 129 863 l 193 926 l 322 790 b 543 864 383 838 460 864 b 760 792 625 864 700 838 l 882 919 l 946 856 l 825 729 b 904 503 875 668 904 589 b 822 272 904 414 874 333 l 943 149 l 879 85 l 757 210 b 543 142 697 167 624 142 m 543 239 b 796 503 685 239 796 357 b 543 767 796 649 685 767 b 292 503 401 767 292 649 b 543 239 292 357 401 239 "},"←":{"ha":1244,"x_min":0,"x_max":0,"o":"m 358 163 b 69 478 297 281 186 413 l 69 543 b 358 858 186 608 297 740 l 449 799 b 236 563 399 713 307 615 l 1144 563 l 1144 458 l 236 458 b 449 222 308 404 399 308 l 358 163 "},"→":{"ha":1244,"x_min":0,"x_max":0,"o":"m 765 222 b 978 458 814 308 906 406 l 69 458 l 69 563 l 976 563 b 765 797 904 617 815 711 l 857 858 b 1144 542 917 740 1028 607 l 1144 478 b 854 163 1028 413 917 282 "},"↑":{"ha":1244,"x_min":0,"x_max":0,"o":"m 553 876 b 319 668 499 806 404 717 l 260 758 b 575 1047 378 819 510 931 l 640 1047 b 956 758 706 931 838 819 l 896 668 b 661 879 810 718 714 807 l 661 0 l 553 0 "},"↓":{"ha":1244,"x_min":0,"x_max":0,"o":"m 574 -33 b 258 256 508 83 376 194 l 318 346 b 550 139 401 297 496 210 l 550 1014 l 658 1014 l 658 133 b 894 346 711 206 808 296 l 954 256 b 639 -33 836 194 704 83 l 574 -33 "},"↖":{"ha":1244,"x_min":0,"x_max":0,"o":"m 308 733 b 292 418 321 646 317 514 l 186 440 b 204 867 226 567 240 739 l 250 914 b 678 932 379 876 551 892 l 699 826 b 381 810 601 800 468 796 l 1025 167 l 950 93 "},"↗":{"ha":1244,"x_min":0,"x_max":0,"o":"m 190 167 l 831 807 b 515 825 743 794 611 799 l 538 931 b 964 913 664 890 836 876 l 1011 867 b 1029 439 974 738 989 565 l 924 418 b 907 736 897 514 893 647 l 264 92 "},"↘":{"ha":1244,"x_min":0,"x_max":0,"o":"m 964 106 b 536 88 835 143 663 128 l 515 193 b 833 210 611 218 744 222 l 189 853 l 264 926 l 904 285 b 922 601 892 374 896 504 l 1028 579 b 1010 153 988 453 974 281 l 964 106 "},"↙":{"ha":1244,"x_min":0,"x_max":0,"o":"m 676 89 b 250 107 550 129 378 143 l 203 153 b 185 581 240 282 225 454 l 290 601 b 307 283 315 504 319 371 l 950 928 l 1024 853 l 382 211 b 699 194 471 224 601 219 l 676 89 "},"":{"ha":1483,"x_min":0,"x_max":0,"o":"m 358 163 b 69 478 297 281 186 413 l 69 543 b 358 858 186 608 297 740 l 449 799 b 236 563 399 713 307 615 l 1308 563 l 1308 458 l 236 458 b 449 222 308 404 399 308 l 358 163 m 1007 388 l 1054 388 l 1174 189 l 1100 189 m 1263 388 l 1310 388 l 1429 189 l 1356 189 m 1135 388 l 1182 388 l 1301 189 l 1228 189 m 1353 819 l 1426 819 l 1311 628 l 1264 628 m 1097 819 l 1171 819 l 1056 628 l 1008 628 m 1225 819 l 1299 819 l 1183 628 l 1136 628 "},"○":{"ha":1288,"x_min":0,"x_max":0,"o":"m 644 -14 b 124 507 357 -14 124 219 b 644 1028 124 794 357 1028 b 1165 507 932 1028 1165 794 b 644 -14 1165 219 932 -14 m 644 89 b 1054 507 878 89 1054 278 b 644 925 1054 736 878 925 b 235 507 411 925 235 736 b 644 89 235 278 411 89 "},"●":{"ha":1288,"x_min":0,"x_max":0,"o":"m 644 -14 b 124 507 357 -14 124 219 b 644 1028 124 794 357 1028 b 1165 507 932 1028 1165 794 b 644 -14 1165 219 932 -14 "},"⚪":{"ha":969,"x_min":0,"x_max":0,"o":"m 485 -14 b 125 347 285 -14 125 143 b 485 708 125 551 285 708 b 846 347 685 708 846 551 b 485 -14 846 143 685 -14 m 485 83 b 738 347 626 83 738 201 b 485 611 738 493 626 611 b 233 347 343 611 233 493 b 485 83 233 201 343 83 "},"⚫":{"ha":969,"x_min":0,"x_max":0,"o":"m 485 -14 b 125 347 285 -14 125 147 b 485 708 125 547 285 708 b 844 347 685 708 844 547 b 485 -14 844 147 685 -14 "},"■":{"ha":1286,"x_min":0,"x_max":0,"o":"m 139 1014 l 1147 1014 l 1147 0 l 139 0 "},"□":{"ha":1286,"x_min":0,"x_max":0,"o":"m 139 1014 l 1147 1014 l 1147 0 l 139 0 m 247 104 l 1039 104 l 1039 910 l 247 910 "},"⊠":{"ha":1286,"x_min":0,"x_max":0,"o":"m 139 1014 l 1147 1014 l 1147 0 l 139 0 m 247 104 l 1039 104 l 1039 910 l 247 910 m 383 300 l 582 507 l 381 718 l 444 782 l 644 572 l 844 782 l 908 718 l 707 507 l 903 303 l 839 239 l 644 442 l 447 236 "},"▪":{"ha":972,"x_min":0,"x_max":0,"o":"m 139 694 l 833 694 l 833 0 l 139 0 "},"▫":{"ha":972,"x_min":0,"x_max":0,"o":"m 139 694 l 833 694 l 833 0 l 139 0 m 247 104 l 725 104 l 725 590 l 247 590 "},"▲":{"ha":1246,"x_min":0,"x_max":0,"o":"m 28 0 l 624 1031 l 1218 0 "},"▼":{"ha":1246,"x_min":0,"x_max":0,"o":"m 1218 1014 l 624 -17 l 28 1014 "},"◄":{"ha":1246,"x_min":0,"x_max":0,"o":"m 1107 -79 l 76 517 l 1107 1111 "},"►":{"ha":1246,"x_min":0,"x_max":0,"o":"m 139 1111 l 1169 517 l 139 -79 "},"◤":{"ha":1246,"x_min":0,"x_max":0,"o":"m 40 233 l 882 1075 l 1190 -75 "},"◥":{"ha":1246,"x_min":0,"x_max":0,"o":"m 61 -81 l 371 1069 l 1211 226 "},"◢":{"ha":1246,"x_min":0,"x_max":0,"o":"m 371 -101 l 63 1049 l 1213 740 "},"◣":{"ha":1246,"x_min":0,"x_max":0,"o":"m 36 740 l 1186 1049 l 878 -101 "},"★":{"ha":1250,"x_min":0,"x_max":0,"o":"m 881 118 l 621 306 l 363 118 l 463 422 l 204 610 l 522 608 l 622 911 l 721 608 l 1040 607 l 781 421 "},"☼":{"ha":1289,"x_min":0,"x_max":0,"o":"m 399 507 b 640 749 399 639 508 749 b 882 507 772 749 882 639 b 640 265 882 375 772 265 b 399 507 508 265 399 375 m 603 999 l 678 999 l 654 801 l 626 801 m 678 18 l 603 18 l 626 215 l 654 215 m 150 471 l 150 546 l 347 522 l 347 494 m 1131 546 l 1131 471 l 933 494 l 933 522 m 194 721 l 233 786 l 393 665 l 379 644 m 1086 296 l 1047 231 l 888 351 l 901 372 m 363 915 l 428 954 l 504 769 l 483 756 m 918 101 l 853 63 l 776 247 l 797 261 m 853 954 l 918 915 l 797 756 l 776 769 m 428 63 l 363 101 l 483 261 l 504 247 m 1044 786 l 1086 722 l 901 644 l 888 667 m 236 231 l 194 294 l 379 372 l 393 350 "},"☾":{"ha":1093,"x_min":0,"x_max":0,"o":"m 742 856 b 410 507 558 856 410 699 b 742 158 410 315 558 158 b 840 175 775 158 808 165 b 593 96 769 125 683 96 b 182 507 367 96 182 281 b 593 918 182 733 367 918 b 840 839 683 918 769 889 b 742 856 808 847 775 856 "},"♻":{"ha":1279,"x_min":0,"x_max":0,"o":"m 1142 339 l 1015 121 b 901 49 989 81 969 49 l 826 49 l 826 -17 l 679 161 l 826 338 l 826 274 l 1015 274 b 1140 342 1093 274 1140 342 m 253 154 l 128 374 b 122 507 106 415 88 449 l 160 571 l 104 603 l 332 643 l 408 426 l 356 458 b 261 294 356 458 264 301 b 256 154 222 228 256 154 m 540 1013 l 793 1013 b 913 951 842 1011 879 1010 l 949 888 l 1006 919 l 925 701 l 700 743 l 753 774 l 660 938 b 540 1011 619 1006 540 1011 m 361 931 b 406 971 368 942 385 960 b 621 925 483 1017 594 975 l 469 663 l 274 775 m 419 49 b 361 65 404 49 381 53 b 293 274 282 111 264 225 l 596 274 l 596 49 m 1156 529 b 1168 472 1163 518 1168 496 b 1022 308 1169 382 1076 308 l 871 571 l 1065 682 "},"♼":{"ha":1279,"x_min":0,"x_max":0,"o":"m 1163 508 b 642 -12 1163 219 929 -12 b 118 508 351 -12 118 219 b 642 1032 118 797 351 1032 b 1163 508 929 1032 1163 797 m 354 722 l 506 635 l 622 838 b 456 874 601 876 515 908 b 422 842 440 864 426 851 m 554 904 b 647 847 554 904 618 899 l 721 721 l 679 696 l 854 664 l 915 833 l 872 808 l 843 858 b 750 906 817 903 789 906 l 554 906 m 599 158 l 599 333 l 363 333 b 417 171 340 294 356 207 b 461 158 432 163 450 158 m 339 240 b 343 350 339 240 314 297 l 417 476 l 458 451 l 399 619 l 222 589 l 265 564 l 236 514 b 240 410 208 468 224 443 l 338 240 m 968 650 l 815 563 l 933 358 b 1047 488 976 358 1049 417 b 1036 532 1047 506 1042 522 m 1025 385 b 928 333 1025 385 989 333 l 782 333 l 782 382 l 667 246 l 782 108 l 782 158 l 839 158 b 928 214 893 158 910 183 l 1026 383 "},"♽":{"ha":1279,"x_min":0,"x_max":0,"o":"m 1163 508 b 642 -12 1163 219 929 -12 b 118 508 351 -12 118 219 b 642 1032 118 797 351 1032 b 1163 508 929 1032 1163 797 m 1136 508 b 642 1006 1136 783 915 1006 b 143 508 365 1006 143 783 b 642 13 143 233 365 13 b 1136 508 915 13 1136 233 m 422 842 b 456 874 426 851 440 864 b 622 838 515 908 601 876 l 506 635 l 354 722 m 554 906 l 750 906 b 843 858 789 906 817 903 l 872 808 l 915 833 l 854 664 l 679 696 l 721 721 l 647 847 b 554 904 618 899 554 904 m 461 158 b 417 171 450 158 432 163 b 363 333 356 207 340 294 l 599 333 l 599 158 m 338 240 l 240 410 b 236 514 224 443 208 468 l 265 564 l 222 589 l 399 619 l 458 451 l 417 476 l 343 350 b 339 240 314 297 339 240 m 1036 532 b 1047 488 1042 522 1047 506 b 933 358 1049 417 976 358 l 815 563 l 968 650 m 1026 383 l 928 214 b 839 158 910 183 893 158 l 782 158 l 782 108 l 667 246 l 782 382 l 782 333 l 928 333 b 1025 385 989 333 1025 385 "},"⌂":{"ha":1214,"x_min":0,"x_max":0,"o":"m 139 0 l 139 593 l 607 1042 l 1075 593 l 1075 0 "},"♠":{"ha":1278,"x_min":0,"x_max":0,"o":"m 465 0 b 596 403 503 71 596 235 b 360 214 561 306 486 214 b 122 433 231 214 122 314 b 449 882 122 593 219 699 l 643 1038 l 644 1038 l 839 882 b 1156 433 1068 699 1156 593 b 938 215 1156 314 1057 215 b 686 403 801 215 721 306 b 825 0 686 235 788 71 "},"♣":{"ha":1278,"x_min":0,"x_max":0,"o":"m 467 0 b 593 344 500 63 576 197 b 361 181 554 249 468 181 b 115 426 225 181 115 290 b 361 672 115 563 225 672 b 419 663 382 672 401 668 b 393 783 403 699 393 742 b 636 1028 393 918 501 1028 b 881 783 771 1028 881 918 b 854 661 881 740 871 699 b 918 672 874 668 894 672 b 1163 426 1054 672 1163 563 b 917 181 1163 290 1053 181 b 690 343 810 181 728 249 b 826 0 710 197 793 63 "},"♥":{"ha":1278,"x_min":0,"x_max":0,"o":"m 124 764 b 378 1028 124 907 235 1028 b 635 804 519 1028 619 931 b 892 1028 651 931 749 1028 b 1154 764 1035 1028 1154 907 b 832 194 1154 604 1063 451 l 635 -24 l 439 194 b 124 764 208 451 124 604 "},"♦":{"ha":1278,"x_min":0,"x_max":0,"o":"m 639 1099 l 1093 542 l 639 -14 l 185 542 "},"¬":{"ha":838,"x_min":0,"x_max":0,"o":"m 681 628 l 39 628 l 39 732 l 789 732 l 789 282 l 681 282 "},"≡":{"ha":657,"x_min":0,"x_max":0,"o":"m 72 550 l 586 550 l 586 458 l 72 458 m 72 325 l 586 325 l 586 235 l 72 235 m 72 776 l 586 776 l 586 683 l 72 683 "},"∞":{"ha":1306,"x_min":0,"x_max":0,"o":"m 349 297 b 111 533 218 297 111 403 b 349 769 111 664 218 769 b 654 604 458 769 560 689 b 957 769 749 690 849 769 b 1193 533 1088 769 1193 664 b 957 297 1193 403 1088 297 b 653 469 850 297 749 381 b 349 297 557 381 456 297 m 350 393 b 582 535 422 393 499 458 b 350 671 501 608 424 671 b 211 532 275 671 211 606 b 350 393 211 458 275 393 m 956 396 b 1093 535 1031 396 1094 461 b 956 674 1093 608 1031 674 b 726 538 882 674 807 611 b 956 396 808 461 885 396 "},"∂":{"ha":839,"x_min":0,"x_max":0,"o":"m 418 -7 b 72 332 226 -7 72 138 b 406 672 72 526 224 672 b 601 606 501 672 558 644 b 176 1014 531 729 399 858 l 342 1014 b 767 332 636 785 767 564 b 418 -7 767 143 617 -7 m 421 92 b 658 332 551 92 658 200 b 421 572 658 461 554 572 b 181 332 290 572 181 464 b 421 92 181 200 290 92 "},"∫":{"ha":489,"x_min":0,"x_max":0,"o":"m -1 -168 b 164 0 146 -168 164 -140 l 164 749 b 428 1014 164 956 224 1014 l 438 1014 l 438 915 b 272 747 290 915 272 889 l 272 0 b 8 -267 272 -207 213 -267 l -1 -267 "},"√":{"ha":1096,"x_min":0,"x_max":0,"o":"m 196 585 l 63 585 l 63 694 l 274 694 l 490 114 l 904 1014 l 1024 1014 l 550 0 l 421 0 "},"∆":{"ha":1246,"x_min":0,"x_max":0,"o":"m 28 0 l 624 1031 l 1218 0 m 213 104 l 1035 104 l 624 818 "},"":{"ha":1151,"x_min":0,"x_max":0,"o":"m 36 104 l 357 104 b 129 579 251 217 129 378 b 575 1029 129 828 325 1029 b 1024 579 824 1029 1024 831 b 796 104 1024 378 901 217 l 1115 104 l 1115 0 l 700 0 l 651 90 b 911 579 778 240 911 375 b 574 933 911 783 765 933 b 242 579 385 933 242 783 b 501 90 242 375 375 240 l 453 0 l 36 0 "},"∏":{"ha":1043,"x_min":0,"x_max":0,"o":"m 60 1014 l 985 1014 l 985 908 l 801 908 l 801 0 l 693 0 l 693 908 l 350 908 l 350 0 l 242 0 l 242 908 l 60 908 "},"∑":{"ha":782,"x_min":0,"x_max":0,"o":"m 49 111 l 413 526 l 63 904 l 63 1014 l 733 1014 l 733 911 l 199 911 l 551 525 l 181 104 l 733 104 l 733 0 l 49 0 "},"◊":{"ha":1171,"x_min":0,"x_max":0,"o":"m 46 508 l 574 1036 l 1104 506 l 576 -22 m 576 115 l 968 507 l 574 900 l 182 508 "},"":{"ha":1483,"x_min":0,"x_max":0,"o":"m 1139 857 b 1428 542 1200 739 1311 607 l 1428 476 b 1139 161 1311 411 1200 279 l 1049 221 b 1261 457 1099 307 1189 403 l 189 457 l 189 561 l 1261 561 b 1049 797 1189 614 1099 711 l 1139 857 m 490 632 l 443 632 l 324 831 l 397 831 m 235 632 l 188 632 l 68 831 l 142 831 m 363 632 l 315 632 l 196 831 l 269 831 m 144 200 l 71 200 l 186 392 l 233 392 m 400 200 l 326 200 l 442 392 l 489 392 m 272 200 l 199 200 l 314 392 l 361 392 "},"":{"ha":1483,"x_min":0,"x_max":0,"o":"m 401 775 b 717 1064 519 836 651 947 l 782 1064 b 1097 775 847 947 979 836 l 1038 685 b 801 897 951 735 854 825 l 801 0 l 697 0 l 697 897 b 461 685 643 825 547 735 l 401 775 m 626 301 l 626 254 l 428 135 l 428 208 m 626 46 l 626 -1 l 428 -121 l 428 -47 m 626 174 l 626 126 l 428 7 l 428 81 m 1058 -44 l 1058 -118 l 867 -3 l 867 44 m 1058 211 l 1058 138 l 867 253 l 867 300 m 1058 83 l 1058 10 l 867 125 l 867 172 "},"":{"ha":1483,"x_min":0,"x_max":0,"o":"m 1096 239 b 781 -50 978 178 846 67 l 715 -50 b 400 239 650 67 518 178 l 460 329 b 696 117 546 279 642 188 l 696 1014 l 800 1014 l 800 117 b 1036 329 853 189 950 279 l 1096 239 m 871 713 l 871 760 l 1069 879 l 1069 806 m 871 968 l 871 1015 l 1069 1135 l 1069 1061 m 871 840 l 871 888 l 1069 1007 l 1069 933 m 439 1058 l 439 1132 l 631 1017 l 631 969 m 439 803 l 439 876 l 631 761 l 631 714 m 439 931 l 439 1004 l 631 889 l 631 842 "},"☒":{"ha":972,"x_min":0,"x_max":0,"o":"m 139 694 l 833 694 l 833 0 l 139 0 m 247 104 l 725 104 l 725 590 l 247 590 m 483 408 l 604 533 l 668 469 l 549 346 l 674 225 l 610 161 l 485 281 l 367 157 l 303 221 l 421 343 l 297 463 l 361 526 "},"′":{"ha":278,"x_min":0,"x_max":0,"o":"m 58 731 l 117 1014 l 221 1014 l 131 731 "},"″":{"ha":443,"x_min":0,"x_max":0,"o":"m 58 731 l 117 1014 l 221 1014 l 131 731 m 225 731 l 283 1014 l 388 1014 l 297 731 "},"◎":{"ha":1288,"x_min":0,"x_max":0,"o":"m 644 -14 b 124 507 357 -14 124 219 b 644 1028 124 794 357 1028 b 1165 507 932 1028 1165 794 b 644 -14 1165 219 932 -14 m 644 89 b 1054 507 878 89 1054 278 b 644 925 1054 736 878 925 b 235 507 411 925 235 736 b 644 89 235 278 411 89 m 644 194 b 335 506 472 194 335 329 b 644 817 335 682 472 817 b 956 506 817 817 956 682 b 644 194 956 329 817 194 m 644 294 b 850 506 760 294 850 386 b 644 717 850 625 760 717 b 440 506 529 717 440 625 b 644 294 440 386 529 294 m 644 400 b 540 507 586 400 540 449 b 644 614 540 565 586 614 b 749 507 703 614 749 565 b 644 400 749 449 703 400 "},"­":{"ha":657,"x_min":0,"x_max":0,"o":"m 72 394 l 586 394 l 586 300 l 72 300 "},"":{"ha":589,"x_min":0,"x_max":0,"o":"m 72 394 l 517 394 l 517 300 l 72 300 "},"–":{"ha":728,"x_min":0,"x_max":0,"o":"m 72 394 l 656 394 l 656 300 l 72 300 "},"":{"ha":333,"x_min":0,"x_max":0,"o":"m 114 163 b 138 739 114 349 125 608 l 199 739 b 222 163 211 608 222 349 l 222 0 l 114 0 m 114 1014 l 222 1014 l 222 824 l 114 824 "},"":{"ha":760,"x_min":0,"x_max":0,"o":"m 376 -14 b 75 243 204 -14 75 89 b 351 738 75 506 351 436 l 351 750 l 450 750 l 450 738 b 185 242 450 389 185 444 b 378 81 185 147 268 81 b 588 210 486 81 544 135 l 683 165 b 376 -14 633 68 525 -14 m 346 1014 l 454 1014 l 454 824 l 346 824 "}}}
